<?xml version="1.0" standalone="no"?>
<!DOCTYPE svg PUBLIC "-//W3C//DTD SVG 1.1//EN" "http://www.w3.org/Graphics/SVG/1.1/DTD/svg11.dtd" >
<svg>
<metadata>
Created by FontForge 20090622 at Sun Feb  9 13:57:27 2020
 By deploy user
Copyright &#194;&#169; 2016 by Red Hat, Inc. All rights reserved.
</metadata>
<defs>
<font id="Overpass-Light" horiz-adv-x="560" >
  <font-face 
    font-family="Overpass Light"
    font-weight="300"
    font-stretch="normal"
    units-per-em="1000"
    panose-1="0 0 4 0 0 0 0 0 0 0"
    ascent="750"
    descent="-250"
    x-height="511"
    cap-height="700"
    bbox="-220 -378 1211 1062"
    underline-thickness="77"
    underline-position="-100"
    unicode-range="U+0020-U+1F427"
  />
<missing-glyph horiz-adv-x="230" 
 />
    <glyph glyph-name="fi" unicode="fi" horiz-adv-x="582" 
d="M182 448v-448h-70v448h-82v63h82v87q0 58 30.5 86t75.5 28q43 0 87 -24v-61q-38 20 -73 20q-17 0 -28 -5t-15.5 -15t-5.5 -18t-1 -22v-76h123v-63h-123zM456 616q-20 0 -33 13t-13 33t13.5 34t32.5 14q20 0 33 -14t13 -34t-13 -33t-33 -13zM421 0v511h70v-511h-70z" />
    <glyph glyph-name="fl" unicode="fl" horiz-adv-x="590" 
d="M425 0v688l70 34v-722h-70zM182 448v-448h-70v448h-82v63h82v87q0 58 30.5 86t75.5 28q43 0 87 -24v-61q-38 20 -73 20q-17 0 -28 -5t-15.5 -15t-5.5 -18t-1 -22v-76h123v-63h-123z" />
    <glyph glyph-name=".notdef" horiz-adv-x="230" 
 />
    <glyph glyph-name=".null" horiz-adv-x="0" 
 />
    <glyph glyph-name="nonmarkingreturn" horiz-adv-x="333" 
 />
    <glyph glyph-name="space" unicode=" " horiz-adv-x="230" 
 />
    <glyph glyph-name="exclam" unicode="!" horiz-adv-x="270" 
d="M131 193l-30 302v217h72v-217l-31 -302h-11zM135 -14q-26 0 -44.5 19t-18.5 44t18.5 44t44.5 19t44.5 -19t18.5 -44t-18.5 -44t-44.5 -19z" />
    <glyph glyph-name="quotedbl" unicode="&#x22;" horiz-adv-x="385" 
d="M60 700h87l-18 -267h-53zM237 700h88l-18 -267h-53z" />
    <glyph glyph-name="numbersign" unicode="#" horiz-adv-x="685" 
d="M149 0l31 204h-123l12 63h120l27 178h-115l10 61h114l30 194h68l-29 -194h142l30 194h68l-30 -194h124l-10 -61h-123l-28 -178h117l-10 -63h-116l-31 -204h-68l31 204h-142l-31 -204h-68zM257 267h142l28 178h-142z" />
    <glyph glyph-name="dollar" unicode="$" horiz-adv-x="592" 
d="M259 -98v89q-71 9 -122.5 47.5t-71.5 91.5l66 24q21 -47 65 -74t103 -27q69 0 108 32.5t39 94.5q0 104 -157 163q-44 17 -74.5 32t-63.5 39.5t-50 58.5t-17 76q0 63 47 108t128 53v79h71v-80q60 -7 101 -36.5t54 -71.5l-65 -22q-14 30 -48.5 49t-84.5 19q-61 0 -95.5 -26
t-34.5 -71q0 -49 41.5 -79.5t118.5 -60.5q42 -16 73 -33t63 -44t49 -65.5t17 -85.5q0 -84 -51.5 -134t-137.5 -58v-88h-71z" />
    <glyph glyph-name="percent" unicode="%" horiz-adv-x="889" 
d="M216 356q-80 0 -118.5 53t-38.5 125q0 67 39 122.5t118 55.5q80 0 118.5 -52.5t38.5 -125.5q0 -43 -13.5 -81t-51 -67.5t-92.5 -29.5zM241 -12h-72l478 724h72zM216 414q44 0 68 34.5t24 85.5q0 55 -23.5 87.5t-68.5 32.5q-46 0 -69 -34t-23 -86q0 -54 23.5 -87t68.5 -33
zM672 -12q-80 0 -118.5 53t-38.5 125q0 67 39 122.5t118 55.5q80 0 118.5 -52.5t38.5 -125.5q0 -43 -13.5 -81t-51 -67.5t-92.5 -29.5zM672 46q44 0 68 34.5t24 85.5q0 55 -23.5 87.5t-68.5 32.5q-46 0 -69 -34t-23 -86q0 -54 23.5 -87t68.5 -33z" />
    <glyph glyph-name="ampersand" unicode="&#x26;" horiz-adv-x="653" 
d="M242 -12q-88 0 -141.5 51.5t-53.5 136.5q0 71 42.5 121t125.5 97q-49 60 -68.5 96.5t-19.5 74.5q0 67 47 107t118 40q68 0 113 -42t45 -107q0 -53 -35 -95.5t-103 -84.5l152 -182q29 57 36 118h66q-8 -93 -56 -172l123 -147h-87l-77 91q-46 -50 -106 -76.5t-121 -26.5z
M288 650q-43 0 -69 -23.5t-26 -62.5q0 -25 19 -54.5t63 -82.5q109 64 109 129q0 42 -27.5 68t-68.5 26zM256 51q43 0 88 24.5t81 67.5l-172 205q-73 -44 -106.5 -82t-33.5 -84q0 -59 40 -95t103 -36z" />
    <glyph glyph-name="quotesingle" unicode="'" horiz-adv-x="207" 
d="M60 700h87l-18 -267h-53z" />
    <glyph glyph-name="parenleft" unicode="(" horiz-adv-x="340" 
d="M207 -130q-122 160 -122 414q0 269 133 428h67q-42 -52 -86.5 -167t-44.5 -261q0 -236 120 -414h-67z" />
    <glyph glyph-name="parenright" unicode=")" horiz-adv-x="340" 
d="M66 -130q120 178 120 414q0 146 -44.5 261t-86.5 167h67q133 -159 133 -428q0 -254 -122 -414h-67z" />
    <glyph glyph-name="asterisk" unicode="*" horiz-adv-x="535" 
d="M298 393l-32 80l-31 -80l-66 -92l-56 43l64 88l58 56l-75 5l-102 34l23 66l97 -32l71 -49l-16 83v112h69v-112l-18 -83l71 49l99 32l23 -66l-104 -34l-77 -5l62 -56l63 -88l-55 -43z" />
    <glyph glyph-name="plus" unicode="+" horiz-adv-x="660" 
d="M365 308v-200h-72v200h-198v68h198v202h72v-202h200v-68h-200z" />
    <glyph glyph-name="comma" unicode="," horiz-adv-x="226" 
d="M73 -136q18 16 34 47t16 70q-32 0 -52.5 17.5t-20.5 44.5q0 30 17.5 48t43.5 18q29 0 50.5 -21.5t21.5 -62.5q0 -55 -25 -98t-66 -68z" />
    <glyph glyph-name="hyphen" unicode="-" horiz-adv-x="403" 
d="M90 264v68h223v-68h-223z" />
    <glyph glyph-name="period" unicode="." horiz-adv-x="226" 
d="M113 -14q-26 0 -44.5 19t-18.5 44t18.5 44t44.5 19t44.5 -19t18.5 -44t-18.5 -44t-44.5 -19z" />
    <glyph glyph-name="slash" unicode="/" horiz-adv-x="486" 
d="M0 -130l393 842h68l-393 -842h-68z" />
    <glyph glyph-name="zero" unicode="0" horiz-adv-x="630" 
d="M315 -12q-53 0 -95 21t-68.5 55.5t-44.5 82.5t-25 98t-7 105q0 62 10.5 119.5t35.5 115t75 92.5t119 35q66 0 114.5 -32t74.5 -86t38.5 -114.5t12.5 -129.5q0 -48 -6 -94.5t-23 -96.5t-43 -86.5t-69.5 -60.5t-98.5 -24zM315 51q165 0 165 299q0 59 -7.5 108.5t-25 94.5
t-51.5 70.5t-81 25.5q-50 0 -85 -28t-51.5 -75t-23.5 -94.5t-7 -101.5q0 -299 167 -299z" />
    <glyph glyph-name="one" unicode="1" horiz-adv-x="344" 
d="M164 0v573h-119v40q115 0 144 87h45v-700h-70z" />
    <glyph glyph-name="two" unicode="2" horiz-adv-x="610" 
d="M76 0q0 36 7.5 69t16 57t29 50t32.5 40t41.5 36.5t41 30.5l44.5 30l65 45.5t49.5 42t41.5 55t12 59.5q0 59 -40.5 96.5t-111.5 37.5q-127 0 -156 -113l-62 28q16 64 76.5 106t147.5 42q102 0 160.5 -53.5t58.5 -143.5q0 -31 -7 -58t-25.5 -52t-32 -41.5t-46 -40
t-46 -32.5l-51.5 -34q-39 -25 -60 -40.5t-48 -40t-42 -51t-21 -58.5h385v-67h-459z" />
    <glyph glyph-name="three" unicode="3" horiz-adv-x="600" 
d="M287 -12q-95 0 -149.5 43.5t-82.5 120.5l65 27q26 -65 66 -95.5t101 -30.5q71 0 117.5 35t46.5 102q0 66 -40.5 104t-115.5 38h-47v64h37q62 0 100 34.5t38 92.5q0 56 -38 90t-91 34q-108 0 -155 -108l-65 25q25 63 80 105.5t137 42.5q88 0 146.5 -49.5t58.5 -129.5
q0 -47 -24 -89t-65 -64q55 -22 86.5 -71t31.5 -117q0 -87 -70.5 -145.5t-167.5 -58.5z" />
    <glyph glyph-name="four" unicode="4" horiz-adv-x="597" 
d="M375 0v189h-340v37l368 474h42v-451h106v-60h-106v-189h-70zM375 249v330l-249 -330h249z" />
    <glyph glyph-name="five" unicode="5" horiz-adv-x="638" 
d="M309 -12q-79 0 -141.5 26.5t-92.5 62.5l41 51q40 -39 83 -59.5t107 -20.5q78 0 130.5 50.5t52.5 119.5q0 71 -44 119.5t-113 48.5q-58 0 -102.5 -20t-67.5 -47l-59 18l57 363h356v-63h-300l-40 -244q67 59 161 59q95 0 160.5 -63t65.5 -162q0 -94 -69.5 -166.5
t-184.5 -72.5z" />
    <glyph glyph-name="six" unicode="6" horiz-adv-x="596" 
d="M297 -12q-111 0 -171.5 75.5t-60.5 195.5q0 150 103.5 282.5t254.5 170.5v-55q-99 -29 -177 -113t-95 -174q53 64 163 64q84 0 145.5 -66t61.5 -148q0 -97 -66 -164.5t-158 -67.5zM294 51q71 0 115.5 45.5t44.5 113.5q0 72 -43.5 117t-116.5 45q-70 0 -115 -45.5
t-45 -116.5q0 -67 46 -113t114 -46z" />
    <glyph glyph-name="seven" unicode="7" horiz-adv-x="509" 
d="M169 0q2 181 49 334.5t166 305.5h-339v60h419v-46q-223 -255 -225 -654h-70z" />
    <glyph glyph-name="eight" unicode="8" horiz-adv-x="608" 
d="M304 -12q-99 0 -164 60t-65 149q0 65 34.5 117.5t89.5 72.5q-43 19 -67.5 58.5t-24.5 85.5q0 74 57 127.5t140 53.5t140 -53.5t57 -127.5q0 -47 -24 -86t-69 -58q56 -21 90.5 -73t34.5 -117q0 -89 -65 -149t-164 -60zM304 408q57 0 91.5 32t34.5 82q0 58 -35.5 92.5
t-90.5 34.5t-90.5 -34.5t-35.5 -92.5q0 -50 34.5 -82t91.5 -32zM304 51q68 0 112 42t44 114q0 64 -43.5 109.5t-112.5 45.5t-112.5 -45.5t-43.5 -109.5q0 -72 44 -114t112 -42z" />
    <glyph glyph-name="nine" unicode="9" horiz-adv-x="596" 
d="M177 -12v55q99 29 172.5 114.5t86.5 178.5q-53 -68 -166 -68q-85 0 -145 63t-60 149q0 98 67 165t165 67q109 0 166.5 -75.5t57.5 -195.5q0 -152 -97.5 -283.5t-246.5 -169.5zM292 324q70 0 115 46.5t45 117.5q0 68 -46.5 114.5t-113.5 46.5q-71 0 -115.5 -46t-44.5 -115
q0 -72 43.5 -118t116.5 -46z" />
    <glyph glyph-name="colon" unicode=":" horiz-adv-x="226" 
d="M113 357q-26 0 -44.5 19t-18.5 44t18.5 44t44.5 19t44.5 -19t18.5 -44t-18.5 -44t-44.5 -19zM113 -14q-26 0 -44.5 19t-18.5 44t18.5 44t44.5 19t44.5 -19t18.5 -44t-18.5 -44t-44.5 -19z" />
    <glyph glyph-name="semicolon" unicode=";" horiz-adv-x="226" 
d="M113 357q-26 0 -44.5 19t-18.5 44t18.5 44t44.5 19t44.5 -19t18.5 -44t-18.5 -44t-44.5 -19zM73 -136q17 15 31 46.5t14 71.5q-28 0 -48 17t-20 44q0 30 17.5 48t43.5 18q29 0 50.5 -21.5t21.5 -62.5q0 -55 -25 -98t-66 -68z" />
    <glyph glyph-name="less" unicode="&#x3c;" horiz-adv-x="660" 
d="M565 120l-470 189v66l470 190v-67l-393 -155l393 -155v-68z" />
    <glyph glyph-name="equal" unicode="=" horiz-adv-x="660" 
d="M95 388v67h470v-67h-470zM95 229v67h470v-67h-470z" />
    <glyph glyph-name="greater" unicode="&#x3e;" horiz-adv-x="660" 
d="M565 309l-470 -189v66l393 157l-393 155v67l470 -190v-66z" />
    <glyph glyph-name="question" unicode="?" horiz-adv-x="526" 
d="M216 170v23q0 52 19.5 93t47 67l55 50t47 56t19.5 71q0 50 -37 83.5t-102 33.5q-72 0 -113.5 -38t-41.5 -98h-66q0 87 60 144t161 57q99 0 155 -52.5t56 -131.5q0 -48 -19.5 -85.5t-47 -62l-55 -48.5t-47 -59t-19.5 -80v-23h-72zM250 -14q-26 0 -44.5 19t-18.5 44
t18.5 44t44.5 19t44.5 -19t18.5 -44t-18.5 -44t-44.5 -19z" />
    <glyph glyph-name="at" unicode="@" horiz-adv-x="799" 
d="M399 -12q-150 0 -249.5 93t-99.5 254q0 163 108.5 270t259.5 107q147 0 239 -82.5t92 -216.5q0 -109 -47.5 -181t-116.5 -72q-81 0 -96 76q-46 -85 -127 -85q-63 0 -104.5 48.5t-41.5 122.5q0 78 52.5 142.5t134.5 64.5q44 0 73.5 -25t37.5 -71l14 83h63l-40 -232
q-1 -6 -1 -18q0 -24 12 -37.5t33 -13.5q41 0 67.5 57.5t26.5 144.5q0 111 -76 172t-192 61q-140 0 -222.5 -88.5t-82.5 -227.5q0 -122 77.5 -203t209.5 -81q86 0 143 19l-15 -66q-54 -15 -132 -15zM381 212q51 0 84 43t33 104q0 48 -26.5 78.5t-63.5 30.5q-55 0 -87.5 -42.5
t-32.5 -104.5q0 -50 25 -79.5t68 -29.5z" />
    <glyph glyph-name="A" unicode="A" horiz-adv-x="662" 
d="M531 0l-64 181h-273l-61 -181h-73l243 700h54l245 -700h-71zM446 243l-96 280q-16 45 -20 63l-8 -26q-7 -27 -11 -37l-96 -280h231z" />
    <glyph glyph-name="B" unicode="B" horiz-adv-x="646" 
d="M105 700h232q113 0 163.5 -52.5t50.5 -130.5q0 -52 -29.5 -90.5t-80.5 -57.5q60 -15 97.5 -59.5t37.5 -113.5q0 -83 -52.5 -139.5t-170.5 -56.5h-248v700zM320 394q81 0 123.5 33.5t42.5 91.5q0 118 -143 118h-168v-243h145zM365 63q79 0 112.5 36t33.5 91
q0 143 -179 143h-157v-270h190z" />
    <glyph glyph-name="C" unicode="C" horiz-adv-x="644" 
d="M360 -12q-75 0 -132.5 30.5t-91 82.5t-50 115t-16.5 134q0 100 29.5 179.5t96.5 131t164 51.5q86 0 134 -30.5t80 -82.5l-62 -36q-28 40 -62.5 63t-89.5 23q-57 0 -101 -26.5t-68 -71t-36 -95.5t-12 -106q0 -81 21.5 -146.5t72 -109t123.5 -43.5q108 0 162 89l62 -24
q-27 -55 -83.5 -91.5t-140.5 -36.5z" />
    <glyph glyph-name="D" unicode="D" horiz-adv-x="678" 
d="M105 700h186q85 0 149 -30t99 -81t52 -111t17 -128q0 -51 -9 -98.5t-32 -94t-58 -81t-92 -55.5t-130 -21h-182v700zM292 63q67 0 116.5 25t76 68t38.5 91t12 103q0 120 -58 203.5t-174 83.5h-128v-574h117z" />
    <glyph glyph-name="E" unicode="E" horiz-adv-x="596" 
d="M105 0v700h399v-67h-329v-238h222v-66h-222v-262h351v-67h-421z" />
    <glyph glyph-name="F" unicode="F" horiz-adv-x="564" 
d="M105 0v700h409v-67h-339v-238h229v-66h-229v-329h-70z" />
    <glyph glyph-name="G" unicode="G" horiz-adv-x="685" 
d="M360 -12q-75 0 -132.5 30.5t-91 82.5t-50 115t-16.5 134q0 100 29.5 179.5t96.5 131t164 51.5q86 0 134 -30.5t80 -82.5l-62 -36q-28 40 -62.5 63t-89.5 23q-57 0 -101 -26.5t-68 -71t-36 -95.5t-12 -106q0 -81 21.5 -146.5t72 -109t123.5 -43.5q76 0 121 47t45 127v42
h-129v62h203v-77q0 -125 -67.5 -194.5t-172.5 -69.5z" />
    <glyph glyph-name="H" unicode="H" horiz-adv-x="692" 
d="M517 0v331h-342v-331h-70v700h70v-303h342v303h70v-700h-70z" />
    <glyph glyph-name="I" unicode="I" horiz-adv-x="280" 
d="M105 0v700h70v-700h-70z" />
    <glyph glyph-name="J" unicode="J" horiz-adv-x="526" 
d="M212 -12q-72 0 -114.5 30t-67.5 89l55 30q18 -34 29 -48.5t36 -26t65 -11.5q58 0 97 35t39 118v496h70v-475q0 -55 -13 -98t-34 -68.5t-49.5 -42t-55.5 -22.5t-57 -6z" />
    <glyph glyph-name="K" unicode="K" horiz-adv-x="643" 
d="M509 0l-220 403l-114 -142v-261h-70v700h70v-348l277 348h76l-191 -238l251 -462h-79z" />
    <glyph glyph-name="L" unicode="L" horiz-adv-x="557" 
d="M105 0v700h70v-633h347v-67h-417z" />
    <glyph glyph-name="M" unicode="M" horiz-adv-x="802" 
d="M697 0h-70v476v42q-3 -7 -9.5 -21t-9.5 -21l-215 -488l-202 488q-2 6 -8 19t-8 20v-39v-476h-70v700h60l217 -506q3 -6 8.5 -19l8.5 -20l8.5 20t8.5 19l220 506h61v-700z" />
    <glyph glyph-name="N" unicode="N" horiz-adv-x="705" 
d="M600 0h-71l-326 524l-28 47v-47v-524h-70v700h71l325 -530l29 -49v49v530h70v-700z" />
    <glyph glyph-name="O" unicode="O" horiz-adv-x="720" 
d="M360 -12q-78 0 -136 31.5t-90.5 85t-48 115t-15.5 130.5t15.5 130.5t48 115t90.5 85t136 31.5t136 -31.5t90.5 -85t48 -115t15.5 -130.5t-15.5 -130.5t-48 -115t-90.5 -85t-136 -31.5zM360 51q58 0 101.5 26.5t68 71t36 95.5t11.5 106q0 81 -19.5 145.5t-70 109
t-127.5 44.5q-58 0 -101.5 -26.5t-68 -71t-36 -95.5t-11.5 -106q0 -81 19.5 -145.5t70 -109t127.5 -44.5z" />
    <glyph glyph-name="P" unicode="P" horiz-adv-x="627" 
d="M105 0v700h256q116 0 168.5 -59.5t52.5 -146.5q0 -81 -55 -143t-166 -62h-186v-289h-70zM367 352q76 0 112 42t36 100q0 57 -34.5 100t-113.5 43h-192v-285h192z" />
    <glyph glyph-name="Q" unicode="Q" horiz-adv-x="720" 
d="M360 -12q-78 0 -136 31.5t-90.5 85t-48 115t-15.5 130.5t15.5 130.5t48 115t90.5 85t136 31.5t136 -31.5t90.5 -85t48 -115t15.5 -130.5q0 -196 -104 -293l58 -86l-48 -36l-58 86q-60 -33 -138 -33zM360 51q57 0 100 26l-47 70l50 36l44 -66q70 83 70 233
q0 81 -19.5 145.5t-70 109t-127.5 44.5q-58 0 -101.5 -26.5t-68 -71t-36 -95.5t-11.5 -106q0 -81 19.5 -145.5t70 -109t127.5 -44.5z" />
    <glyph glyph-name="R" unicode="R" horiz-adv-x="653" 
d="M105 0v700h257q114 0 165 -55.5t51 -136.5q0 -71 -42 -124.5t-131 -67.5l155 -316h-77l-150 313h-158v-313h-70zM175 376h189q76 0 111.5 37.5t35.5 91.5q0 51 -34.5 91.5t-112.5 40.5h-189v-261z" />
    <glyph glyph-name="S" unicode="S" horiz-adv-x="594" 
d="M298 -12q-85 0 -148 41t-85 101l66 24q22 -47 66 -75t102 -28q69 0 108.5 33.5t39.5 95.5q0 59 -43 97.5t-115 65.5q-43 16 -74.5 32t-64 40.5t-49.5 58.5t-17 75q0 69 56 116t150 47q76 0 128 -31t67 -80l-65 -22q-14 30 -48.5 50t-84.5 20q-61 0 -96 -27t-35 -72
q0 -27 12.5 -48t38 -38t49 -28t61.5 -26q41 -16 72.5 -33.5t63 -44.5t49 -65t17.5 -85q0 -91 -61 -142.5t-160 -51.5z" />
    <glyph glyph-name="T" unicode="T" horiz-adv-x="575" 
d="M322 633v-633h-70v633h-192v67h455v-67h-193z" />
    <glyph glyph-name="U" unicode="U" horiz-adv-x="680" 
d="M340 -12q-240 0 -240 272v440h70v-440q0 -209 170 -209t170 209v440h70v-440q0 -272 -240 -272z" />
    <glyph glyph-name="V" unicode="V" horiz-adv-x="640" 
d="M295 0l-240 700h74l175 -525q4 -11 10.5 -32l9.5 -30q3 12 10 33.5t9 28.5l167 525h75l-239 -700h-51z" />
    <glyph glyph-name="W" unicode="W" horiz-adv-x="827" 
d="M190 0l-135 700h74l85 -481l12 -70q3 12 19 68l138 483h52l136 -483q10 -36 15 -56l12 59l101 480h73l-152 -700h-44l-150 502q-12 40 -18 62q-6 -22 -18 -62l-152 -502h-48z" />
    <glyph glyph-name="X" unicode="X" horiz-adv-x="562" 
d="M444 0l-167 304l-159 -304h-74l201 361l-186 339h76l147 -270l144 270h73l-185 -328l205 -372h-75z" />
    <glyph glyph-name="Y" unicode="Y" horiz-adv-x="616" 
d="M274 0v275l-229 425h77l186 -360l191 360h72l-227 -422v-278h-70z" />
    <glyph glyph-name="Z" unicode="Z" horiz-adv-x="637" 
d="M70 0v49l408 585h-385v66h474v-51l-403 -583h403v-66h-497z" />
    <glyph glyph-name="bracketleft" unicode="[" horiz-adv-x="379" 
d="M115 -130v842h209v-63h-139v-716h139v-63h-209z" />
    <glyph glyph-name="backslash" unicode="\" horiz-adv-x="486" 
d="M393 -130l-393 842h68l393 -842h-68z" />
    <glyph glyph-name="bracketright" unicode="]" horiz-adv-x="379" 
d="M264 -130h-209v63h139v716h-139v63h209v-842z" />
    <glyph glyph-name="asciicircum" unicode="^" horiz-adv-x="660" 
d="M488 362l-158 263l-158 -263h-72l191 350h76l193 -350h-72z" />
    <glyph glyph-name="underscore" unicode="_" horiz-adv-x="530" 
d="M10 -177v77h510v-77h-510z" />
    <glyph glyph-name="grave" unicode="`" horiz-adv-x="335" 
d="M199 576l-178 156h107l142 -156h-71z" />
    <glyph glyph-name="a" unicode="a" horiz-adv-x="519" 
d="M384 0v50q-69 -62 -150 -62q-80 0 -127 44.5t-47 128.5q0 83 53.5 126t132.5 43q71 0 138 -36v43q0 125 -112 125q-72 0 -152 -55l-20 60q88 56 179 56q31 0 58 -7.5t53.5 -26t42.5 -55t16 -88.5v-346h-65zM241 49q79 0 143 79v99q-63 42 -131 42q-55 0 -91.5 -27.5
t-36.5 -80.5q0 -51 30.5 -81.5t85.5 -30.5z" />
    <glyph glyph-name="b" unicode="b" horiz-adv-x="562" 
d="M302 -12q-34 0 -62.5 10t-43 20t-36.5 28v-46h-70v687l70 35v-261q25 28 62 45t74 17q97 0 154 -71t57 -196q0 -129 -54 -198.5t-151 -69.5zM291 51q71 0 107 54t36 151q0 99 -36 151.5t-107 52.5q-43 0 -78.5 -24.5t-52.5 -53.5v-251q21 -36 57 -58t74 -22z" />
    <glyph glyph-name="c" unicode="c" horiz-adv-x="481" 
d="M257 -12q-93 0 -147.5 70.5t-54.5 196.5t56 197t154 71q57 0 100 -28t64 -79l-64 -25q-28 69 -103 69q-134 0 -134 -205q0 -204 132 -204q41 0 70.5 21t42.5 57l63 -24q-18 -54 -66 -85.5t-113 -31.5z" />
    <glyph glyph-name="d" unicode="d" horiz-adv-x="562" 
d="M266 -12q-98 0 -154.5 72.5t-56.5 195.5q0 125 56.5 196t154.5 71q76 0 136 -48v212l70 35v-722h-70v44q-56 -56 -136 -56zM274 51q39 0 73 21t55 59v255q-46 74 -128 74q-70 0 -108 -53t-38 -151q0 -88 40 -146.5t106 -58.5z" />
    <glyph glyph-name="e" unicode="e" horiz-adv-x="529" 
d="M277 -12q-100 0 -161 78t-61 190q0 125 61 196t161 71q88 0 145 -62.5t57 -184.5q0 -27 -2 -49h-348q9 -80 48 -127t103 -47q61 0 115 40l38 -47q-70 -58 -156 -58zM127 290h281q-1 93 -40.5 131.5t-90.5 38.5q-64 0 -105 -43t-45 -127z" />
    <glyph glyph-name="f" unicode="f" horiz-adv-x="330" 
d="M182 448v-448h-70v448h-82v63h82v87q0 58 30.5 86t75.5 28q43 0 87 -24v-61q-38 20 -73 20q-17 0 -28 -5t-15.5 -15t-5.5 -18t-1 -22v-76h123v-63h-123z" />
    <glyph glyph-name="g" unicode="g" horiz-adv-x="564" 
d="M234 -213l-32 55q115 6 158.5 42t43.5 96v78q-47 -70 -140 -70q-88 0 -148.5 70.5t-60.5 197.5q0 124 59 195.5t154 71.5q85 0 136 -60v48h70v-503q0 -211 -240 -221zM280 51q33 0 68.5 23.5t55.5 61.5v246q-20 36 -56.5 57t-67.5 21q-75 0 -113.5 -52.5t-38.5 -151.5
q0 -96 42.5 -150.5t109.5 -54.5z" />
    <glyph glyph-name="h" unicode="h" 
d="M90 0v689l70 33v-268q46 69 132 69q94 0 138.5 -57t44.5 -183v-283h-70v312q0 77 -32 112.5t-87 35.5q-126 0 -126 -146v-314h-70z" />
    <glyph glyph-name="i" unicode="i" horiz-adv-x="252" 
d="M126 616q-20 0 -33 13t-13 33t13.5 34t32.5 14q20 0 33 -14t13 -34t-13 -33t-33 -13zM91 0v511h70v-511h-70z" />
    <glyph glyph-name="j" unicode="j" horiz-adv-x="252" 
d="M127 616q-19 0 -32.5 13t-13.5 33t13.5 34t32.5 14q20 0 33 -14t13 -34t-13 -33t-33 -13zM2 -213l-32 55q122 11 122 98v571h70v-543q0 -70 -28 -114q-41 -62 -132 -67z" />
    <glyph glyph-name="k" unicode="k" horiz-adv-x="511" 
d="M486 0h-77l-164 324l-85 -91v-233h-70v688l70 34v-406l181 195h81l-128 -136z" />
    <glyph glyph-name="l" unicode="l" horiz-adv-x="260" 
d="M95 0v688l70 34v-722h-70z" />
    <glyph glyph-name="m" unicode="m" horiz-adv-x="843" 
d="M688 0v313q0 147 -111 147q-55 0 -86.5 -42.5t-31.5 -104.5v-313h-70v313q0 147 -111 147q-57 0 -87.5 -38.5t-30.5 -100.5v-321h-70v511h70v-50q53 62 139 62q41 0 79 -21t59 -57q22 34 60.5 56t85.5 22q76 0 125.5 -50t49.5 -133v-340h-70z" />
    <glyph glyph-name="n" unicode="n" 
d="M405 0v312q0 77 -32 112.5t-87 35.5q-126 0 -126 -146v-314h-70v511h70v-56q47 68 132 68q94 0 138.5 -57t44.5 -183v-283h-70z" />
    <glyph glyph-name="o" unicode="o" horiz-adv-x="548" 
d="M274 -12q-100 0 -159.5 70.5t-59.5 196.5q0 125 60 196.5t159 71.5q100 0 159.5 -70.5t59.5 -196.5q0 -125 -60 -196.5t-159 -71.5zM274 51q69 0 107.5 54.5t38.5 150.5t-37.5 150t-108.5 54t-108.5 -52.5t-37.5 -152.5q0 -96 37.5 -150t108.5 -54z" />
    <glyph glyph-name="p" unicode="p" horiz-adv-x="566" 
d="M300 -12q-85 0 -140 64v-220l-70 -35v714h70v-46q64 58 140 58q98 0 154.5 -72.5t56.5 -194.5q0 -126 -58.5 -197t-152.5 -71zM292 51q70 0 108 53t38 152q0 94 -39 149t-107 55q-41 0 -76 -21t-56 -58v-251q61 -79 132 -79z" />
    <glyph glyph-name="q" unicode="q" horiz-adv-x="564" 
d="M268 -12q-99 0 -156 70.5t-57 196.5q0 122 55 195t151 73q70 0 143 -58v46h70v-679l-70 -32v252q-57 -64 -136 -64zM271 51q30 0 58 15t42 29t33 37v249q-45 79 -133 79q-66 0 -104.5 -58.5t-38.5 -146.5q0 -99 36.5 -151.5t106.5 -52.5z" />
    <glyph glyph-name="r" unicode="r" horiz-adv-x="381" 
d="M90 0v511h70v-72q39 84 129 84q43 0 72 -21l-11 -68q-31 19 -66 19q-47 0 -85.5 -39.5t-38.5 -124.5v-289h-70z" />
    <glyph glyph-name="s" unicode="s" horiz-adv-x="463" 
d="M234 -12q-101 0 -176 89l49 43q59 -70 133 -70q44 0 72 19.5t28 54.5q0 22 -10 39.5t-31.5 32t-38.5 22.5t-47 20q-36 15 -59 27t-47 30t-35.5 42.5t-11.5 55.5q0 58 46 94t119 36q101 0 166 -78l-46 -39q-55 55 -122 55q-44 0 -70.5 -18t-26.5 -49q0 -15 7 -28t16 -21.5
t28 -19t30 -15l36 -14.5q30 -12 47 -19.5t42.5 -23t39 -31t24 -40t10.5 -54.5q0 -64 -46.5 -102t-125.5 -38z" />
    <glyph glyph-name="t" unicode="t" horiz-adv-x="369" 
d="M218 -12q-101 0 -101 117v343h-87v63h87v176l70 35v-211h130v-63h-130v-313q0 -39 11 -60t44 -21t77 30l-8 -73q-43 -23 -93 -23z" />
    <glyph glyph-name="u" unicode="u" 
d="M400 0v49q-26 -34 -55.5 -47.5t-71.5 -13.5q-99 0 -143.5 56t-44.5 182v285h70v-312q0 -76 32 -112t86 -36q127 0 127 146v314h70v-511h-70z" />
    <glyph glyph-name="v" unicode="v" horiz-adv-x="503" 
d="M227 0l-187 511h72l124 -348l5.5 -16.5l6.5 -19.5l6 -18l6 18l6.5 19.5l5.5 16.5l121 348h70l-187 -511h-49z" />
    <glyph glyph-name="w" unicode="w" horiz-adv-x="704" 
d="M166 0l-126 511h70l84 -368l12 -56l8 30.5t7 25.5l107 368h48l107 -368l9 -32t8 -29q2 11 6.5 31.5l6.5 29.5l81 368h70l-126 -511h-63l-102 309l-9 28l-13 41q-5 -15 -21 -68l-100 -310h-64z" />
    <glyph glyph-name="x" unicode="x" horiz-adv-x="502" 
d="M40 0l173 265l-161 246h76l90 -138q15 -22 33 -52q18 30 33 52l90 138h76l-161 -246l173 -265h-76l-103 158l-32 51l-32 -51l-103 -158h-76z" />
    <glyph glyph-name="y" unicode="y" horiz-adv-x="521" 
d="M151 -194l76 210l-187 495h71l129 -363q3 -10 9 -28l8 -24l18 52l131 363h75l-261 -705h-69z" />
    <glyph glyph-name="z" unicode="z" horiz-adv-x="499" 
d="M70 0v43l261 405h-241v63h334v-42l-263 -406h262v-63h-353z" />
    <glyph glyph-name="braceleft" unicode="{" horiz-adv-x="378" 
d="M333 -130q-87 2 -137.5 61t-50.5 170v51q0 49 -21 80t-55 31h-4v57h4q34 0 55 30.5t21 80.5v50q0 111 50.5 170t137.5 61v-59q-116 -4 -116 -153v-56q0 -83 -26.5 -114.5t-82.5 -38.5q57 -4 83 -35t26 -118v-56q0 -149 116 -153v-59z" />
    <glyph glyph-name="bar" unicode="|" horiz-adv-x="270" 
d="M100 -378v1440h70v-1440h-70z" />
    <glyph glyph-name="braceright" unicode="}" horiz-adv-x="378" 
d="M45 -130v59q116 4 116 153v56q0 87 26 118t83 35q-56 7 -82.5 38.5t-26.5 114.5v56q0 149 -116 153v59q87 -2 137.5 -61t50.5 -170v-50q0 -50 21 -80.5t55 -30.5h4v-57h-4q-34 0 -55 -31t-21 -80v-51q0 -111 -50.5 -170t-137.5 -61z" />
    <glyph glyph-name="asciitilde" unicode="~" horiz-adv-x="660" 
d="M439 277q-43 0 -117.5 31.5t-106.5 31.5q-33 0 -54.5 -17.5t-23.5 -45.5h-40q0 56 30 93t94 37q45 0 120 -31.5t104 -31.5q33 0 54.5 17.5t23.5 45.5h40q0 -56 -30.5 -93t-93.5 -37z" />
    <glyph glyph-name="uni00A0" unicode="&#xa0;" horiz-adv-x="230" 
 />
    <glyph glyph-name="exclamdown" unicode="&#xa1;" horiz-adv-x="265" 
d="M135 397q-26 0 -44.5 19t-18.5 44t18.5 44t44.5 19t44.5 -19t18.5 -44t-18.5 -44t-44.5 -19zM169 -200h-72v214l31 302h11l30 -302v-214z" />
    <glyph glyph-name="cent" unicode="&#xa2;" horiz-adv-x="511" 
d="M230 -12v97q-77 16 -121 85t-44 180q0 110 43 177.5t122 84.5v100h69v-97q109 -9 144 -107l-68 -26q-25 66 -95 66q-71 0 -106.5 -51.5t-35.5 -146.5q0 -96 35 -147.5t102 -51.5q38 0 66 20.5t38 56.5l67 -24q-33 -112 -147 -121v-95h-69z" />
    <glyph glyph-name="sterling" unicode="&#xa3;" horiz-adv-x="604" 
d="M95 0v79q49 22 70.5 83.5t21.5 123.5v14h-97v57h81q-3 5 -13 24t-14 28t-10.5 27t-9 38t-2.5 45q0 81 58 137t167 56q115 0 198 -65l-27 -64q-75 62 -171 62q-73 0 -111 -38t-38 -89q0 -33 11 -64t24.5 -57t16.5 -40h164v-57h-151v-11q0 -128 -106 -224h402v-65h-464z
" />
    <glyph glyph-name="currency" unicode="&#xa4;" horiz-adv-x="635" 
d="M317 86q-90 0 -148 46l-65 -66l-53 54l68 68q-37 56 -37 145q0 86 36 146l-67 67l50 52l66 -65q65 48 150 48q86 0 149 -47l65 64l53 -55l-65 -65q35 -61 35 -145q0 -88 -39 -148l69 -68l-50 -51l-67 67q-59 -47 -150 -47zM317 153q74 0 120 50.5t46 129.5
q0 78 -46 129.5t-120 51.5q-73 0 -118.5 -51.5t-45.5 -129.5q0 -79 45.5 -129.5t118.5 -50.5z" />
    <glyph glyph-name="yen" unicode="&#xa5;" horiz-adv-x="558" 
d="M311 309h155v-60h-152v-66h152v-60h-152v-123h-70v123h-164v60h164v66h-164v60h166l-216 391h78l170 -324l178 324h72z" />
    <glyph glyph-name="brokenbar" unicode="&#xa6;" horiz-adv-x="270" 
d="M100 366v459h70v-459h-70zM100 -225v459h70v-459h-70z" />
    <glyph glyph-name="section" unicode="&#xa7;" horiz-adv-x="543" 
d="M275 -120q-71 0 -127.5 25.5t-82.5 60.5l53 47q54 -65 154 -65q133 0 133 90q0 23 -11.5 42t-35.5 33.5t-43 23.5t-51.5 21.5t-44.5 17.5q-38 16 -56 25.5t-42 27t-34 40t-10 52.5q0 39 21 67.5t54 40.5q-75 42 -75 139q0 67 55 105.5t136 38.5q125 0 190 -79l-54 -43
q-50 52 -136 52q-116 0 -116 -79q0 -17 9.5 -32t21.5 -25t38.5 -23t43.5 -19.5l55 -20.5q39 -15 60.5 -25.5t47.5 -29.5t38 -45.5t12 -63.5q0 -77 -63 -106q63 -46 63 -132q0 -77 -54 -119t-149 -42zM350 204q55 23 55 72q0 22 -11.5 39t-40.5 32.5t-49.5 23.5t-67.5 24
q-39 -6 -61.5 -25.5t-22.5 -48.5q0 -18 10.5 -32.5t34 -26.5t42.5 -19.5t56 -19.5t55 -19z" />
    <glyph glyph-name="dieresis" unicode="&#xa8;" horiz-adv-x="335" 
d="M86 606q-20 0 -33.5 14t-13.5 33q0 20 13.5 33.5t33.5 13.5t33.5 -13.5t13.5 -33.5t-13.5 -33.5t-33.5 -13.5zM252 606q-20 0 -33.5 14t-13.5 33q0 20 13.5 33.5t33.5 13.5t33.5 -13.5t13.5 -33.5t-13.5 -33.5t-33.5 -13.5z" />
    <glyph glyph-name="copyright" unicode="&#xa9;" horiz-adv-x="874" 
d="M437 -12q-154 0 -258 104t-104 258t104 258t258 104t258 -104t104 -258t-104 -258t-258 -104zM437 42q131 0 217 88t86 220t-86 219.5t-217 87.5t-218 -88t-87 -219q0 -132 87 -220t218 -88zM443 138q-86 0 -134 56.5t-48 160.5q0 101 50 159.5t140 58.5q108 0 148 -110
l-63 -26q-24 71 -94 71q-63 0 -88 -38.5t-25 -114.5q0 -80 25.5 -117t90.5 -37q84 0 100 81l57 -23q-16 -58 -58.5 -89.5t-100.5 -31.5z" />
    <glyph glyph-name="ordfeminine" unicode="&#xaa;" horiz-adv-x="462" 
d="M324 283v30q-22 -16 -56 -28t-64 -12q-70 0 -112 37t-42 106q0 66 50.5 103t115.5 37q55 0 108 -23v14q0 58 -23 80.5t-78 22.5q-70 0 -116 -36l-18 59q51 39 144 39q32 0 56 -5t49.5 -19.5t39.5 -47.5t14 -83v-274h-68zM212 332q28 0 60 14t52 32v92q-49 26 -101 26
q-42 0 -71.5 -20t-29.5 -60q0 -39 24.5 -61.5t65.5 -22.5z" />
    <glyph glyph-name="guillemotleft" unicode="&#xab;" horiz-adv-x="506" 
d="M197 0l-152 256l152 255h78l-152 -255l152 -256h-78zM396 0l-152 256l152 255h80l-152 -255l152 -256h-80z" />
    <glyph glyph-name="logicalnot" unicode="&#xac;" horiz-adv-x="660" 
d="M493 176v220h-398v67h470v-287h-72z" />
    <glyph glyph-name="uni00AD" unicode="&#xad;" horiz-adv-x="403" 
d="M90 264v68h223v-68h-223z" />
    <glyph glyph-name="registered" unicode="&#xae;" horiz-adv-x="874" 
d="M437 -12q-154 0 -258 104t-104 258t104 258t258 104t258 -104t104 -258t-104 -258t-258 -104zM437 42q131 0 217 88t86 220t-86 219.5t-217 87.5t-218 -88t-87 -219q0 -132 87 -220t218 -88zM285 137v423h207q57 0 86.5 -38t29.5 -84t-28.5 -83.5t-76.5 -44.5l102 -173
h-72l-95 172h-88v-172h-65zM350 365h144q23 0 37 20.5t14 50.5q0 24 -13.5 44t-37.5 20h-144v-135z" />
    <glyph glyph-name="macron" unicode="&#xaf;" horiz-adv-x="335" 
d="M2 609v61h330v-61h-330z" />
    <glyph glyph-name="degree" unicode="&#xb0;" horiz-adv-x="418" 
d="M210 450q-72 0 -121 48t-49 119t49 118.5t121 47.5q71 0 119.5 -47.5t48.5 -118.5t-48.5 -119t-119.5 -48zM210 519q40 0 66.5 28t26.5 70q0 44 -26 71.5t-67 27.5q-40 0 -68 -28t-28 -71q0 -42 28 -70t68 -28z" />
    <glyph glyph-name="plusminus" unicode="&#xb1;" horiz-adv-x="660" 
d="M365 373v-168h-72v168h-198v67h198v168h72v-168h200v-67h-200zM95 0v67h470v-67h-470z" />
    <glyph glyph-name="uni00B2" unicode="&#xb2;" horiz-adv-x="370" 
d="M40 444q0 31 8 57.5t17.5 43t33.5 38t38 31.5t50 34q35 23 51.5 46.5t16.5 59.5q0 25 -20 46.5t-59 21.5q-69 0 -84 -70l-51 21q11 45 48 72.5t95 27.5t95.5 -33.5t37.5 -90.5q0 -52 -27 -86.5t-90 -72.5q-41 -25 -63 -46t-32 -47h211v-53h-276z" />
    <glyph glyph-name="uni00B3" unicode="&#xb3;" horiz-adv-x="367" 
d="M186 434q-110 0 -152 103l55 23q32 -76 97 -76q37 0 58 20t21 53q0 30 -19.5 53.5t-50.5 23.5h-34v50h22q33 0 49 20t16 50q0 28 -17.5 48.5t-50.5 20.5q-27 0 -49.5 -18t-35.5 -46l-53 18q17 42 55.5 69t86.5 27q57 0 92.5 -30.5t35.5 -82.5q0 -28 -15.5 -54t-41.5 -38
q34 -11 54 -38t20 -65q0 -61 -39.5 -96t-103.5 -35z" />
    <glyph glyph-name="acute" unicode="&#xb4;" horiz-adv-x="335" 
d="M68 576l142 156h107l-178 -156h-71z" />
    <glyph glyph-name="uni00B5" unicode="&#xb5;" horiz-adv-x="565" 
d="M405 0v51q-62 -63 -140 -63q-37 0 -61 13t-44 48v-215l-70 -34v711h70v-312q0 -88 28.5 -118t90.5 -30q126 0 126 146v314h70v-511h-70z" />
    <glyph glyph-name="paragraph" unicode="&#xb6;" horiz-adv-x="633" 
d="M294 -200v478q-70 0 -122.5 19t-81 51.5t-42 68t-13.5 74.5q0 41 12 77t37.5 66.5t71 48t107.5 17.5h275v-802l-71 -32v764h-102v-798z" />
    <glyph glyph-name="periodcentered" unicode="&#xb7;" horiz-adv-x="226" 
d="M113 286q-26 0 -44.5 19t-18.5 44t18.5 44t44.5 19t44.5 -19t18.5 -44t-18.5 -44t-44.5 -19z" />
    <glyph glyph-name="cedilla" unicode="&#xb8;" horiz-adv-x="335" 
d="M173 -234q-55 0 -88 28l46 30q8 -10 36 -10q21 0 37 15t16 36q0 19 -19 33.5t-42 14.5q-25 0 -36 -5l-12 15l68 87h41l-39 -65q54 0 79.5 -24t25.5 -57q0 -43 -32 -70.5t-81 -27.5z" />
    <glyph glyph-name="uni00B9" unicode="&#xb9;" horiz-adv-x="200" 
d="M72 444v324h-47v43q49 0 66 55h41v-422h-60z" />
    <glyph glyph-name="ordmasculine" unicode="&#xba;" horiz-adv-x="469" 
d="M234 272q-87 0 -138 58t-51 162q0 103 51 161.5t138 58.5q88 0 139 -58.5t51 -161.5q0 -104 -51 -162t-139 -58zM234 337q120 0 120 155t-120 155q-55 0 -87 -40.5t-32 -114.5t32 -114.5t87 -40.5z" />
    <glyph glyph-name="guillemotright" unicode="&#xbb;" horiz-adv-x="506" 
d="M30 0l152 256l-152 255h78l152 -255l-152 -256h-78zM229 0l152 256l-152 255h80l152 -255l-152 -256h-80z" />
    <glyph glyph-name="onequarter" unicode="&#xbc;" horiz-adv-x="674" 
d="M14 -12l478 724h69l-478 -724h-69zM82 283v324h-47v43q49 0 66 55h42v-422h-61zM522 0v108h-210v30l224 285h47v-260h52v-55h-52v-108h-61zM522 163v172l-129 -172h129z" />
    <glyph glyph-name="onehalf" unicode="&#xbd;" horiz-adv-x="723" 
d="M14 -12l478 724h69l-478 -724h-69zM82 283v324h-47v43q49 0 66 55h42v-422h-61zM393 0q0 31 8 57.5t17.5 43t33.5 38t38 31.5t50 34q35 23 51.5 46.5t16.5 59.5q0 25 -20 47t-59 22q-69 0 -84 -71l-51 21q11 45 48 72.5t95 27.5t95.5 -33.5t37.5 -90.5q0 -52 -27 -86.5
t-90 -72.5q-42 -26 -63.5 -45.5t-31.5 -45.5h211v-55h-276z" />
    <glyph glyph-name="threequarters" unicode="&#xbe;" horiz-adv-x="818" 
d="M186 271q-110 0 -152 103l55 23q32 -76 97 -76q37 0 58 20.5t21 53.5q0 31 -19.5 54.5t-50.5 23.5h-34v50h22q33 0 49 20t16 50q0 28 -17.5 48.5t-50.5 20.5q-27 0 -49.5 -18t-35.5 -46l-53 18q17 42 55.5 69t86.5 27q57 0 92.5 -30.5t35.5 -82.5q0 -28 -15.5 -54
t-41.5 -38q33 -11 53.5 -38t20.5 -66q0 -61 -39.5 -96.5t-103.5 -35.5zM157 -12l478 724h69l-478 -724h-69zM665 0v108h-210v30l224 285h47v-260h52v-55h-52v-108h-61zM665 163v172l-129 -172h129z" />
    <glyph glyph-name="questiondown" unicode="&#xbf;" horiz-adv-x="526" 
d="M276 398q-27 0 -44.5 18t-17.5 43t18 44.5t44 19.5t46 -20t20 -44q0 -25 -20 -43t-46 -18zM259 -200q-99 0 -154 53t-55 138q0 45 19.5 79.5t47 58.5l55 48.5t47 60.5t19.5 82v22h71v-22q0 -54 -19.5 -94t-47 -64t-55 -45.5t-47 -53t-19.5 -72.5q0 -57 36.5 -92.5
t101.5 -35.5q75 0 117.5 42.5t42.5 116.5h72q0 -100 -64.5 -161t-167.5 -61z" />
    <glyph glyph-name="Agrave" unicode="&#xc0;" horiz-adv-x="662" 
d="M361 765l-178 156h107l142 -156h-71zM531 0l-64 181h-273l-61 -181h-73l243 700h54l245 -700h-71zM446 243l-96 280q-16 45 -20 63l-8 -26q-7 -27 -11 -37l-96 -280h231z" />
    <glyph glyph-name="Aacute" unicode="&#xc1;" horiz-adv-x="662" 
d="M250 765l142 156h107l-178 -156h-71zM531 0l-64 181h-273l-61 -181h-73l243 700h54l245 -700h-71zM446 243l-96 280q-16 45 -20 63l-8 -26q-7 -27 -11 -37l-96 -280h231z" />
    <glyph glyph-name="Acircumflex" unicode="&#xc2;" horiz-adv-x="662" 
d="M447 765l-116 101l-116 -101h-65l151 156h60l151 -156h-65zM531 0l-64 181h-273l-61 -181h-73l243 700h54l245 -700h-71zM446 243l-96 280q-16 45 -20 63l-8 -26q-7 -27 -11 -37l-96 -280h231z" />
    <glyph glyph-name="Atilde" unicode="&#xc3;" horiz-adv-x="662" 
d="M409 791q-38 0 -90.5 25t-74.5 25q-19 0 -32.5 -12t-14.5 -34h-39q0 110 93 110q38 0 90.5 -25.5t74.5 -25.5q19 0 32.5 12.5t14.5 34.5h38q0 -110 -92 -110zM531 0l-64 181h-273l-61 -181h-73l243 700h54l245 -700h-71zM446 243l-96 280q-16 45 -20 63l-8 -26
q-7 -27 -11 -37l-96 -280h231z" />
    <glyph glyph-name="Adieresis" unicode="&#xc4;" horiz-adv-x="662" 
d="M248 795q-20 0 -33.5 13.5t-13.5 33.5t13.5 33.5t33.5 13.5t33.5 -13.5t13.5 -33.5t-13.5 -33.5t-33.5 -13.5zM414 795q-20 0 -33.5 13.5t-13.5 33.5t13.5 33.5t33.5 13.5t33.5 -13.5t13.5 -33.5t-13.5 -33.5t-33.5 -13.5zM531 0l-64 181h-273l-61 -181h-73l243 700h54
l245 -700h-71zM446 243l-96 280q-16 45 -20 63l-8 -26q-7 -27 -11 -37l-96 -280h231z" />
    <glyph glyph-name="Aring" unicode="&#xc5;" horiz-adv-x="662" 
d="M60 0l224 645q-29 14 -47 41.5t-18 61.5q0 46 33.5 78.5t80.5 32.5t81 -32.5t34 -78.5q0 -34 -20 -62.5t-51 -42.5l225 -643h-71l-64 181h-273l-61 -181h-73zM333 687q24 0 40 17.5t16 43.5q0 25 -16 42t-40 17q-23 0 -39 -17t-16 -42t16 -43t39 -18zM215 243h231
l-96 280q-16 45 -20 63l-8 -26q-7 -27 -11 -37z" />
    <glyph glyph-name="AE" unicode="&#xc6;" horiz-adv-x="859" 
d="M-16 0l407 700h376v-67h-272v-238h185v-66h-185v-262h294v-67h-364v181h-259l-103 -181h-79zM201 243h224v399q-6 -12 -31 -57z" />
    <glyph glyph-name="Ccedilla" unicode="&#xc7;" horiz-adv-x="644" 
d="M344 -234q-55 0 -88 28l46 30q8 -10 36 -10q21 0 37 15t16 36q0 19 -19 33.5t-42 14.5q-25 0 -36 -5l-12 15l52 66q-68 5 -120.5 37t-83 83.5t-45.5 112t-15 128.5q0 100 29.5 179.5t96.5 131t164 51.5q86 0 134 -30.5t80 -82.5l-62 -36q-28 41 -62.5 64t-89.5 23
q-57 0 -101 -27t-68 -71.5t-36 -95.5t-12 -106q0 -81 21.5 -146.5t72 -109t123.5 -43.5q108 0 162 89l62 -24q-26 -52 -77.5 -87.5t-128.5 -39.5l-26 -44q54 0 79.5 -24t25.5 -57q0 -43 -32 -70.5t-81 -27.5z" />
    <glyph glyph-name="Egrave" unicode="&#xc8;" horiz-adv-x="596" 
d="M297 765l-178 156h107l142 -156h-71zM105 0v700h399v-67h-329v-238h222v-66h-222v-262h351v-67h-421z" />
    <glyph glyph-name="Eacute" unicode="&#xc9;" horiz-adv-x="596" 
d="M202 765l142 156h107l-178 -156h-71zM105 0v700h399v-67h-329v-238h222v-66h-222v-262h351v-67h-421z" />
    <glyph glyph-name="Ecircumflex" unicode="&#xca;" horiz-adv-x="596" 
d="M421 765l-116 101l-116 -101h-65l151 156h60l151 -156h-65zM105 0v700h399v-67h-329v-238h222v-66h-222v-262h351v-67h-421z" />
    <glyph glyph-name="Edieresis" unicode="&#xcb;" horiz-adv-x="596" 
d="M220 795q-20 0 -33.5 13.5t-13.5 33.5t13.5 33.5t33.5 13.5t33.5 -13.5t13.5 -33.5t-13.5 -33.5t-33.5 -13.5zM386 795q-20 0 -33.5 13.5t-13.5 33.5t13.5 33.5t33.5 13.5t33.5 -13.5t13.5 -33.5t-13.5 -33.5t-33.5 -13.5zM105 0v700h399v-67h-329v-238h222v-66h-222
v-262h351v-67h-421z" />
    <glyph glyph-name="Igrave" unicode="&#xcc;" horiz-adv-x="280" 
d="M155 765l-178 156h107l142 -156h-71zM105 0v700h70v-700h-70z" />
    <glyph glyph-name="Iacute" unicode="&#xcd;" horiz-adv-x="280" 
d="M39 765l142 156h107l-178 -156h-71zM105 0v700h70v-700h-70z" />
    <glyph glyph-name="Icircumflex" unicode="&#xce;" horiz-adv-x="280" 
d="M256 765l-116 101l-116 -101h-65l151 156h60l151 -156h-65zM105 0v700h70v-700h-70z" />
    <glyph glyph-name="Idieresis" unicode="&#xcf;" horiz-adv-x="280" 
d="M57 795q-19 0 -33 13.5t-14 33.5t13.5 33.5t33.5 13.5t33.5 -13.5t13.5 -33.5t-13.5 -33.5t-33.5 -13.5zM223 795q-19 0 -33 13.5t-14 33.5t13.5 33.5t33.5 13.5t33.5 -13.5t13.5 -33.5t-13.5 -33.5t-33.5 -13.5zM105 0v700h70v-700h-70z" />
    <glyph glyph-name="Eth" unicode="&#xd0;" horiz-adv-x="678" 
d="M105 318h-70v62h70v320h186q85 0 149 -30t99 -81t52 -111t17 -128q0 -51 -9 -98.5t-32 -94t-58 -81t-92 -55.5t-130 -21h-182v318zM292 63q67 0 116.5 25t76 68t38.5 91t12 103q0 120 -58 203.5t-174 83.5h-128v-257h155v-62h-155v-255h117z" />
    <glyph glyph-name="Ntilde" unicode="&#xd1;" horiz-adv-x="705" 
d="M431 791q-38 0 -90.5 25t-74.5 25q-19 0 -32.5 -12t-14.5 -34h-39q0 110 93 110q38 0 90.5 -25.5t74.5 -25.5q19 0 32.5 12.5t14.5 34.5h38q0 -110 -92 -110zM600 0h-71l-326 524l-28 47v-47v-524h-70v700h71l325 -530l29 -49v49v530h70v-700z" />
    <glyph glyph-name="Ograve" unicode="&#xd2;" horiz-adv-x="720" 
d="M388 766l-178 156h107l142 -156h-71zM360 -12q-78 0 -136 31.5t-90.5 85t-48 115t-15.5 130.5t15.5 130.5t48 115t90.5 85t136 31.5t136 -31.5t90.5 -85t48 -115t15.5 -130.5t-15.5 -130.5t-48 -115t-90.5 -85t-136 -31.5zM360 51q58 0 101.5 26.5t68 71t36 95.5
t11.5 106q0 81 -19.5 145.5t-70 109t-127.5 44.5q-58 0 -101.5 -26.5t-68 -71t-36 -95.5t-11.5 -106q0 -81 19.5 -145.5t70 -109t127.5 -44.5z" />
    <glyph glyph-name="Oacute" unicode="&#xd3;" horiz-adv-x="720" 
d="M259 765l142 156h107l-178 -156h-71zM360 -12q-78 0 -136 31.5t-90.5 85t-48 115t-15.5 130.5t15.5 130.5t48 115t90.5 85t136 31.5t136 -31.5t90.5 -85t48 -115t15.5 -130.5t-15.5 -130.5t-48 -115t-90.5 -85t-136 -31.5zM360 51q58 0 101.5 26.5t68 71t36 95.5
t11.5 106q0 81 -19.5 145.5t-70 109t-127.5 44.5q-58 0 -101.5 -26.5t-68 -71t-36 -95.5t-11.5 -106q0 -81 19.5 -145.5t70 -109t127.5 -44.5z" />
    <glyph glyph-name="Ocircumflex" unicode="&#xd4;" horiz-adv-x="720" 
d="M476 765l-116 101l-116 -101h-65l151 156h60l151 -156h-65zM360 -12q-78 0 -136 31.5t-90.5 85t-48 115t-15.5 130.5t15.5 130.5t48 115t90.5 85t136 31.5t136 -31.5t90.5 -85t48 -115t15.5 -130.5t-15.5 -130.5t-48 -115t-90.5 -85t-136 -31.5zM360 51q58 0 101.5 26.5
t68 71t36 95.5t11.5 106q0 81 -19.5 145.5t-70 109t-127.5 44.5q-58 0 -101.5 -26.5t-68 -71t-36 -95.5t-11.5 -106q0 -81 19.5 -145.5t70 -109t127.5 -44.5z" />
    <glyph glyph-name="Otilde" unicode="&#xd5;" horiz-adv-x="720" 
d="M438 791q-38 0 -90.5 25t-74.5 25q-19 0 -32.5 -12t-14.5 -34h-39q0 110 93 110q38 0 90.5 -25.5t74.5 -25.5q19 0 32.5 12.5t14.5 34.5h38q0 -110 -92 -110zM360 -12q-78 0 -136 31.5t-90.5 85t-48 115t-15.5 130.5t15.5 130.5t48 115t90.5 85t136 31.5t136 -31.5
t90.5 -85t48 -115t15.5 -130.5t-15.5 -130.5t-48 -115t-90.5 -85t-136 -31.5zM360 51q58 0 101.5 26.5t68 71t36 95.5t11.5 106q0 81 -19.5 145.5t-70 109t-127.5 44.5q-58 0 -101.5 -26.5t-68 -71t-36 -95.5t-11.5 -106q0 -81 19.5 -145.5t70 -109t127.5 -44.5z" />
    <glyph glyph-name="Odieresis" unicode="&#xd6;" horiz-adv-x="720" 
d="M277 795q-19 0 -33 13.5t-14 33.5t13.5 33.5t33.5 13.5t33.5 -13.5t13.5 -33.5t-13.5 -33.5t-33.5 -13.5zM443 795q-19 0 -33 13.5t-14 33.5t13.5 33.5t33.5 13.5t33.5 -13.5t13.5 -33.5t-13.5 -33.5t-33.5 -13.5zM360 -12q-78 0 -136 31.5t-90.5 85t-48 115t-15.5 130.5
t15.5 130.5t48 115t90.5 85t136 31.5t136 -31.5t90.5 -85t48 -115t15.5 -130.5t-15.5 -130.5t-48 -115t-90.5 -85t-136 -31.5zM360 51q58 0 101.5 26.5t68 71t36 95.5t11.5 106q0 81 -19.5 145.5t-70 109t-127.5 44.5q-58 0 -101.5 -26.5t-68 -71t-36 -95.5t-11.5 -106
q0 -81 19.5 -145.5t70 -109t127.5 -44.5z" />
    <glyph glyph-name="multiply" unicode="&#xd7;" horiz-adv-x="660" 
d="M331 293l-171 -172l-52 50l174 173l-173 170l49 48l171 -171l171 172l50 -51l-172 -170l171 -173l-47 -47z" />
    <glyph glyph-name="Oslash" unicode="&#xd8;" horiz-adv-x="720" 
d="M82 -12l65 98q-77 98 -77 264q0 69 15.5 130.5t48 115t90.5 85t136 31.5q99 0 168 -54l36 54h74l-65 -98q77 -98 77 -264q0 -69 -15.5 -130.5t-48 -115t-90.5 -85t-136 -31.5q-100 0 -170 54l-36 -54h-72zM188 148l303 454q-53 47 -131 47q-58 0 -101.5 -26.5t-68 -71
t-36 -95.5t-11.5 -106q0 -125 45 -202zM360 51q58 0 101.5 26.5t68 71t36 95.5t11.5 106q0 125 -46 202l-303 -454q52 -47 132 -47z" />
    <glyph glyph-name="Ugrave" unicode="&#xd9;" horiz-adv-x="680" 
d="M355 765l-178 156h107l142 -156h-71zM340 -12q-240 0 -240 272v440h70v-440q0 -209 170 -209t170 209v440h70v-440q0 -272 -240 -272z" />
    <glyph glyph-name="Uacute" unicode="&#xda;" horiz-adv-x="680" 
d="M249 765l142 156h107l-178 -156h-71zM340 -12q-240 0 -240 272v440h70v-440q0 -209 170 -209t170 209v440h70v-440q0 -272 -240 -272z" />
    <glyph glyph-name="Ucircumflex" unicode="&#xdb;" horiz-adv-x="680" 
d="M456 765l-116 101l-116 -101h-65l151 156h60l151 -156h-65zM340 -12q-240 0 -240 272v440h70v-440q0 -209 170 -209t170 209v440h70v-440q0 -272 -240 -272z" />
    <glyph glyph-name="Udieresis" unicode="&#xdc;" horiz-adv-x="680" 
d="M257 795q-19 0 -33 13.5t-14 33.5t13.5 33.5t33.5 13.5t33.5 -13.5t13.5 -33.5t-13.5 -33.5t-33.5 -13.5zM423 795q-19 0 -33 13.5t-14 33.5t13.5 33.5t33.5 13.5t33.5 -13.5t13.5 -33.5t-13.5 -33.5t-33.5 -13.5zM340 -12q-240 0 -240 272v440h70v-440q0 -209 170 -209
t170 209v440h70v-440q0 -272 -240 -272z" />
    <glyph glyph-name="Yacute" unicode="&#xdd;" horiz-adv-x="616" 
d="M216 765l142 156h107l-178 -156h-71zM274 0v275l-229 425h77l186 -360l191 360h72l-227 -422v-278h-70z" />
    <glyph glyph-name="Thorn" unicode="&#xde;" horiz-adv-x="622" 
d="M105 0v700h70v-139h186q116 0 168.5 -59t52.5 -147q0 -37 -12 -71.5t-37 -65.5t-69.5 -49.5t-102.5 -18.5h-186v-150h-70zM367 213q76 0 112 42t36 100q0 55 -34.5 99t-113.5 44h-192v-285h192z" />
    <glyph glyph-name="germandbls" unicode="&#xdf;" horiz-adv-x="566" 
d="M80 -203v681q0 119 58.5 176.5t138.5 57.5q88 0 143 -50.5t55 -132.5q0 -50 -24 -89.5t-71 -54.5q63 -22 97 -68.5t34 -107.5q0 -99 -59 -160t-151 -61q-45 0 -79 16l33 54q19 -7 48 -7q53 0 94 39.5t41 114.5q0 61 -39.5 102t-123.5 41h-4v63h4q127 0 127 115
q0 58 -31.5 90.5t-92.5 32.5q-56 0 -92 -41.5t-36 -126.5v-648z" />
    <glyph glyph-name="agrave" unicode="&#xe0;" horiz-adv-x="519" 
d="M289 576l-178 156h107l142 -156h-71zM384 0v50q-69 -62 -150 -62q-80 0 -127 44.5t-47 128.5q0 83 53.5 126t132.5 43q71 0 138 -36v43q0 125 -112 125q-72 0 -152 -55l-20 60q88 56 179 56q31 0 58 -7.5t53.5 -26t42.5 -55t16 -88.5v-346h-65zM241 49q79 0 143 79v99
q-63 42 -131 42q-55 0 -91.5 -27.5t-36.5 -80.5q0 -51 30.5 -81.5t85.5 -30.5z" />
    <glyph glyph-name="aacute" unicode="&#xe1;" horiz-adv-x="519" 
d="M179 576l142 156h107l-178 -156h-71zM384 0v50q-69 -62 -150 -62q-80 0 -127 44.5t-47 128.5q0 83 53.5 126t132.5 43q71 0 138 -36v43q0 125 -112 125q-72 0 -152 -55l-20 60q88 56 179 56q31 0 58 -7.5t53.5 -26t42.5 -55t16 -88.5v-346h-65zM241 49q79 0 143 79v99
q-63 42 -131 42q-55 0 -91.5 -27.5t-36.5 -80.5q0 -51 30.5 -81.5t85.5 -30.5z" />
    <glyph glyph-name="acircumflex" unicode="&#xe2;" horiz-adv-x="519" 
d="M396 576l-116 101l-116 -101h-65l151 156h60l151 -156h-65zM384 0v50q-69 -62 -150 -62q-80 0 -127 44.5t-47 128.5q0 83 53.5 126t132.5 43q71 0 138 -36v43q0 125 -112 125q-72 0 -152 -55l-20 60q88 56 179 56q31 0 58 -7.5t53.5 -26t42.5 -55t16 -88.5v-346h-65z
M241 49q79 0 143 79v99q-63 42 -131 42q-55 0 -91.5 -27.5t-36.5 -80.5q0 -51 30.5 -81.5t85.5 -30.5z" />
    <glyph glyph-name="atilde" unicode="&#xe3;" horiz-adv-x="519" 
d="M358 602q-38 0 -90.5 25t-74.5 25q-19 0 -32.5 -12t-14.5 -34h-39q0 110 93 110q38 0 90.5 -25.5t74.5 -25.5q19 0 32.5 12.5t14.5 34.5h38q0 -110 -92 -110zM384 0v50q-69 -62 -150 -62q-80 0 -127 44.5t-47 128.5q0 83 53.5 126t132.5 43q71 0 138 -36v43
q0 125 -112 125q-72 0 -152 -55l-20 60q88 56 179 56q31 0 58 -7.5t53.5 -26t42.5 -55t16 -88.5v-346h-65zM241 49q79 0 143 79v99q-63 42 -131 42q-55 0 -91.5 -27.5t-36.5 -80.5q0 -51 30.5 -81.5t85.5 -30.5z" />
    <glyph glyph-name="adieresis" unicode="&#xe4;" horiz-adv-x="519" 
d="M197 606q-19 0 -33 14t-14 33q0 20 13.5 33.5t33.5 13.5t33.5 -13.5t13.5 -33.5t-13.5 -33.5t-33.5 -13.5zM363 606q-19 0 -33 14t-14 33q0 20 13.5 33.5t33.5 13.5t33.5 -13.5t13.5 -33.5t-13.5 -33.5t-33.5 -13.5zM384 0v50q-69 -62 -150 -62q-80 0 -127 44.5
t-47 128.5q0 83 53.5 126t132.5 43q71 0 138 -36v43q0 125 -112 125q-72 0 -152 -55l-20 60q88 56 179 56q31 0 58 -7.5t53.5 -26t42.5 -55t16 -88.5v-346h-65zM241 49q79 0 143 79v99q-63 42 -131 42q-55 0 -91.5 -27.5t-36.5 -80.5q0 -51 30.5 -81.5t85.5 -30.5z" />
    <glyph glyph-name="aring" unicode="&#xe5;" horiz-adv-x="519" 
d="M280 575q-47 0 -81 34t-34 80t34 78.5t81 32.5t81 -32.5t34 -78.5t-34 -80t-81 -34zM280 627q24 0 40 17.5t16 44.5t-16 43t-40 16q-23 0 -39.5 -16.5t-16.5 -42.5q0 -27 16.5 -44.5t39.5 -17.5zM384 0v50q-69 -62 -150 -62q-80 0 -127 44.5t-47 128.5q0 83 53.5 126
t132.5 43q71 0 138 -36v43q0 125 -112 125q-72 0 -152 -55l-20 60q88 56 179 56q31 0 58 -7.5t53.5 -26t42.5 -55t16 -88.5v-346h-65zM241 49q79 0 143 79v99q-63 42 -131 42q-55 0 -91.5 -27.5t-36.5 -80.5q0 -51 30.5 -81.5t85.5 -30.5z" />
    <glyph glyph-name="ae" unicode="&#xe6;" horiz-adv-x="856" 
d="M234 -12q-80 0 -127 44.5t-47 128.5q0 83 53 126t133 43q71 0 138 -36v43q0 125 -112 125q-72 0 -152 -55l-20 60q88 56 179 56q115 0 152 -86q62 86 172 86q92 0 147.5 -64.5t55.5 -182.5q0 -27 -2 -49h-348q10 -83 49.5 -128.5t100.5 -45.5q62 0 116 40l38 -47
q-72 -58 -157 -58q-61 0 -108 31t-73 78q-34 -54 -86.5 -81.5t-101.5 -27.5zM454 290h281q0 49 -12.5 84.5t-33.5 53t-42 25t-43 7.5q-64 0 -105 -43t-45 -127zM241 49q47 0 90 29.5t68 71.5q-12 34 -15 77q-66 42 -131 42q-55 0 -91.5 -27.5t-36.5 -80.5q0 -51 30.5 -81.5
t85.5 -30.5z" />
    <glyph glyph-name="ccedilla" unicode="&#xe7;" horiz-adv-x="481" 
d="M254 -234q-55 0 -88 28l46 30q8 -10 36 -10q21 0 37.5 15t16.5 36q0 19 -19.5 33.5t-42.5 14.5q-25 0 -36 -5l-12 15l51 66q-87 5 -137.5 74.5t-50.5 191.5q0 126 56 197t154 71q57 0 100 -28t64 -79l-64 -25q-28 69 -103 69q-134 0 -134 -205q0 -204 132 -204
q41 0 70.5 21t42.5 57l63 -24q-16 -47 -54.5 -77t-92.5 -38l-27 -45q54 0 78.5 -23.5t24.5 -57.5q0 -43 -31.5 -70.5t-79.5 -27.5z" />
    <glyph glyph-name="egrave" unicode="&#xe8;" horiz-adv-x="529" 
d="M307 576l-178 156h107l142 -156h-71zM277 -12q-100 0 -161 78t-61 190q0 125 61 196t161 71q88 0 145 -62.5t57 -184.5q0 -27 -2 -49h-348q9 -80 48 -127t103 -47q61 0 115 40l38 -47q-70 -58 -156 -58zM127 290h281q-1 93 -40.5 131.5t-90.5 38.5q-64 0 -105 -43
t-45 -127z" />
    <glyph glyph-name="eacute" unicode="&#xe9;" horiz-adv-x="529" 
d="M176 576l142 156h107l-178 -156h-71zM277 -12q-100 0 -161 78t-61 190q0 125 61 196t161 71q88 0 145 -62.5t57 -184.5q0 -27 -2 -49h-348q9 -80 48 -127t103 -47q61 0 115 40l38 -47q-70 -58 -156 -58zM127 290h281q-1 93 -40.5 131.5t-90.5 38.5q-64 0 -105 -43
t-45 -127z" />
    <glyph glyph-name="ecircumflex" unicode="&#xea;" horiz-adv-x="529" 
d="M393 576l-116 101l-116 -101h-65l151 156h60l151 -156h-65zM277 -12q-100 0 -161 78t-61 190q0 125 61 196t161 71q88 0 145 -62.5t57 -184.5q0 -27 -2 -49h-348q9 -80 48 -127t103 -47q61 0 115 40l38 -47q-70 -58 -156 -58zM127 290h281q-1 93 -40.5 131.5t-90.5 38.5
q-64 0 -105 -43t-45 -127z" />
    <glyph glyph-name="edieresis" unicode="&#xeb;" horiz-adv-x="529" 
d="M194 606q-20 0 -33.5 14t-13.5 33q0 20 13.5 33.5t33.5 13.5t33.5 -13.5t13.5 -33.5t-13.5 -33.5t-33.5 -13.5zM360 606q-20 0 -33.5 14t-13.5 33q0 20 13.5 33.5t33.5 13.5t33.5 -13.5t13.5 -33.5t-13.5 -33.5t-33.5 -13.5zM277 -12q-100 0 -161 78t-61 190
q0 125 61 196t161 71q88 0 145 -62.5t57 -184.5q0 -27 -2 -49h-348q9 -80 48 -127t103 -47q61 0 115 40l38 -47q-70 -58 -156 -58zM127 290h281q-1 93 -40.5 131.5t-90.5 38.5q-64 0 -105 -43t-45 -127z" />
    <glyph glyph-name="igrave" unicode="&#xec;" horiz-adv-x="252" 
d="M148 576l-178 156h107l142 -156h-71zM91 0v511h70v-511h-70z" />
    <glyph glyph-name="iacute" unicode="&#xed;" horiz-adv-x="252" 
d="M33 576l142 156h107l-178 -156h-71zM91 0v511h70v-511h-70z" />
    <glyph glyph-name="icircumflex" unicode="&#xee;" horiz-adv-x="252" 
d="M242 576l-116 101l-116 -101h-65l151 156h60l151 -156h-65zM91 0v511h70v-511h-70z" />
    <glyph glyph-name="idieresis" unicode="&#xef;" horiz-adv-x="252" 
d="M43 606q-19 0 -33 14t-14 33q0 20 13.5 33.5t33.5 13.5t33.5 -13.5t13.5 -33.5t-13.5 -33.5t-33.5 -13.5zM209 606q-19 0 -33 14t-14 33q0 20 13.5 33.5t33.5 13.5t33.5 -13.5t13.5 -33.5t-13.5 -33.5t-33.5 -13.5zM91 0v511h70v-511h-70z" />
    <glyph glyph-name="eth" unicode="&#xf0;" horiz-adv-x="548" 
d="M274 -12q-99 0 -159 65.5t-60 167.5q0 105 62 170t157 65q102 0 148 -87q-19 148 -122 227l-66 -70l-33 34l58 63q-56 30 -125 36v53q94 -8 164 -47l57 62l35 -35l-51 -54q154 -119 154 -369q0 -133 -57.5 -207t-161.5 -74zM274 51q61 0 103.5 48.5t42.5 120.5
q0 73 -41.5 123t-104.5 50q-61 0 -103.5 -49t-42.5 -123q0 -72 43 -121t103 -49z" />
    <glyph glyph-name="ntilde" unicode="&#xf1;" 
d="M364 602q-38 0 -90.5 25t-74.5 25q-19 0 -32.5 -12t-14.5 -34h-39q0 110 93 110q38 0 90.5 -25.5t74.5 -25.5q19 0 32.5 12.5t14.5 34.5h38q0 -110 -92 -110zM405 0v312q0 77 -32 112.5t-87 35.5q-126 0 -126 -146v-314h-70v511h70v-56q47 68 132 68q94 0 138.5 -57
t44.5 -183v-283h-70z" />
    <glyph glyph-name="ograve" unicode="&#xf2;" horiz-adv-x="548" 
d="M304 576l-178 156h107l142 -156h-71zM274 -12q-100 0 -159.5 70.5t-59.5 196.5q0 125 60 196.5t159 71.5q100 0 159.5 -70.5t59.5 -196.5q0 -125 -60 -196.5t-159 -71.5zM274 51q69 0 107.5 54.5t38.5 150.5t-37.5 150t-108.5 54t-108.5 -52.5t-37.5 -152.5
q0 -96 37.5 -150t108.5 -54z" />
    <glyph glyph-name="oacute" unicode="&#xf3;" horiz-adv-x="548" 
d="M173 576l142 156h107l-178 -156h-71zM274 -12q-100 0 -159.5 70.5t-59.5 196.5q0 125 60 196.5t159 71.5q100 0 159.5 -70.5t59.5 -196.5q0 -125 -60 -196.5t-159 -71.5zM274 51q69 0 107.5 54.5t38.5 150.5t-37.5 150t-108.5 54t-108.5 -52.5t-37.5 -152.5
q0 -96 37.5 -150t108.5 -54z" />
    <glyph glyph-name="ocircumflex" unicode="&#xf4;" horiz-adv-x="548" 
d="M390 576l-116 101l-116 -101h-65l151 156h60l151 -156h-65zM274 -12q-100 0 -159.5 70.5t-59.5 196.5q0 125 60 196.5t159 71.5q100 0 159.5 -70.5t59.5 -196.5q0 -125 -60 -196.5t-159 -71.5zM274 51q69 0 107.5 54.5t38.5 150.5t-37.5 150t-108.5 54t-108.5 -52.5
t-37.5 -152.5q0 -96 37.5 -150t108.5 -54z" />
    <glyph glyph-name="otilde" unicode="&#xf5;" horiz-adv-x="548" 
d="M352 602q-38 0 -90.5 25t-74.5 25q-19 0 -32.5 -12t-14.5 -34h-39q0 110 93 110q38 0 90.5 -25.5t74.5 -25.5q19 0 32.5 12.5t14.5 34.5h38q0 -110 -92 -110zM274 -12q-100 0 -159.5 70.5t-59.5 196.5q0 125 60 196.5t159 71.5q100 0 159.5 -70.5t59.5 -196.5
q0 -125 -60 -196.5t-159 -71.5zM274 51q69 0 107.5 54.5t38.5 150.5t-37.5 150t-108.5 54t-108.5 -52.5t-37.5 -152.5q0 -96 37.5 -150t108.5 -54z" />
    <glyph glyph-name="odieresis" unicode="&#xf6;" horiz-adv-x="548" 
d="M191 606q-19 0 -33 14t-14 33q0 20 13.5 33.5t33.5 13.5t33.5 -13.5t13.5 -33.5t-13.5 -33.5t-33.5 -13.5zM357 606q-19 0 -33 14t-14 33q0 20 13.5 33.5t33.5 13.5t33.5 -13.5t13.5 -33.5t-13.5 -33.5t-33.5 -13.5zM274 -12q-100 0 -159.5 70.5t-59.5 196.5
q0 125 60 196.5t159 71.5q100 0 159.5 -70.5t59.5 -196.5q0 -125 -60 -196.5t-159 -71.5zM274 51q69 0 107.5 54.5t38.5 150.5t-37.5 150t-108.5 54t-108.5 -52.5t-37.5 -152.5q0 -96 37.5 -150t108.5 -54z" />
    <glyph glyph-name="divide" unicode="&#xf7;" horiz-adv-x="660" 
d="M327 501q-21 0 -34.5 14t-13.5 34q0 19 14 34t34 15q21 0 36 -15t15 -34q0 -20 -14.5 -34t-36.5 -14zM95 308v68h470v-68h-470zM327 88q-21 0 -34.5 13t-13.5 33q0 21 13.5 35t34.5 14q22 0 36.5 -14.5t14.5 -34.5t-14.5 -33t-36.5 -13z" />
    <glyph glyph-name="oslash" unicode="&#xf8;" horiz-adv-x="548" 
d="M438 446q55 -71 55 -190q0 -125 -60 -196.5t-159 -71.5q-72 0 -127 39l-27 -39h-65l54 78q-54 71 -54 189q0 125 60 196.5t159 71.5q73 0 125 -38l27 38h66zM128 255q0 -77 24 -127l209 302q-36 30 -87 30q-71 0 -108.5 -52.5t-37.5 -152.5zM274 51q69 0 107.5 54.5
t38.5 150.5q0 79 -25 128l-209 -302q36 -31 88 -31z" />
    <glyph glyph-name="ugrave" unicode="&#xf9;" 
d="M303 576l-178 156h107l142 -156h-71zM400 0v49q-26 -34 -55.5 -47.5t-71.5 -13.5q-99 0 -143.5 56t-44.5 182v285h70v-312q0 -76 32 -112t86 -36q127 0 127 146v314h70v-511h-70z" />
    <glyph glyph-name="uacute" unicode="&#xfa;" 
d="M172 576l142 156h107l-178 -156h-71zM400 0v49q-26 -34 -55.5 -47.5t-71.5 -13.5q-99 0 -143.5 56t-44.5 182v285h70v-312q0 -76 32 -112t86 -36q127 0 127 146v314h70v-511h-70z" />
    <glyph glyph-name="ucircumflex" unicode="&#xfb;" 
d="M389 576l-116 101l-116 -101h-65l151 156h60l151 -156h-65zM400 0v49q-26 -34 -55.5 -47.5t-71.5 -13.5q-99 0 -143.5 56t-44.5 182v285h70v-312q0 -76 32 -112t86 -36q127 0 127 146v314h70v-511h-70z" />
    <glyph glyph-name="udieresis" unicode="&#xfc;" 
d="M190 606q-20 0 -33.5 14t-13.5 33q0 20 13.5 33.5t33.5 13.5t33.5 -13.5t13.5 -33.5t-13.5 -33.5t-33.5 -13.5zM356 606q-20 0 -33.5 14t-13.5 33q0 20 13.5 33.5t33.5 13.5t33.5 -13.5t13.5 -33.5t-13.5 -33.5t-33.5 -13.5zM400 0v49q-26 -34 -55.5 -47.5t-71.5 -13.5
q-99 0 -143.5 56t-44.5 182v285h70v-312q0 -76 32 -112t86 -36q127 0 127 146v314h70v-511h-70z" />
    <glyph glyph-name="yacute" unicode="&#xfd;" horiz-adv-x="521" 
d="M156 576l142 156h107l-178 -156h-71zM151 -194l76 210l-187 495h71l129 -363q3 -10 9 -28l8 -24l18 52l131 363h75l-261 -705h-69z" />
    <glyph glyph-name="thorn" unicode="&#xfe;" horiz-adv-x="566" 
d="M300 -12q-85 0 -140 64v-220l-70 -35v881l70 34v-247q32 28 62.5 43t77.5 15q98 0 154.5 -72.5t56.5 -194.5q0 -125 -58 -196.5t-153 -71.5zM292 51q70 0 108 53.5t38 151.5q0 93 -39.5 148.5t-106.5 55.5q-41 0 -76 -21t-56 -58v-251q61 -79 132 -79z" />
    <glyph glyph-name="ydieresis" unicode="&#xff;" horiz-adv-x="521" 
d="M174 606q-20 0 -33.5 14t-13.5 33q0 20 13.5 33.5t33.5 13.5t33.5 -13.5t13.5 -33.5t-13.5 -33.5t-33.5 -13.5zM340 606q-20 0 -33.5 14t-13.5 33q0 20 13.5 33.5t33.5 13.5t33.5 -13.5t13.5 -33.5t-13.5 -33.5t-33.5 -13.5zM151 -194l76 210l-187 495h71l129 -363
q3 -10 9 -28l8 -24l18 52l131 363h75l-261 -705h-69z" />
    <glyph glyph-name="Amacron" unicode="&#x100;" horiz-adv-x="662" 
d="M164 798v61h330v-61h-330zM531 0l-64 181h-273l-61 -181h-73l243 700h54l245 -700h-71zM446 243l-96 280q-16 45 -20 63l-8 -26q-7 -27 -11 -37l-96 -280h231z" />
    <glyph glyph-name="amacron" unicode="&#x101;" horiz-adv-x="519" 
d="M113 609v61h330v-61h-330zM384 0v50q-69 -62 -150 -62q-80 0 -127 44.5t-47 128.5q0 83 53.5 126t132.5 43q71 0 138 -36v43q0 125 -112 125q-72 0 -152 -55l-20 60q88 56 179 56q31 0 58 -7.5t53.5 -26t42.5 -55t16 -88.5v-346h-65zM241 49q79 0 143 79v99
q-63 42 -131 42q-55 0 -91.5 -27.5t-36.5 -80.5q0 -51 30.5 -81.5t85.5 -30.5z" />
    <glyph glyph-name="Abreve" unicode="&#x102;" horiz-adv-x="662" 
d="M330 770q-89 0 -134 45t-45 116h68q0 -46 31.5 -72.5t79.5 -26.5t79.5 26.5t31.5 72.5h68q0 -71 -45 -116t-134 -45zM531 0l-64 181h-273l-61 -181h-73l243 700h54l245 -700h-71zM446 243l-96 280q-16 45 -20 63l-8 -26q-7 -27 -11 -37l-96 -280h231z" />
    <glyph glyph-name="abreve" unicode="&#x103;" horiz-adv-x="519" 
d="M279 581q-89 0 -134 45t-45 116h68q0 -46 31.5 -72.5t79.5 -26.5t79.5 26.5t31.5 72.5h68q0 -71 -45 -116t-134 -45zM384 0v50q-69 -62 -150 -62q-80 0 -127 44.5t-47 128.5q0 83 53.5 126t132.5 43q71 0 138 -36v43q0 125 -112 125q-72 0 -152 -55l-20 60q88 56 179 56
q31 0 58 -7.5t53.5 -26t42.5 -55t16 -88.5v-346h-65zM241 49q79 0 143 79v99q-63 42 -131 42q-55 0 -91.5 -27.5t-36.5 -80.5q0 -51 30.5 -81.5t85.5 -30.5z" />
    <glyph glyph-name="Aogonek" unicode="&#x104;" horiz-adv-x="662" 
d="M520 -234q-46 0 -77.5 25.5t-31.5 72.5q0 95 120 136l-64 181h-273l-61 -181h-73l243 700h54l245 -700q-130 -45 -130 -127q0 -29 16 -43t38 -14q30 0 55 23l39 -29q-40 -44 -100 -44zM215 243h231l-96 280q-16 45 -20 63l-8 -26q-7 -27 -11 -37z" />
    <glyph glyph-name="aogonek" unicode="&#x105;" horiz-adv-x="519" 
d="M381 -234q-46 0 -77.5 25.5t-31.5 72.5q0 88 112 136v50q-69 -62 -150 -62q-80 0 -127 44.5t-47 128.5q0 83 53.5 126t132.5 43q71 0 138 -36v43q0 125 -112 125q-72 0 -152 -55l-20 60q88 56 179 56q31 0 58 -7.5t53.5 -26t42.5 -55t16 -88.5v-346q-116 -49 -116 -127
q0 -29 16 -43t38 -14q30 0 55 23l39 -29q-40 -44 -100 -44zM241 49q79 0 143 79v99q-63 42 -131 42q-55 0 -91.5 -27.5t-36.5 -80.5q0 -51 30.5 -81.5t85.5 -30.5z" />
    <glyph glyph-name="Cacute" unicode="&#x106;" horiz-adv-x="644" 
d="M273 765l142 156h107l-178 -156h-71zM360 -12q-75 0 -132.5 30.5t-91 82.5t-50 115t-16.5 134q0 100 29.5 179.5t96.5 131t164 51.5q86 0 134 -30.5t80 -82.5l-62 -36q-28 40 -62.5 63t-89.5 23q-57 0 -101 -26.5t-68 -71t-36 -95.5t-12 -106q0 -81 21.5 -146.5t72 -109
t123.5 -43.5q108 0 162 89l62 -24q-27 -55 -83.5 -91.5t-140.5 -36.5z" />
    <glyph glyph-name="cacute" unicode="&#x107;" horiz-adv-x="481" 
d="M163 576l142 156h107l-178 -156h-71zM257 -12q-93 0 -147.5 70.5t-54.5 196.5t56 197t154 71q57 0 100 -28t64 -79l-64 -25q-28 69 -103 69q-134 0 -134 -205q0 -204 132 -204q41 0 70.5 21t42.5 57l63 -24q-18 -54 -66 -85.5t-113 -31.5z" />
    <glyph glyph-name="Ccircumflex" unicode="&#x108;" horiz-adv-x="644" 
d="M475 765l-116 101l-116 -101h-65l151 156h60l151 -156h-65zM360 -12q-75 0 -132.5 30.5t-91 82.5t-50 115t-16.5 134q0 100 29.5 179.5t96.5 131t164 51.5q86 0 134 -30.5t80 -82.5l-62 -36q-28 40 -62.5 63t-89.5 23q-57 0 -101 -26.5t-68 -71t-36 -95.5t-12 -106
q0 -81 21.5 -146.5t72 -109t123.5 -43.5q108 0 162 89l62 -24q-27 -55 -83.5 -91.5t-140.5 -36.5z" />
    <glyph glyph-name="ccircumflex" unicode="&#x109;" horiz-adv-x="481" 
d="M380 576l-116 101l-116 -101h-65l151 156h60l151 -156h-65zM257 -12q-93 0 -147.5 70.5t-54.5 196.5t56 197t154 71q57 0 100 -28t64 -79l-64 -25q-28 69 -103 69q-134 0 -134 -205q0 -204 132 -204q41 0 70.5 21t42.5 57l63 -24q-18 -54 -66 -85.5t-113 -31.5z" />
    <glyph glyph-name="Cdotaccent" unicode="&#x10a;" horiz-adv-x="644" 
d="M359 795q-19 0 -33 13.5t-14 33.5t13.5 33.5t33.5 13.5t33.5 -13.5t13.5 -33.5t-13.5 -33.5t-33.5 -13.5zM360 -12q-75 0 -132.5 30.5t-91 82.5t-50 115t-16.5 134q0 100 29.5 179.5t96.5 131t164 51.5q86 0 134 -30.5t80 -82.5l-62 -36q-28 40 -62.5 63t-89.5 23
q-57 0 -101 -26.5t-68 -71t-36 -95.5t-12 -106q0 -81 21.5 -146.5t72 -109t123.5 -43.5q108 0 162 89l62 -24q-27 -55 -83.5 -91.5t-140.5 -36.5z" />
    <glyph glyph-name="cdotaccent" unicode="&#x10b;" horiz-adv-x="481" 
d="M264 606q-20 0 -33.5 14t-13.5 33q0 20 13.5 33.5t33.5 13.5t33.5 -13.5t13.5 -33.5t-13.5 -33.5t-33.5 -13.5zM257 -12q-93 0 -147.5 70.5t-54.5 196.5t56 197t154 71q57 0 100 -28t64 -79l-64 -25q-28 69 -103 69q-134 0 -134 -205q0 -204 132 -204q41 0 70.5 21
t42.5 57l63 -24q-18 -54 -66 -85.5t-113 -31.5z" />
    <glyph glyph-name="Ccaron" unicode="&#x10c;" horiz-adv-x="644" 
d="M389 765h-60l-151 156h65l116 -101l116 101h65zM360 -12q-75 0 -132.5 30.5t-91 82.5t-50 115t-16.5 134q0 100 29.5 179.5t96.5 131t164 51.5q86 0 134 -30.5t80 -82.5l-62 -36q-28 40 -62.5 63t-89.5 23q-57 0 -101 -26.5t-68 -71t-36 -95.5t-12 -106
q0 -81 21.5 -146.5t72 -109t123.5 -43.5q108 0 162 89l62 -24q-27 -55 -83.5 -91.5t-140.5 -36.5z" />
    <glyph glyph-name="ccaron" unicode="&#x10d;" horiz-adv-x="481" 
d="M294 576h-60l-151 156h65l116 -101l116 101h65zM257 -12q-93 0 -147.5 70.5t-54.5 196.5t56 197t154 71q57 0 100 -28t64 -79l-64 -25q-28 69 -103 69q-134 0 -134 -205q0 -204 132 -204q41 0 70.5 21t42.5 57l63 -24q-18 -54 -66 -85.5t-113 -31.5z" />
    <glyph glyph-name="Dcaron" unicode="&#x10e;" horiz-adv-x="678" 
d="M329 765h-60l-151 156h65l116 -101l116 101h65zM105 700h186q85 0 149 -30t99 -81t52 -111t17 -128q0 -51 -9 -98.5t-32 -94t-58 -81t-92 -55.5t-130 -21h-182v700zM292 63q67 0 116.5 25t76 68t38.5 91t12 103q0 120 -58 203.5t-174 83.5h-128v-574h117z" />
    <glyph glyph-name="dcaron" unicode="&#x10f;" horiz-adv-x="705" 
d="M266 -12q-98 0 -154.5 72.5t-56.5 195.5q0 125 56.5 196t154.5 71q76 0 136 -48v212l70 35v-722h-70v44q-56 -56 -136 -56zM658 712v-8q0 -141 -80 -220l-20 14q13 28 21.5 92t8.5 122h70zM274 51q39 0 73 21t55 59v255q-46 74 -128 74q-70 0 -108 -53t-38 -151
q0 -88 40 -146.5t106 -58.5z" />
    <glyph glyph-name="Dcroat" unicode="&#x110;" horiz-adv-x="678" 
d="M105 318h-70v62h70v320h186q85 0 149 -30t99 -81t52 -111t17 -128q0 -51 -9 -98.5t-32 -94t-58 -81t-92 -55.5t-130 -21h-182v318zM292 63q67 0 116.5 25t76 68t38.5 91t12 103q0 120 -58 203.5t-174 83.5h-128v-257h155v-62h-155v-255h117z" />
    <glyph glyph-name="dcroat" unicode="&#x111;" horiz-adv-x="562" 
d="M472 553v-553h-70v44q-59 -56 -136 -56q-97 0 -154 69.5t-57 182.5q0 117 56.5 183t154.5 66q76 0 136 -48v112h-142v63h142v71l70 35v-106h65v-63h-65zM274 51q39 0 73 21t55 59v221q-46 74 -128 74q-70 0 -108 -48.5t-38 -137.5q0 -77 40.5 -133t105.5 -56z" />
    <glyph glyph-name="Emacron" unicode="&#x112;" horiz-adv-x="596" 
d="M139 798v61h330v-61h-330zM105 0v700h399v-67h-329v-238h222v-66h-222v-262h351v-67h-421z" />
    <glyph glyph-name="emacron" unicode="&#x113;" horiz-adv-x="529" 
d="M110 609v61h330v-61h-330zM277 -12q-100 0 -161 78t-61 190q0 125 61 196t161 71q88 0 145 -62.5t57 -184.5q0 -27 -2 -49h-348q9 -80 48 -127t103 -47q61 0 115 40l38 -47q-70 -58 -156 -58zM127 290h281q-1 93 -40.5 131.5t-90.5 38.5q-64 0 -105 -43t-45 -127z" />
    <glyph glyph-name="Ebreve" unicode="&#x114;" horiz-adv-x="596" 
d="M307 770q-89 0 -134 45t-45 116h68q0 -46 31.5 -72.5t79.5 -26.5t79.5 26.5t31.5 72.5h68q0 -71 -45 -116t-134 -45zM105 0v700h399v-67h-329v-238h222v-66h-222v-262h351v-67h-421z" />
    <glyph glyph-name="ebreve" unicode="&#x115;" horiz-adv-x="529" 
d="M276 581q-89 0 -134 45t-45 116h68q0 -46 31.5 -72.5t79.5 -26.5t79.5 26.5t31.5 72.5h68q0 -71 -45 -116t-134 -45zM277 -12q-100 0 -161 78t-61 190q0 125 61 196t161 71q88 0 145 -62.5t57 -184.5q0 -27 -2 -49h-348q9 -80 48 -127t103 -47q61 0 115 40l38 -47
q-70 -58 -156 -58zM127 290h281q-1 93 -40.5 131.5t-90.5 38.5q-64 0 -105 -43t-45 -127z" />
    <glyph glyph-name="Edotaccent" unicode="&#x116;" horiz-adv-x="596" 
d="M312 795q-20 0 -33.5 13.5t-13.5 33.5t13.5 33.5t33.5 13.5t33.5 -13.5t13.5 -33.5t-13.5 -33.5t-33.5 -13.5zM105 0v700h399v-67h-329v-238h222v-66h-222v-262h351v-67h-421z" />
    <glyph glyph-name="edotaccent" unicode="&#x117;" horiz-adv-x="529" 
d="M277 606q-19 0 -33 14t-14 33q0 20 13.5 33.5t33.5 13.5t33.5 -13.5t13.5 -33.5t-13.5 -33.5t-33.5 -13.5zM277 -12q-100 0 -161 78t-61 190q0 125 61 196t161 71q88 0 145 -62.5t57 -184.5q0 -27 -2 -49h-348q9 -80 48 -127t103 -47q61 0 115 40l38 -47
q-70 -58 -156 -58zM127 290h281q-1 93 -40.5 131.5t-90.5 38.5q-64 0 -105 -43t-45 -127z" />
    <glyph glyph-name="Eogonek" unicode="&#x118;" horiz-adv-x="596" 
d="M393 -234q-46 0 -77.5 25.5t-31.5 72.5q0 90 110 136h-289v700h399v-67h-329v-238h222v-66h-222v-262h351v-67h-36q-54 0 -99.5 -40t-45.5 -87q0 -29 16 -43t38 -14q30 0 55 23l39 -29q-40 -44 -100 -44z" />
    <glyph glyph-name="eogonek" unicode="&#x119;" horiz-adv-x="529" 
d="M291 -234q-46 0 -77.5 25.5t-31.5 72.5q0 78 85 124q-96 4 -154 81.5t-58 186.5q0 125 61 196t161 71q88 0 145 -62.5t57 -184.5q0 -27 -2 -49h-348q9 -80 48 -127t103 -47q61 0 115 40l38 -47q-15 -13 -72 -45q-30 -16 -44 -25t-35 -25.5t-30 -35.5t-9 -42q0 -29 16 -43
t38 -14q30 0 55 23l39 -29q-40 -44 -100 -44zM277 460q-64 0 -105 -43t-45 -127h281q-1 93 -40.5 131.5t-90.5 38.5z" />
    <glyph glyph-name="Ecaron" unicode="&#x11a;" horiz-adv-x="596" 
d="M344 765h-60l-151 156h65l116 -101l116 101h65zM105 0v700h399v-67h-329v-238h222v-66h-222v-262h351v-67h-421z" />
    <glyph glyph-name="ecaron" unicode="&#x11b;" horiz-adv-x="529" 
d="M307 576h-60l-151 156h65l116 -101l116 101h65zM277 -12q-100 0 -161 78t-61 190q0 125 61 196t161 71q88 0 145 -62.5t57 -184.5q0 -27 -2 -49h-348q9 -80 48 -127t103 -47q61 0 115 40l38 -47q-70 -58 -156 -58zM127 290h281q-1 93 -40.5 131.5t-90.5 38.5
q-64 0 -105 -43t-45 -127z" />
    <glyph glyph-name="Gcircumflex" unicode="&#x11c;" horiz-adv-x="685" 
d="M476 765l-116 101l-116 -101h-65l151 156h60l151 -156h-65zM360 -12q-75 0 -132.5 30.5t-91 82.5t-50 115t-16.5 134q0 100 29.5 179.5t96.5 131t164 51.5q86 0 134 -30.5t80 -82.5l-62 -36q-28 40 -62.5 63t-89.5 23q-57 0 -101 -26.5t-68 -71t-36 -95.5t-12 -106
q0 -81 21.5 -146.5t72 -109t123.5 -43.5q76 0 121 47t45 127v42h-129v62h203v-77q0 -125 -67.5 -194.5t-172.5 -69.5z" />
    <glyph glyph-name="gcircumflex" unicode="&#x11d;" horiz-adv-x="564" 
d="M403 576l-116 101l-116 -101h-65l151 156h60l151 -156h-65zM234 -213l-32 55q115 6 158.5 42t43.5 96v78q-47 -70 -140 -70q-88 0 -148.5 70.5t-60.5 197.5q0 124 59 195.5t154 71.5q85 0 136 -60v48h70v-503q0 -211 -240 -221zM280 51q33 0 68.5 23.5t55.5 61.5v246
q-20 36 -56.5 57t-67.5 21q-75 0 -113.5 -52.5t-38.5 -151.5q0 -96 42.5 -150.5t109.5 -54.5z" />
    <glyph glyph-name="Gbreve" unicode="&#x11e;" horiz-adv-x="685" 
d="M359 770q-89 0 -134 45t-45 116h68q0 -46 31.5 -72.5t79.5 -26.5t79.5 26.5t31.5 72.5h68q0 -71 -45 -116t-134 -45zM360 -12q-75 0 -132.5 30.5t-91 82.5t-50 115t-16.5 134q0 100 29.5 179.5t96.5 131t164 51.5q86 0 134 -30.5t80 -82.5l-62 -36q-28 40 -62.5 63
t-89.5 23q-57 0 -101 -26.5t-68 -71t-36 -95.5t-12 -106q0 -81 21.5 -146.5t72 -109t123.5 -43.5q76 0 121 47t45 127v42h-129v62h203v-77q0 -125 -67.5 -194.5t-172.5 -69.5z" />
    <glyph glyph-name="gbreve" unicode="&#x11f;" horiz-adv-x="564" 
d="M287 581q-89 0 -134 45t-45 116h68q0 -46 31.5 -72.5t79.5 -26.5t79.5 26.5t31.5 72.5h68q0 -71 -45 -116t-134 -45zM234 -213l-32 55q115 6 158.5 42t43.5 96v78q-47 -70 -140 -70q-88 0 -148.5 70.5t-60.5 197.5q0 124 59 195.5t154 71.5q85 0 136 -60v48h70v-503
q0 -211 -240 -221zM280 51q33 0 68.5 23.5t55.5 61.5v246q-20 36 -56.5 57t-67.5 21q-75 0 -113.5 -52.5t-38.5 -151.5q0 -96 42.5 -150.5t109.5 -54.5z" />
    <glyph glyph-name="Gdotaccent" unicode="&#x120;" horiz-adv-x="685" 
d="M347 795q-19 0 -33 13.5t-14 33.5t13.5 33.5t33.5 13.5t33.5 -13.5t13.5 -33.5t-13.5 -33.5t-33.5 -13.5zM360 -12q-75 0 -132.5 30.5t-91 82.5t-50 115t-16.5 134q0 100 29.5 179.5t96.5 131t164 51.5q86 0 134 -30.5t80 -82.5l-62 -36q-28 40 -62.5 63t-89.5 23
q-57 0 -101 -26.5t-68 -71t-36 -95.5t-12 -106q0 -81 21.5 -146.5t72 -109t123.5 -43.5q76 0 121 47t45 127v42h-129v62h203v-77q0 -125 -67.5 -194.5t-172.5 -69.5z" />
    <glyph glyph-name="gdotaccent" unicode="&#x121;" horiz-adv-x="564" 
d="M287 606q-19 0 -33 14t-14 33q0 20 13.5 33.5t33.5 13.5t33.5 -13.5t13.5 -33.5t-13.5 -33.5t-33.5 -13.5zM234 -213l-32 55q115 6 158.5 42t43.5 96v78q-47 -70 -140 -70q-88 0 -148.5 70.5t-60.5 197.5q0 124 59 195.5t154 71.5q85 0 136 -60v48h70v-503
q0 -211 -240 -221zM280 51q33 0 68.5 23.5t55.5 61.5v246q-20 36 -56.5 57t-67.5 21q-75 0 -113.5 -52.5t-38.5 -151.5q0 -96 42.5 -150.5t109.5 -54.5z" />
    <glyph glyph-name="Gcommaaccent" unicode="&#x122;" horiz-adv-x="685" 
d="M360 -12q-75 0 -132.5 30.5t-91 82.5t-50 115t-16.5 134q0 100 29.5 179.5t96.5 131t164 51.5q86 0 134 -30.5t80 -82.5l-62 -36q-28 40 -62.5 63t-89.5 23q-57 0 -101 -26.5t-68 -71t-36 -95.5t-12 -106q0 -81 21.5 -146.5t72 -109t123.5 -43.5q76 0 121 47t45 127v42
h-129v62h203v-77q0 -125 -67.5 -194.5t-172.5 -69.5zM321 -239q34 27 39 74q-27 0 -40.5 15.5t-13.5 38.5t16 38t36 15q21 0 37.5 -16.5t16.5 -42.5q0 -83 -73 -127z" />
    <glyph glyph-name="gcommaaccent" unicode="&#x123;" horiz-adv-x="564" 
d="M286 603q-21 0 -37.5 16.5t-16.5 42.5q0 83 73 127l18 -5q-34 -27 -39 -74q27 0 40.5 -15.5t13.5 -38.5t-16 -38t-36 -15zM234 -213l-32 55q115 6 158.5 42t43.5 96v78q-47 -70 -140 -70q-88 0 -148.5 70.5t-60.5 197.5q0 124 59 195.5t154 71.5q85 0 136 -60v48h70v-503
q0 -211 -240 -221zM280 51q33 0 68.5 23.5t55.5 61.5v246q-20 36 -56.5 57t-67.5 21q-75 0 -113.5 -52.5t-38.5 -151.5q0 -96 42.5 -150.5t109.5 -54.5z" />
    <glyph glyph-name="Hcircumflex" unicode="&#x124;" horiz-adv-x="692" 
d="M462 765l-116 101l-116 -101h-65l151 156h60l151 -156h-65zM517 0v331h-342v-331h-70v700h70v-303h342v303h70v-700h-70z" />
    <glyph glyph-name="hcircumflex" unicode="&#x125;" 
d="M402 765l-116 101l-116 -101h-65l151 156h60l151 -156h-65zM90 0v689l70 33v-268q46 69 132 69q94 0 138.5 -57t44.5 -183v-283h-70v312q0 77 -32 112.5t-87 35.5q-126 0 -126 -146v-314h-70z" />
    <glyph glyph-name="Hbar" unicode="&#x126;" horiz-adv-x="692" 
d="M517 0v331h-342v-331h-70v532h-90v66h90v102h70v-102h342v102h70v-102h90v-66h-90v-532h-70zM517 397v135h-342v-135h342z" />
    <glyph glyph-name="hbar" unicode="&#x127;" 
d="M90 0v553h-65v63h65v73l70 33v-106h156v-63h-156v-133q46 69 133 69q94 0 138 -57t44 -183v-249h-70v278q0 148 -118 148q-127 0 -127 -146v-280h-70z" />
    <glyph glyph-name="Itilde" unicode="&#x128;" horiz-adv-x="280" 
d="M218 791q-38 0 -90.5 25t-74.5 25q-19 0 -32.5 -12t-14.5 -34h-39q0 110 93 110q38 0 90.5 -25.5t74.5 -25.5q19 0 32.5 12.5t14.5 34.5h38q0 -110 -92 -110zM105 0v700h70v-700h-70z" />
    <glyph glyph-name="itilde" unicode="&#x129;" horiz-adv-x="252" 
d="M204 602q-38 0 -90.5 25t-74.5 25q-19 0 -32.5 -12t-14.5 -34h-39q0 110 93 110q38 0 90.5 -25.5t74.5 -25.5q19 0 32.5 12.5t14.5 34.5h38q0 -110 -92 -110zM91 0v511h70v-511h-70z" />
    <glyph glyph-name="Imacron" unicode="&#x12a;" horiz-adv-x="280" 
d="M-27 798v61h330v-61h-330zM105 0v700h70v-700h-70z" />
    <glyph glyph-name="imacron" unicode="&#x12b;" horiz-adv-x="252" 
d="M-41 609v61h330v-61h-330zM91 0v511h70v-511h-70z" />
    <glyph glyph-name="Ibreve" unicode="&#x12c;" horiz-adv-x="280" 
d="M139 770q-89 0 -134 45t-45 116h68q0 -46 31.5 -72.5t79.5 -26.5t79.5 26.5t31.5 72.5h68q0 -71 -45 -116t-134 -45zM105 0v700h70v-700h-70z" />
    <glyph glyph-name="ibreve" unicode="&#x12d;" horiz-adv-x="252" 
d="M125 581q-89 0 -134 45t-45 116h68q0 -46 31.5 -72.5t79.5 -26.5t79.5 26.5t31.5 72.5h68q0 -71 -45 -116t-134 -45zM91 0v511h70v-511h-70z" />
    <glyph glyph-name="Iogonek" unicode="&#x12e;" horiz-adv-x="280" 
d="M101 -234q-46 0 -77.5 25.5t-31.5 72.5q0 91 113 136v700h70v-700q-58 -20 -90 -54t-32 -73q0 -29 16 -43t38 -14q30 0 55 23l39 -29q-40 -44 -100 -44z" />
    <glyph glyph-name="iogonek" unicode="&#x12f;" horiz-adv-x="252" 
d="M126 616q-20 0 -33 13t-13 33t13.5 34t32.5 14q20 0 33.5 -14t13.5 -34t-13.5 -33t-33.5 -13zM88 -234q-46 0 -77.5 25.5t-31.5 72.5t30.5 81.5t81.5 54.5v511h71v-511q-58 -20 -90 -54t-32 -73q0 -29 16 -43t38 -14q30 0 55 23l39 -29q-40 -44 -100 -44z" />
    <glyph glyph-name="Idotaccent" unicode="&#x130;" horiz-adv-x="280" 
d="M140 795q-20 0 -33.5 13.5t-13.5 33.5t13.5 33.5t33.5 13.5t33.5 -13.5t13.5 -33.5t-13.5 -33.5t-33.5 -13.5zM105 0v700h70v-700h-70z" />
    <glyph glyph-name="dotlessi" unicode="&#x131;" horiz-adv-x="252" 
d="M91 0v511h70v-511h-70z" />
    <glyph glyph-name="IJ" unicode="&#x132;" horiz-adv-x="806" 
d="M105 0v700h70v-700h-70zM492 -12q-72 0 -114.5 30t-67.5 89l55 30q18 -34 29 -48.5t36 -26t65 -11.5q58 0 97 35t39 118v496h70v-475q0 -55 -13 -98t-34 -68.5t-49.5 -42t-55.5 -22.5t-57 -6z" />
    <glyph glyph-name="ij" unicode="&#x133;" horiz-adv-x="534" 
d="M126 616q-20 0 -33 13t-13 33t13.5 34t32.5 14q20 0 33 -14t13 -34t-13 -33t-33 -13zM409 616q-19 0 -32.5 13t-13.5 33t13.5 34t32.5 14q20 0 33 -14t13 -34t-13 -33t-33 -13zM91 0v511h70v-511h-70zM284 -213l-32 55q122 11 122 98v571h70v-543q0 -70 -28 -114
q-41 -62 -132 -67z" />
    <glyph glyph-name="Jcircumflex" unicode="&#x134;" horiz-adv-x="526" 
d="M502 765l-116 101l-116 -101h-65l151 156h60l151 -156h-65zM212 -12q-72 0 -114.5 30t-67.5 89l55 30q18 -34 29 -48.5t36 -26t65 -11.5q58 0 97 35t39 118v496h70v-475q0 -55 -13 -98t-34 -68.5t-49.5 -42t-55.5 -22.5t-57 -6z" />
    <glyph glyph-name="jcircumflex" unicode="&#x135;" horiz-adv-x="252" 
d="M245 576l-116 101l-116 -101h-65l151 156h60l151 -156h-65zM2 -213l-32 55q122 11 122 98v571h70v-543q0 -70 -28 -114q-41 -62 -132 -67z" />
    <glyph glyph-name="Kcommaaccent" unicode="&#x136;" horiz-adv-x="643" 
d="M509 0l-220 403l-114 -142v-261h-70v700h70v-348l277 348h76l-191 -238l251 -462h-79zM285 -239q34 27 39 74q-27 0 -40.5 15.5t-13.5 38.5t16 38t36 15q21 0 37.5 -16.5t16.5 -42.5q0 -83 -73 -127z" />
    <glyph glyph-name="kcommaaccent" unicode="&#x137;" horiz-adv-x="511" 
d="M486 0h-77l-164 324l-85 -91v-233h-70v688l70 34v-406l181 195h81l-128 -136zM219 -239q34 27 39 74q-27 0 -40.5 15.5t-13.5 38.5t16 38t36 15q21 0 37.5 -16.5t16.5 -42.5q0 -83 -73 -127z" />
    <glyph glyph-name="kgreenlandic" unicode="&#x138;" horiz-adv-x="522" 
d="M422 0l-143 264l-119 -149v-115h-70v511h70v-303l238 303h78l-149 -188l175 -323h-80z" />
    <glyph glyph-name="Lacute" unicode="&#x139;" horiz-adv-x="557" 
d="M58 765l142 156h107l-178 -156h-71zM105 0v700h70v-633h347v-67h-417z" />
    <glyph glyph-name="lacute" unicode="&#x13a;" horiz-adv-x="260" 
d="M29 756l142 156h107l-178 -156h-71zM95 0v688l70 34v-722h-70z" />
    <glyph glyph-name="Lcommaaccent" unicode="&#x13b;" horiz-adv-x="557" 
d="M105 0v700h70v-633h347v-67h-417zM278 -239q34 27 39 74q-27 0 -40.5 15.5t-13.5 38.5t16 38t36 15q21 0 37.5 -16.5t16.5 -42.5q0 -83 -73 -127z" />
    <glyph glyph-name="lcommaaccent" unicode="&#x13c;" horiz-adv-x="260" 
d="M95 0v688l70 34v-722h-70zM93 -239q34 27 39 74q-27 0 -40.5 15.5t-13.5 38.5t16 38t36 15q21 0 37.5 -16.5t16.5 -42.5q0 -83 -73 -127z" />
    <glyph glyph-name="Lcaron" unicode="&#x13d;" horiz-adv-x="557" 
d="M170 765h-60l-151 156h65l116 -101l116 101h65zM105 0v700h70v-633h347v-67h-417z" />
    <glyph glyph-name="lcaron" unicode="&#x13e;" horiz-adv-x="399" 
d="M95 0v688l70 34v-722h-70zM371 712v-8q0 -141 -80 -220l-20 14q13 28 21.5 92t8.5 122h70z" />
    <glyph glyph-name="Ldot" unicode="&#x13f;" horiz-adv-x="557" 
d="M105 0v700h70v-633h347v-67h-417zM408 285q-26 0 -44.5 19t-18.5 44t18.5 44t44.5 19t44.5 -19t18.5 -44t-18.5 -44t-44.5 -19z" />
    <glyph glyph-name="ldot" unicode="&#x140;" horiz-adv-x="356" 
d="M95 0v688l70 34v-722h-70zM286 251q-26 0 -44.5 19t-18.5 44t18.5 44t44.5 19t44.5 -19t18.5 -44t-18.5 -44t-44.5 -19z" />
    <glyph glyph-name="Lslash" unicode="&#x141;" horiz-adv-x="557" 
d="M105 0v272l-75 -55v76l75 56v351h70v-291l108 82v-77l-108 -84v-263h347v-67h-417z" />
    <glyph glyph-name="lslash" unicode="&#x142;" horiz-adv-x="261" 
d="M96 0v276l-66 -52v59l66 52v353l70 34v-335l65 50v-59l-65 -50v-328h-70z" />
    <glyph glyph-name="Nacute" unicode="&#x143;" horiz-adv-x="705" 
d="M261 766l142 156h107l-178 -156h-71zM600 0h-71l-326 524l-28 47v-47v-524h-70v700h71l325 -530l29 -49v49v530h70v-700z" />
    <glyph glyph-name="nacute" unicode="&#x144;" 
d="M185 576l142 156h107l-178 -156h-71zM405 0v312q0 77 -32 112.5t-87 35.5q-126 0 -126 -146v-314h-70v511h70v-56q47 68 132 68q94 0 138.5 -57t44.5 -183v-283h-70z" />
    <glyph glyph-name="Ncommaaccent" unicode="&#x145;" horiz-adv-x="705" 
d="M600 0h-71l-326 524l-28 47v-47v-524h-70v700h71l325 -530l29 -49v49v530h70v-700zM316 -239q34 27 39 74q-27 0 -40.5 15.5t-13.5 38.5t16 38t36 15q21 0 37.5 -16.5t16.5 -42.5q0 -83 -73 -127z" />
    <glyph glyph-name="ncommaaccent" unicode="&#x146;" 
d="M405 0v312q0 77 -32 112.5t-87 35.5q-126 0 -126 -146v-314h-70v511h70v-56q47 68 132 68q94 0 138.5 -57t44.5 -183v-283h-70zM243 -239q34 27 39 74q-27 0 -40.5 15.5t-13.5 38.5t16 38t36 15q21 0 37.5 -16.5t16.5 -42.5q0 -83 -73 -127z" />
    <glyph glyph-name="Ncaron" unicode="&#x147;" horiz-adv-x="705" 
d="M383 765h-60l-151 156h65l116 -101l116 101h65zM600 0h-71l-326 524l-28 47v-47v-524h-70v700h71l325 -530l29 -49v49v530h70v-700z" />
    <glyph glyph-name="ncaron" unicode="&#x148;" 
d="M316 576h-60l-151 156h65l116 -101l116 101h65zM405 0v312q0 77 -32 112.5t-87 35.5q-126 0 -126 -146v-314h-70v511h70v-56q47 68 132 68q94 0 138.5 -57t44.5 -183v-283h-70z" />
    <glyph glyph-name="napostrophe" unicode="&#x149;" horiz-adv-x="756" 
d="M73 467q18 16 34 47t16 70q-32 0 -52.5 17.5t-20.5 44.5q0 30 17.5 48t43.5 18q29 0 50.5 -21.5t21.5 -62.5q0 -55 -25 -98t-66 -68zM601 0v312q0 77 -32 112.5t-87 35.5q-126 0 -126 -146v-314h-70v511h70v-56q47 68 132 68q94 0 138.5 -57t44.5 -183v-283h-70z" />
    <glyph glyph-name="Eng" unicode="&#x14a;" horiz-adv-x="705" 
d="M439 -244l-32 55q67 6 95 43t28 86v59l-327 525l-28 47v-47v-524h-70v700h71l325 -530l29 -49v49v530h70v-746q0 -105 -58 -156q-38 -33 -103 -42z" />
    <glyph glyph-name="eng" unicode="&#x14b;" 
d="M315 -213l-32 55q122 11 122 98v372q0 77 -32 112.5t-86 35.5q-127 0 -127 -146v-314h-70v511h70v-56q47 68 133 68q94 0 138 -57t44 -183v-315q0 -73 -30 -117q-41 -59 -130 -64z" />
    <glyph glyph-name="Omacron" unicode="&#x14c;" horiz-adv-x="720" 
d="M193 798v61h330v-61h-330zM360 -12q-78 0 -136 31.5t-90.5 85t-48 115t-15.5 130.5t15.5 130.5t48 115t90.5 85t136 31.5t136 -31.5t90.5 -85t48 -115t15.5 -130.5t-15.5 -130.5t-48 -115t-90.5 -85t-136 -31.5zM360 51q58 0 101.5 26.5t68 71t36 95.5t11.5 106
q0 81 -19.5 145.5t-70 109t-127.5 44.5q-58 0 -101.5 -26.5t-68 -71t-36 -95.5t-11.5 -106q0 -81 19.5 -145.5t70 -109t127.5 -44.5z" />
    <glyph glyph-name="omacron" unicode="&#x14d;" horiz-adv-x="548" 
d="M107 609v61h330v-61h-330zM274 -12q-100 0 -159.5 70.5t-59.5 196.5q0 125 60 196.5t159 71.5q100 0 159.5 -70.5t59.5 -196.5q0 -125 -60 -196.5t-159 -71.5zM274 51q69 0 107.5 54.5t38.5 150.5t-37.5 150t-108.5 54t-108.5 -52.5t-37.5 -152.5q0 -96 37.5 -150
t108.5 -54z" />
    <glyph glyph-name="Obreve" unicode="&#x14e;" horiz-adv-x="720" 
d="M359 770q-89 0 -134 45t-45 116h68q0 -46 31.5 -72.5t79.5 -26.5t79.5 26.5t31.5 72.5h68q0 -71 -45 -116t-134 -45zM360 -12q-78 0 -136 31.5t-90.5 85t-48 115t-15.5 130.5t15.5 130.5t48 115t90.5 85t136 31.5t136 -31.5t90.5 -85t48 -115t15.5 -130.5t-15.5 -130.5
t-48 -115t-90.5 -85t-136 -31.5zM360 51q58 0 101.5 26.5t68 71t36 95.5t11.5 106q0 81 -19.5 145.5t-70 109t-127.5 44.5q-58 0 -101.5 -26.5t-68 -71t-36 -95.5t-11.5 -106q0 -81 19.5 -145.5t70 -109t127.5 -44.5z" />
    <glyph glyph-name="obreve" unicode="&#x14f;" horiz-adv-x="548" 
d="M273 581q-89 0 -134 45t-45 116h68q0 -46 31.5 -72.5t79.5 -26.5t79.5 26.5t31.5 72.5h68q0 -71 -45 -116t-134 -45zM274 -12q-100 0 -159.5 70.5t-59.5 196.5q0 125 60 196.5t159 71.5q100 0 159.5 -70.5t59.5 -196.5q0 -125 -60 -196.5t-159 -71.5zM274 51
q69 0 107.5 54.5t38.5 150.5t-37.5 150t-108.5 54t-108.5 -52.5t-37.5 -152.5q0 -96 37.5 -150t108.5 -54z" />
    <glyph glyph-name="Ohungarumlaut" unicode="&#x150;" horiz-adv-x="720" 
d="M261 765h-71l142 156h107zM459 765h-71l142 156h107zM360 -12q-78 0 -136 31.5t-90.5 85t-48 115t-15.5 130.5t15.5 130.5t48 115t90.5 85t136 31.5t136 -31.5t90.5 -85t48 -115t15.5 -130.5t-15.5 -130.5t-48 -115t-90.5 -85t-136 -31.5zM360 51q58 0 101.5 26.5t68 71
t36 95.5t11.5 106q0 81 -19.5 145.5t-70 109t-127.5 44.5q-58 0 -101.5 -26.5t-68 -71t-36 -95.5t-11.5 -106q0 -81 19.5 -145.5t70 -109t127.5 -44.5z" />
    <glyph glyph-name="ohungarumlaut" unicode="&#x151;" horiz-adv-x="548" 
d="M175 576h-71l142 156h107zM373 576h-71l142 156h107zM274 -12q-100 0 -159.5 70.5t-59.5 196.5q0 125 60 196.5t159 71.5q100 0 159.5 -70.5t59.5 -196.5q0 -125 -60 -196.5t-159 -71.5zM274 51q69 0 107.5 54.5t38.5 150.5t-37.5 150t-108.5 54t-108.5 -52.5
t-37.5 -152.5q0 -96 37.5 -150t108.5 -54z" />
    <glyph glyph-name="OE" unicode="&#x152;" horiz-adv-x="909" 
d="M475 0v11q-49 -23 -115 -23q-78 0 -136 31.5t-90.5 84.5t-48 115t-15.5 131q0 55 9.5 105.5t31 98t54 82t83 55.5t112.5 21q67 0 115 -23v11h342v-67h-272v-238h165v-66h-165v-262h294v-67h-364zM360 51q62 0 115 34v531q-48 33 -115 33q-58 0 -101.5 -26.5t-68 -71
t-36 -95.5t-11.5 -106q0 -82 19.5 -146.5t70 -108.5t127.5 -44z" />
    <glyph glyph-name="oe" unicode="&#x153;" horiz-adv-x="894" 
d="M275 -12q-101 0 -160.5 70.5t-59.5 196.5q0 125 59.5 196.5t160.5 71.5q120 0 183 -106q58 106 183 106q89 0 146 -62.5t57 -184.5q0 -27 -2 -49h-348q9 -80 48 -127t102 -47q62 0 116 40l38 -47q-71 -58 -157 -58q-120 0 -181 112q-59 -112 -185 -112zM275 51
q69 0 107 54.5t38 150.5t-37.5 150t-107.5 54q-72 0 -109.5 -52.5t-37.5 -152.5q0 -96 38 -150t109 -54zM492 290h281q-1 93 -40.5 131.5t-91.5 38.5q-64 0 -104.5 -43t-44.5 -127z" />
    <glyph glyph-name="Racute" unicode="&#x154;" horiz-adv-x="653" 
d="M218 765l142 156h107l-178 -156h-71zM105 0v700h257q114 0 165 -55.5t51 -136.5q0 -71 -42 -124.5t-131 -67.5l155 -316h-77l-150 313h-158v-313h-70zM175 376h189q76 0 111.5 37.5t35.5 91.5q0 51 -34.5 91.5t-112.5 40.5h-189v-261z" />
    <glyph glyph-name="racute" unicode="&#x155;" horiz-adv-x="381" 
d="M129 576l142 156h107l-178 -156h-71zM90 0v511h70v-72q39 84 129 84q43 0 72 -21l-11 -68q-31 19 -66 19q-47 0 -85.5 -39.5t-38.5 -124.5v-289h-70z" />
    <glyph glyph-name="Rcommaaccent" unicode="&#x156;" horiz-adv-x="653" 
d="M105 0v700h257q114 0 165 -55.5t51 -136.5q0 -71 -42 -124.5t-131 -67.5l155 -316h-77l-150 313h-158v-313h-70zM175 376h189q76 0 111.5 37.5t35.5 91.5q0 51 -34.5 91.5t-112.5 40.5h-189v-261zM292 -239q34 27 39 74q-27 0 -40.5 15.5t-13.5 38.5t16 38t36 15
q21 0 37.5 -16.5t16.5 -42.5q0 -83 -73 -127z" />
    <glyph glyph-name="rcommaaccent" unicode="&#x157;" horiz-adv-x="381" 
d="M90 0v511h70v-72q39 84 129 84q43 0 72 -21l-11 -68q-31 19 -66 19q-47 0 -85.5 -39.5t-38.5 -124.5v-289h-70zM90 -259q34 27 39 74q-27 0 -40.5 15.5t-13.5 38.5t16 38t36 15q21 0 37.5 -16.5t16.5 -42.5q0 -83 -73 -127z" />
    <glyph glyph-name="Rcaron" unicode="&#x158;" horiz-adv-x="653" 
d="M349 765h-60l-151 156h65l116 -101l116 101h65zM105 0v700h257q114 0 165 -55.5t51 -136.5q0 -71 -42 -124.5t-131 -67.5l155 -316h-77l-150 313h-158v-313h-70zM175 376h189q76 0 111.5 37.5t35.5 91.5q0 51 -34.5 91.5t-112.5 40.5h-189v-261z" />
    <glyph glyph-name="rcaron" unicode="&#x159;" horiz-adv-x="381" 
d="M260 576h-60l-151 156h65l116 -101l116 101h65zM90 0v511h70v-72q39 84 129 84q43 0 72 -21l-11 -68q-31 19 -66 19q-47 0 -85.5 -39.5t-38.5 -124.5v-289h-70z" />
    <glyph glyph-name="Sacute" unicode="&#x15a;" horiz-adv-x="594" 
d="M210 765l142 156h107l-178 -156h-71zM298 -12q-85 0 -148 41t-85 101l66 24q22 -47 66 -75t102 -28q69 0 108.5 33.5t39.5 95.5q0 59 -43 97.5t-115 65.5q-43 16 -74.5 32t-64 40.5t-49.5 58.5t-17 75q0 69 56 116t150 47q76 0 128 -31t67 -80l-65 -22q-14 30 -48.5 50
t-84.5 20q-61 0 -96 -27t-35 -72q0 -27 12.5 -48t38 -38t49 -28t61.5 -26q41 -16 72.5 -33.5t63 -44.5t49 -65t17.5 -85q0 -91 -61 -142.5t-160 -51.5z" />
    <glyph glyph-name="sacute" unicode="&#x15b;" horiz-adv-x="463" 
d="M148 576l142 156h107l-178 -156h-71zM234 -12q-101 0 -176 89l49 43q59 -70 133 -70q44 0 72 19.5t28 54.5q0 22 -10 39.5t-31.5 32t-38.5 22.5t-47 20q-36 15 -59 27t-47 30t-35.5 42.5t-11.5 55.5q0 58 46 94t119 36q101 0 166 -78l-46 -39q-55 55 -122 55
q-44 0 -70.5 -18t-26.5 -49q0 -15 7 -28t16 -21.5t28 -19t30 -15l36 -14.5q30 -12 47 -19.5t42.5 -23t39 -31t24 -40t10.5 -54.5q0 -64 -46.5 -102t-125.5 -38z" />
    <glyph glyph-name="Scircumflex" unicode="&#x15c;" horiz-adv-x="594" 
d="M407 765l-116 101l-116 -101h-65l151 156h60l151 -156h-65zM298 -12q-85 0 -148 41t-85 101l66 24q22 -47 66 -75t102 -28q69 0 108.5 33.5t39.5 95.5q0 59 -43 97.5t-115 65.5q-43 16 -74.5 32t-64 40.5t-49.5 58.5t-17 75q0 69 56 116t150 47q76 0 128 -31t67 -80
l-65 -22q-14 30 -48.5 50t-84.5 20q-61 0 -96 -27t-35 -72q0 -27 12.5 -48t38 -38t49 -28t61.5 -26q41 -16 72.5 -33.5t63 -44.5t49 -65t17.5 -85q0 -91 -61 -142.5t-160 -51.5z" />
    <glyph glyph-name="scircumflex" unicode="&#x15d;" horiz-adv-x="463" 
d="M342 576l-116 101l-116 -101h-65l151 156h60l151 -156h-65zM234 -12q-101 0 -176 89l49 43q59 -70 133 -70q44 0 72 19.5t28 54.5q0 22 -10 39.5t-31.5 32t-38.5 22.5t-47 20q-36 15 -59 27t-47 30t-35.5 42.5t-11.5 55.5q0 58 46 94t119 36q101 0 166 -78l-46 -39
q-55 55 -122 55q-44 0 -70.5 -18t-26.5 -49q0 -15 7 -28t16 -21.5t28 -19t30 -15l36 -14.5q30 -12 47 -19.5t42.5 -23t39 -31t24 -40t10.5 -54.5q0 -64 -46.5 -102t-125.5 -38z" />
    <glyph glyph-name="Scedilla" unicode="&#x15e;" horiz-adv-x="594" 
d="M293 -234q-55 0 -88 28l46 30q8 -10 36 -10q21 0 37 15t16 36q0 19 -19 33.5t-42 14.5q-25 0 -36 -5l-12 15l51 66q-80 4 -138.5 44t-78.5 97l66 24q21 -47 65 -74t103 -27q69 0 108 32.5t39 94.5q0 104 -157 163q-44 17 -74.5 32t-63.5 39.5t-50 58.5t-17 76
q0 69 56 116t150 47q76 0 128 -31t67 -80l-65 -22q-14 30 -48.5 49t-84.5 19q-61 0 -95.5 -26t-34.5 -71q0 -49 41.5 -79.5t118.5 -60.5q42 -16 73 -33t63 -44t49 -65.5t17 -85.5q0 -84 -52 -134.5t-140 -58.5l-26 -44q54 0 79.5 -24t25.5 -57q0 -43 -32 -70.5t-81 -27.5z
" />
    <glyph glyph-name="scedilla" unicode="&#x15f;" horiz-adv-x="463" 
d="M214 -234q-55 0 -88 28l46 30q8 -10 36 -10q21 0 37 15t16 36q0 19 -19 33.5t-42 14.5q-25 0 -36 -5l-12 15l52 68q-85 13 -146 86l49 43q59 -70 133 -70q44 0 72 19.5t28 54.5q0 22 -10 39.5t-31.5 32t-38.5 22.5t-47 20q-36 15 -59 27t-47 30t-35.5 42.5t-11.5 55.5
q0 58 46 94t119 36q101 0 166 -78l-46 -39q-55 55 -122 55q-44 0 -70.5 -18t-26.5 -49q0 -15 7 -28t16 -21.5t28 -19t30 -15l36 -14.5q30 -12 47 -19.5t42.5 -23t39 -31t24 -40t10.5 -54.5q0 -61 -42.5 -98.5t-115.5 -40.5l-26 -44q54 0 79.5 -24t25.5 -57q0 -43 -32 -70.5
t-81 -27.5z" />
    <glyph glyph-name="Scaron" unicode="&#x160;" horiz-adv-x="594" 
d="M321 765h-60l-151 156h65l116 -101l116 101h65zM298 -12q-85 0 -148 41t-85 101l66 24q22 -47 66 -75t102 -28q69 0 108.5 33.5t39.5 95.5q0 59 -43 97.5t-115 65.5q-43 16 -74.5 32t-64 40.5t-49.5 58.5t-17 75q0 69 56 116t150 47q76 0 128 -31t67 -80l-65 -22
q-14 30 -48.5 50t-84.5 20q-61 0 -96 -27t-35 -72q0 -27 12.5 -48t38 -38t49 -28t61.5 -26q41 -16 72.5 -33.5t63 -44.5t49 -65t17.5 -85q0 -91 -61 -142.5t-160 -51.5z" />
    <glyph glyph-name="scaron" unicode="&#x161;" horiz-adv-x="463" 
d="M256 576h-60l-151 156h65l116 -101l116 101h65zM234 -12q-101 0 -176 89l49 43q59 -70 133 -70q44 0 72 19.5t28 54.5q0 22 -10 39.5t-31.5 32t-38.5 22.5t-47 20q-36 15 -59 27t-47 30t-35.5 42.5t-11.5 55.5q0 58 46 94t119 36q101 0 166 -78l-46 -39q-55 55 -122 55
q-44 0 -70.5 -18t-26.5 -49q0 -15 7 -28t16 -21.5t28 -19t30 -15l36 -14.5q30 -12 47 -19.5t42.5 -23t39 -31t24 -40t10.5 -54.5q0 -64 -46.5 -102t-125.5 -38z" />
    <glyph glyph-name="uni0162" unicode="&#x162;" horiz-adv-x="575" 
d="M266 -234q-55 0 -88 28l46 30q8 -10 36 -10q21 0 37 15t16 36q0 19 -19 33.5t-42 14.5q-25 0 -36 -5l-12 15l62 77h-14v635h-192v65h455v-65h-193v-635h-14l-34 -55q54 0 79.5 -24t25.5 -57q0 -43 -32 -70.5t-81 -27.5z" />
    <glyph glyph-name="uni0163" unicode="&#x163;" horiz-adv-x="369" 
d="M173 -234q-55 0 -88 28l46 30q8 -10 36 -10q21 0 37 15t16 36q0 19 -19 33.5t-42 14.5q-25 0 -36 -5l-12 15l58 75q-52 25 -52 107v343h-87v63h87v176l70 35v-211h130v-63h-130v-313q0 -39 11 -60t44 -21t77 30l-8 -73q-43 -23 -93 -23q-8 0 -11 1l-26 -44q54 0 79.5 -24
t25.5 -57q0 -43 -32 -70.5t-81 -27.5z" />
    <glyph glyph-name="Tcaron" unicode="&#x164;" horiz-adv-x="575" 
d="M318 765h-60l-151 156h65l116 -101l116 101h65zM322 633v-633h-70v633h-192v67h455v-67h-193z" />
    <glyph glyph-name="tcaron" unicode="&#x165;" horiz-adv-x="389" 
d="M376 840v-8q0 -141 -80 -220l-20 14q13 28 21.5 92t8.5 122h70zM218 -12q-101 0 -101 117v343h-87v63h87v176l70 35v-211h130v-63h-130v-313q0 -39 11 -60t44 -21t77 30l-8 -73q-43 -23 -93 -23z" />
    <glyph glyph-name="Tbar" unicode="&#x166;" horiz-adv-x="575" 
d="M515 633h-193v-283h128v-67h-128v-283h-70v283h-129v67h129v283h-192v67h455v-67z" />
    <glyph glyph-name="tbar" unicode="&#x167;" horiz-adv-x="399" 
d="M238 -12q-101 0 -101 117v133h-87v63h87v147h-87v63h87v176l70 35v-211h130v-63h-130v-147h130v-63h-130v-103q0 -39 11 -60t44 -21t77 30l-8 -73q-43 -23 -93 -23z" />
    <glyph glyph-name="Utilde" unicode="&#x168;" horiz-adv-x="680" 
d="M418 791q-38 0 -90.5 25t-74.5 25q-19 0 -32.5 -12t-14.5 -34h-39q0 110 93 110q38 0 90.5 -25.5t74.5 -25.5q19 0 32.5 12.5t14.5 34.5h38q0 -110 -92 -110zM340 -12q-240 0 -240 272v440h70v-440q0 -209 170 -209t170 209v440h70v-440q0 -272 -240 -272z" />
    <glyph glyph-name="utilde" unicode="&#x169;" 
d="M357 602q-38 0 -90.5 25t-74.5 25q-19 0 -32.5 -12t-14.5 -34h-39q0 110 93 110q38 0 90.5 -25.5t74.5 -25.5q19 0 32.5 12.5t14.5 34.5h38q0 -110 -92 -110zM400 0v49q-26 -34 -55.5 -47.5t-71.5 -13.5q-99 0 -143.5 56t-44.5 182v285h70v-312q0 -76 32 -112t86 -36
q127 0 127 146v314h70v-511h-70z" />
    <glyph glyph-name="Umacron" unicode="&#x16a;" horiz-adv-x="680" 
d="M173 798v61h330v-61h-330zM340 -12q-240 0 -240 272v440h70v-440q0 -209 170 -209t170 209v440h70v-440q0 -272 -240 -272z" />
    <glyph glyph-name="umacron" unicode="&#x16b;" 
d="M112 609v61h330v-61h-330zM400 0v49q-26 -34 -55.5 -47.5t-71.5 -13.5q-99 0 -143.5 56t-44.5 182v285h70v-312q0 -76 32 -112t86 -36q127 0 127 146v314h70v-511h-70z" />
    <glyph glyph-name="Ubreve" unicode="&#x16c;" horiz-adv-x="680" 
d="M339 770q-89 0 -134 45t-45 116h68q0 -46 31.5 -72.5t79.5 -26.5t79.5 26.5t31.5 72.5h68q0 -71 -45 -116t-134 -45zM340 -12q-240 0 -240 272v440h70v-440q0 -209 170 -209t170 209v440h70v-440q0 -272 -240 -272z" />
    <glyph glyph-name="ubreve" unicode="&#x16d;" 
d="M277 581q-89 0 -134 45t-45 116h68q0 -46 31.5 -72.5t79.5 -26.5t79.5 26.5t31.5 72.5h68q0 -71 -45 -116t-134 -45zM400 0v49q-26 -34 -55.5 -47.5t-71.5 -13.5q-99 0 -143.5 56t-44.5 182v285h70v-312q0 -76 32 -112t86 -36q127 0 127 146v314h70v-511h-70z" />
    <glyph glyph-name="Uring" unicode="&#x16e;" horiz-adv-x="680" 
d="M340 729q-47 0 -81 34t-34 80t34 78.5t81 32.5t81 -32.5t34 -78.5t-34 -80t-81 -34zM340 781q24 0 40 17.5t16 44.5t-16 43t-40 16q-23 0 -39.5 -16.5t-16.5 -42.5q0 -27 16.5 -44.5t39.5 -17.5zM340 -12q-240 0 -240 272v440h70v-440q0 -209 170 -209t170 209v440h70
v-440q0 -272 -240 -272z" />
    <glyph glyph-name="uring" unicode="&#x16f;" 
d="M277 540q-47 0 -81 34t-34 80t34 78.5t81 32.5t81 -32.5t34 -78.5t-34 -80t-81 -34zM277 592q24 0 40 17.5t16 44.5t-16 43t-40 16q-23 0 -39.5 -16.5t-16.5 -42.5q0 -27 16.5 -44.5t39.5 -17.5zM400 0v49q-26 -34 -55.5 -47.5t-71.5 -13.5q-99 0 -143.5 56t-44.5 182
v285h70v-312q0 -76 32 -112t86 -36q127 0 127 146v314h70v-511h-70z" />
    <glyph glyph-name="Uhungarumlaut" unicode="&#x170;" horiz-adv-x="680" 
d="M251 765h-71l142 156h107zM449 765h-71l142 156h107zM340 -12q-240 0 -240 272v440h70v-440q0 -209 170 -209t170 209v440h70v-440q0 -272 -240 -272z" />
    <glyph glyph-name="uhungarumlaut" unicode="&#x171;" 
d="M181 576h-71l142 156h107zM379 576h-71l142 156h107zM400 0v49q-26 -34 -55.5 -47.5t-71.5 -13.5q-99 0 -143.5 56t-44.5 182v285h70v-312q0 -76 32 -112t86 -36q127 0 127 146v314h70v-511h-70z" />
    <glyph glyph-name="Uogonek" unicode="&#x172;" horiz-adv-x="680" 
d="M366 -234q-46 0 -77.5 25.5t-31.5 72.5q0 76 86 124h-8q-116 2 -175.5 67t-59.5 205v440h70v-440q0 -115 46 -162t127 -47q167 0 167 209v440h70v-440q0 -109 -33 -167.5t-95 -86.5q-70 -32 -102 -61.5t-32 -71.5q0 -29 16 -43t38 -14q30 0 55 23l39 -29
q-40 -44 -100 -44z" />
    <glyph glyph-name="uogonek" unicode="&#x173;" 
d="M393 -234q-46 0 -77.5 25.5t-31.5 72.5q0 91 116 136v49q-26 -34 -55.5 -47.5t-71.5 -13.5q-99 0 -143.5 56t-44.5 182v285h70v-312q0 -76 32 -112t86 -36q127 0 127 146v314h70v-511q-63 -19 -94 -53t-31 -74q0 -29 16 -43t38 -14q30 0 55 23l39 -29q-40 -44 -100 -44z
" />
    <glyph glyph-name="Wcircumflex" unicode="&#x174;" horiz-adv-x="827" 
d="M530 765l-116 101l-116 -101h-65l151 156h60l151 -156h-65zM190 0l-135 700h74l85 -481l12 -70q3 12 19 68l138 483h52l136 -483q10 -36 15 -56l12 59l101 480h73l-152 -700h-44l-150 502q-12 40 -18 62q-6 -22 -18 -62l-152 -502h-48z" />
    <glyph glyph-name="wcircumflex" unicode="&#x175;" horiz-adv-x="704" 
d="M468 576l-116 101l-116 -101h-65l151 156h60l151 -156h-65zM166 0l-126 511h70l84 -368l12 -56l8 30.5t7 25.5l107 368h48l107 -368l9 -32t8 -29q2 11 6.5 31.5l6.5 29.5l81 368h70l-126 -511h-63l-102 309l-9 28l-13 41q-5 -15 -21 -68l-100 -310h-64z" />
    <glyph glyph-name="Ycircumflex" unicode="&#x176;" horiz-adv-x="616" 
d="M424 765l-116 101l-116 -101h-65l151 156h60l151 -156h-65zM274 0v275l-229 425h77l186 -360l191 360h72l-227 -422v-278h-70z" />
    <glyph glyph-name="ycircumflex" unicode="&#x177;" horiz-adv-x="521" 
d="M373 576l-116 101l-116 -101h-65l151 156h60l151 -156h-65zM151 -194l76 210l-187 495h71l129 -363q3 -10 9 -28l8 -24l18 52l131 363h75l-261 -705h-69z" />
    <glyph glyph-name="Ydieresis" unicode="&#x178;" horiz-adv-x="616" 
d="M225 795q-19 0 -33 13.5t-14 33.5t13.5 33.5t33.5 13.5t33.5 -13.5t13.5 -33.5t-13.5 -33.5t-33.5 -13.5zM391 795q-19 0 -33 13.5t-14 33.5t13.5 33.5t33.5 13.5t33.5 -13.5t13.5 -33.5t-13.5 -33.5t-33.5 -13.5zM274 0v275l-229 425h77l186 -360l191 360h72l-227 -422
v-278h-70z" />
    <glyph glyph-name="Zacute" unicode="&#x179;" horiz-adv-x="637" 
d="M249 765l142 156h107l-178 -156h-71zM70 0v49l408 585h-385v66h474v-51l-403 -583h403v-66h-497z" />
    <glyph glyph-name="zacute" unicode="&#x17a;" horiz-adv-x="499" 
d="M169 576l142 156h107l-178 -156h-71zM70 0v43l261 405h-241v63h334v-42l-263 -406h262v-63h-353z" />
    <glyph glyph-name="Zdotaccent" unicode="&#x17b;" horiz-adv-x="637" 
d="M329 795q-19 0 -33 13.5t-14 33.5t13.5 33.5t33.5 13.5t33.5 -13.5t13.5 -33.5t-13.5 -33.5t-33.5 -13.5zM70 0v49l408 585h-385v66h474v-51l-403 -583h403v-66h-497z" />
    <glyph glyph-name="zdotaccent" unicode="&#x17c;" horiz-adv-x="499" 
d="M260 606q-20 0 -33.5 14t-13.5 33q0 20 13.5 33.5t33.5 13.5t33.5 -13.5t13.5 -33.5t-13.5 -33.5t-33.5 -13.5zM70 0v43l261 405h-241v63h334v-42l-263 -406h262v-63h-353z" />
    <glyph glyph-name="Zcaron" unicode="&#x17d;" horiz-adv-x="637" 
d="M370 765h-60l-151 156h65l116 -101l116 101h65zM70 0v49l408 585h-385v66h474v-51l-403 -583h403v-66h-497z" />
    <glyph glyph-name="zcaron" unicode="&#x17e;" horiz-adv-x="499" 
d="M290 576h-60l-151 156h65l116 -101l116 101h65zM70 0v43l261 405h-241v63h334v-42l-263 -406h262v-63h-353z" />
    <glyph glyph-name="longs" unicode="&#x17f;" horiz-adv-x="308" 
d="M95 0v598q0 59 30.5 86.5t75.5 27.5t87 -24v-61q-35 20 -73 20q-31 0 -40.5 -15t-9.5 -45v-587h-70z" />
    <glyph glyph-name="florin" unicode="&#x192;" horiz-adv-x="368" 
d="M50 -213l-32 55q122 11 122 98v508h-82v63h82v87q0 58 30.5 86t75.5 28t87 -24v-61q-38 20 -73 20q-32 0 -41 -15.5t-9 -44.5v-76h123v-63h-123v-480q0 -171 -160 -181z" />
    <glyph glyph-name="uni01CD" unicode="&#x1cd;" horiz-adv-x="662" 
d="M361 765h-60l-151 156h65l116 -101l116 101h65zM531 0l-64 181h-273l-61 -181h-73l243 700h54l245 -700h-71zM446 243l-96 280q-16 45 -20 63l-8 -26q-7 -27 -11 -37l-96 -280h231z" />
    <glyph glyph-name="uni01CE" unicode="&#x1ce;" horiz-adv-x="519" 
d="M310 576h-60l-151 156h65l116 -101l116 101h65zM384 0v50q-69 -62 -150 -62q-80 0 -127 44.5t-47 128.5q0 83 53.5 126t132.5 43q71 0 138 -36v43q0 125 -112 125q-72 0 -152 -55l-20 60q88 56 179 56q31 0 58 -7.5t53.5 -26t42.5 -55t16 -88.5v-346h-65zM241 49
q79 0 143 79v99q-63 42 -131 42q-55 0 -91.5 -27.5t-36.5 -80.5q0 -51 30.5 -81.5t85.5 -30.5z" />
    <glyph glyph-name="uni01CF" unicode="&#x1cf;" horiz-adv-x="280" 
d="M170 765h-60l-151 156h65l116 -101l116 101h65zM105 0v700h70v-700h-70z" />
    <glyph glyph-name="uni01D0" unicode="&#x1d0;" horiz-adv-x="252" 
d="M156 576h-60l-151 156h65l116 -101l116 101h65zM91 0v511h70v-511h-70z" />
    <glyph glyph-name="uni01D1" unicode="&#x1d1;" horiz-adv-x="720" 
d="M390 765h-60l-151 156h65l116 -101l116 101h65zM360 -12q-78 0 -136 31.5t-90.5 85t-48 115t-15.5 130.5t15.5 130.5t48 115t90.5 85t136 31.5t136 -31.5t90.5 -85t48 -115t15.5 -130.5t-15.5 -130.5t-48 -115t-90.5 -85t-136 -31.5zM360 51q58 0 101.5 26.5t68 71
t36 95.5t11.5 106q0 81 -19.5 145.5t-70 109t-127.5 44.5q-58 0 -101.5 -26.5t-68 -71t-36 -95.5t-11.5 -106q0 -81 19.5 -145.5t70 -109t127.5 -44.5z" />
    <glyph glyph-name="uni01D2" unicode="&#x1d2;" horiz-adv-x="548" 
d="M304 576h-60l-151 156h65l116 -101l116 101h65zM274 -12q-100 0 -159.5 70.5t-59.5 196.5q0 125 60 196.5t159 71.5q100 0 159.5 -70.5t59.5 -196.5q0 -125 -60 -196.5t-159 -71.5zM274 51q69 0 107.5 54.5t38.5 150.5t-37.5 150t-108.5 54t-108.5 -52.5t-37.5 -152.5
q0 -96 37.5 -150t108.5 -54z" />
    <glyph glyph-name="uni01D3" unicode="&#x1d3;" horiz-adv-x="680" 
d="M370 765h-60l-151 156h65l116 -101l116 101h65zM340 -12q-240 0 -240 272v440h70v-440q0 -209 170 -209t170 209v440h70v-440q0 -272 -240 -272z" />
    <glyph glyph-name="uni01D4" unicode="&#x1d4;" 
d="M303 576h-60l-151 156h65l116 -101l116 101h65zM400 0v49q-26 -34 -55.5 -47.5t-71.5 -13.5q-99 0 -143.5 56t-44.5 182v285h70v-312q0 -76 32 -112t86 -36q127 0 127 146v314h70v-511h-70z" />
    <glyph glyph-name="AEacute" unicode="&#x1fc;" horiz-adv-x="859" 
d="M393 765l142 156h107l-178 -156h-71zM-16 0l407 700h376v-67h-272v-238h185v-66h-185v-262h294v-67h-364v181h-259l-103 -181h-79zM201 243h224v399q-6 -12 -31 -57z" />
    <glyph glyph-name="aeacute" unicode="&#x1fd;" horiz-adv-x="856" 
d="M349 576l142 156h107l-178 -156h-71zM234 -12q-80 0 -127 44.5t-47 128.5q0 83 53 126t133 43q71 0 138 -36v43q0 125 -112 125q-72 0 -152 -55l-20 60q88 56 179 56q115 0 152 -86q62 86 172 86q92 0 147.5 -64.5t55.5 -182.5q0 -27 -2 -49h-348q10 -83 49.5 -128.5
t100.5 -45.5q62 0 116 40l38 -47q-72 -58 -157 -58q-61 0 -108 31t-73 78q-34 -54 -86.5 -81.5t-101.5 -27.5zM454 290h281q0 49 -12.5 84.5t-33.5 53t-42 25t-43 7.5q-64 0 -105 -43t-45 -127zM241 49q47 0 90 29.5t68 71.5q-12 34 -15 77q-66 42 -131 42
q-55 0 -91.5 -27.5t-36.5 -80.5q0 -51 30.5 -81.5t85.5 -30.5z" />
    <glyph glyph-name="Oslashacute" unicode="&#x1fe;" horiz-adv-x="720" 
d="M260 765l142 156h107l-178 -156h-71zM82 -12l65 98q-77 98 -77 264q0 69 15.5 130.5t48 115t90.5 85t136 31.5q99 0 168 -54l36 54h74l-65 -98q77 -98 77 -264q0 -69 -15.5 -130.5t-48 -115t-90.5 -85t-136 -31.5q-100 0 -170 54l-36 -54h-72zM188 148l303 454
q-53 47 -131 47q-58 0 -101.5 -26.5t-68 -71t-36 -95.5t-11.5 -106q0 -125 45 -202zM360 51q58 0 101.5 26.5t68 71t36 95.5t11.5 106q0 125 -46 202l-303 -454q52 -47 132 -47z" />
    <glyph glyph-name="oslashacute" unicode="&#x1ff;" horiz-adv-x="548" 
d="M423 732l-178 -156h-71l142 156h107zM438 446q55 -71 55 -190q0 -125 -60 -196.5t-159 -71.5q-72 0 -127 39l-27 -39h-65l54 78q-54 71 -54 189q0 125 60 196.5t159 71.5q73 0 125 -38l27 38h66zM128 255q0 -77 24 -127l209 302q-36 30 -87 30q-71 0 -108.5 -52.5
t-37.5 -152.5zM274 51q69 0 107.5 54.5t38.5 150.5q0 79 -25 128l-209 -302q36 -31 88 -31z" />
    <glyph glyph-name="Scommaaccent" unicode="&#x218;" horiz-adv-x="594" 
d="M298 -12q-85 0 -148 41t-85 101l66 24q22 -47 66 -75t102 -28q69 0 108.5 33.5t39.5 95.5q0 59 -43 97.5t-115 65.5q-43 16 -74.5 32t-64 40.5t-49.5 58.5t-17 75q0 69 56 116t150 47q76 0 128 -31t67 -80l-65 -22q-14 30 -48.5 50t-84.5 20q-61 0 -96 -27t-35 -72
q0 -27 12.5 -48t38 -38t49 -28t61.5 -26q41 -16 72.5 -33.5t63 -44.5t49 -65t17.5 -85q0 -91 -61 -142.5t-160 -51.5zM260 -239q34 27 39 74q-27 0 -40.5 15.5t-13.5 38.5t16 38t36 15q21 0 37.5 -16.5t16.5 -42.5q0 -83 -73 -127z" />
    <glyph glyph-name="scommaaccent" unicode="&#x219;" horiz-adv-x="463" 
d="M234 -12q-101 0 -176 89l49 43q59 -70 133 -70q44 0 72 19.5t28 54.5q0 22 -10 39.5t-31.5 32t-38.5 22.5t-47 20q-36 15 -59 27t-47 30t-35.5 42.5t-11.5 55.5q0 58 46 94t119 36q101 0 166 -78l-46 -39q-55 55 -122 55q-44 0 -70.5 -18t-26.5 -49q0 -15 7 -28t16 -21.5
t28 -19t30 -15l36 -14.5q30 -12 47 -19.5t42.5 -23t39 -31t24 -40t10.5 -54.5q0 -64 -46.5 -102t-125.5 -38zM196 -239q34 27 39 74q-27 0 -40.5 15.5t-13.5 38.5t16 38t36 15q21 0 37.5 -16.5t16.5 -42.5q0 -83 -73 -127z" />
    <glyph glyph-name="uni021A" unicode="&#x21a;" horiz-adv-x="575" 
d="M322 633v-633h-70v633h-192v67h455v-67h-193zM251 -239q34 27 39 74q-27 0 -40.5 15.5t-13.5 38.5t16 38t36 15q21 0 37.5 -16.5t16.5 -42.5q0 -83 -73 -127z" />
    <glyph glyph-name="uni021B" unicode="&#x21b;" horiz-adv-x="369" 
d="M218 -12q-101 0 -101 117v343h-87v63h87v176l70 35v-211h130v-63h-130v-313q0 -39 11 -60t44 -21t77 30l-8 -73q-43 -23 -93 -23zM178 -239q34 27 39 74q-27 0 -40.5 15.5t-13.5 38.5t16 38t36 15q21 0 37.5 -16.5t16.5 -42.5q0 -83 -73 -127z" />
    <glyph glyph-name="uni0237" unicode="&#x237;" horiz-adv-x="252" 
d="M2 -213l-32 55q122 11 122 98v571h70v-543q0 -70 -28 -114q-41 -62 -132 -67z" />
    <glyph glyph-name="circumflex" unicode="&#x2c6;" horiz-adv-x="335" 
d="M285 576l-116 101l-116 -101h-65l151 156h60l151 -156h-65z" />
    <glyph glyph-name="caron" unicode="&#x2c7;" horiz-adv-x="335" 
d="M199 576h-60l-151 156h65l116 -101l116 101h65z" />
    <glyph glyph-name="uni02C9" unicode="&#x2c9;" horiz-adv-x="335" 
d="M2 609v61h330v-61h-330z" />
    <glyph glyph-name="breve" unicode="&#x2d8;" horiz-adv-x="335" 
d="M168 581q-89 0 -134 45t-45 116h68q0 -46 31.5 -72.5t79.5 -26.5t79.5 26.5t31.5 72.5h68q0 -71 -45 -116t-134 -45z" />
    <glyph glyph-name="dotaccent" unicode="&#x2d9;" horiz-adv-x="335" 
d="M167 606q-19 0 -33 14t-14 33q0 20 13.5 33.5t33.5 13.5t33.5 -13.5t13.5 -33.5t-13.5 -33.5t-33.5 -13.5z" />
    <glyph glyph-name="ring" unicode="&#x2da;" horiz-adv-x="335" 
d="M169 540q-47 0 -81 34t-34 80t34 78.5t81 32.5t81 -32.5t34 -78.5t-34 -80t-81 -34zM169 592q24 0 40 17.5t16 44.5t-16 43t-40 16q-23 0 -39.5 -16.5t-16.5 -42.5q0 -27 16.5 -44.5t39.5 -17.5z" />
    <glyph glyph-name="ogonek" unicode="&#x2db;" horiz-adv-x="335" 
d="M172 -234q-46 0 -77.5 25.5t-31.5 72.5q0 49 36 87t101 59h56q-66 -27 -99 -62.5t-33 -74.5q0 -29 16 -43t38 -14q30 0 55 23l39 -29q-40 -44 -100 -44z" />
    <glyph glyph-name="tilde" unicode="&#x2dc;" horiz-adv-x="335" 
d="M247 602q-38 0 -90.5 25t-74.5 25q-19 0 -32.5 -12t-14.5 -34h-39q0 110 93 110q38 0 90.5 -25.5t74.5 -25.5q19 0 32.5 12.5t14.5 34.5h38q0 -110 -92 -110z" />
    <glyph glyph-name="hungarumlaut" unicode="&#x2dd;" horiz-adv-x="335" 
d="M140 576h-71l142 156h107zM338 576h-71l142 156h107z" />
    <glyph glyph-name="uni0312" unicode="&#x312;" horiz-adv-x="0" 
d="M-166 603q-21 0 -37.5 16.5t-16.5 42.5q0 83 73 127l18 -5q-34 -27 -39 -74q27 0 40.5 -15.5t13.5 -38.5t-16 -38t-36 -15z" />
    <glyph glyph-name="uni0326" unicode="&#x326;" horiz-adv-x="0" 
d="M-202 -239q34 27 39 74q-27 0 -40.5 15.5t-13.5 38.5t16 38t36 15q21 0 37.5 -16.5t16.5 -42.5q0 -83 -73 -127z" />
    <glyph glyph-name="uni03A9" unicode="&#x3a9;" horiz-adv-x="738" 
d="M438 0v71q71 79 101.5 147t30.5 171q0 50 -11 94t-33.5 82.5t-63 61t-94.5 22.5q-70 0 -117.5 -40t-66 -96.5t-18.5 -124.5q0 -102 30.5 -170t102.5 -147v-71h-214v63h169q-161 102 -161 327q0 59 15 114t46 103t86 76.5t128 28.5t128.5 -28.5t86.5 -76.5t45.5 -102.5
t14.5 -114.5q0 -224 -161 -327h171v-63h-215z" />
    <glyph glyph-name="uni03BC" unicode="&#x3bc;" horiz-adv-x="565" 
d="M405 0v51q-62 -63 -140 -63q-37 0 -61 13t-44 48v-215l-70 -34v711h70v-312q0 -88 28.5 -118t90.5 -30q126 0 126 146v314h70v-511h-70z" />
    <glyph glyph-name="pi" unicode="&#x3c0;" horiz-adv-x="679" 
d="M513 -12q-51 0 -76 32t-25 85v331h-167v-63q0 -160 -26 -256t-101 -137l-61 47q28 16 46 34t37 51t28.5 87.5t9.5 130.5v106h-100v75h535v-75h-130v-299q0 -41 10 -62t45 -21q37 0 77 30l-8 -73q-43 -23 -94 -23z" />
    <glyph glyph-name="Wgrave" unicode="&#x1e80;" horiz-adv-x="827" 
d="M444 765l-178 156h107l142 -156h-71zM190 0l-135 700h74l85 -481l12 -70q3 12 19 68l138 483h52l136 -483q10 -36 15 -56l12 59l101 480h73l-152 -700h-44l-150 502q-12 40 -18 62q-6 -22 -18 -62l-152 -502h-48z" />
    <glyph glyph-name="wgrave" unicode="&#x1e81;" horiz-adv-x="704" 
d="M382 576l-178 156h107l142 -156h-71zM166 0l-126 511h70l84 -368l12 -56l8 30.5t7 25.5l107 368h48l107 -368l9 -32t8 -29q2 11 6.5 31.5l6.5 29.5l81 368h70l-126 -511h-63l-102 309l-9 28l-13 41q-5 -15 -21 -68l-100 -310h-64z" />
    <glyph glyph-name="Wacute" unicode="&#x1e82;" horiz-adv-x="827" 
d="M313 765l142 156h107l-178 -156h-71zM190 0l-135 700h74l85 -481l12 -70q3 12 19 68l138 483h52l136 -483q10 -36 15 -56l12 59l101 480h73l-152 -700h-44l-150 502q-12 40 -18 62q-6 -22 -18 -62l-152 -502h-48z" />
    <glyph glyph-name="wacute" unicode="&#x1e83;" horiz-adv-x="704" 
d="M251 576l142 156h107l-178 -156h-71zM166 0l-126 511h70l84 -368l12 -56l8 30.5t7 25.5l107 368h48l107 -368l9 -32t8 -29q2 11 6.5 31.5l6.5 29.5l81 368h70l-126 -511h-63l-102 309l-9 28l-13 41q-5 -15 -21 -68l-100 -310h-64z" />
    <glyph glyph-name="Wdieresis" unicode="&#x1e84;" horiz-adv-x="827" 
d="M331 795q-19 0 -33 13.5t-14 33.5t13.5 33.5t33.5 13.5t33.5 -13.5t13.5 -33.5t-13.5 -33.5t-33.5 -13.5zM497 795q-19 0 -33 13.5t-14 33.5t13.5 33.5t33.5 13.5t33.5 -13.5t13.5 -33.5t-13.5 -33.5t-33.5 -13.5zM190 0l-135 700h74l85 -481l12 -70q3 12 19 68l138 483
h52l136 -483q10 -36 15 -56l12 59l101 480h73l-152 -700h-44l-150 502q-12 40 -18 62q-6 -22 -18 -62l-152 -502h-48z" />
    <glyph glyph-name="wdieresis" unicode="&#x1e85;" horiz-adv-x="704" 
d="M269 606q-19 0 -33 14t-14 33q0 20 13.5 33.5t33.5 13.5t33.5 -13.5t13.5 -33.5t-13.5 -33.5t-33.5 -13.5zM435 606q-19 0 -33 14t-14 33q0 20 13.5 33.5t33.5 13.5t33.5 -13.5t13.5 -33.5t-13.5 -33.5t-33.5 -13.5zM166 0l-126 511h70l84 -368l12 -56l8 30.5t7 25.5
l107 368h48l107 -368l9 -32t8 -29q2 11 6.5 31.5l6.5 29.5l81 368h70l-126 -511h-63l-102 309l-9 28l-13 41q-5 -15 -21 -68l-100 -310h-64z" />
    <glyph glyph-name="Ygrave" unicode="&#x1ef2;" horiz-adv-x="616" 
d="M309 765l-178 156h107l142 -156h-71zM274 0v275l-229 425h77l186 -360l191 360h72l-227 -422v-278h-70z" />
    <glyph glyph-name="ygrave" unicode="&#x1ef3;" horiz-adv-x="521" 
d="M287 576l-178 156h107l142 -156h-71zM151 -194l76 210l-187 495h71l129 -363q3 -10 9 -28l8 -24l18 52l131 363h75l-261 -705h-69z" />
    <glyph glyph-name="endash" unicode="&#x2013;" horiz-adv-x="525" 
d="M65 257v60h395v-60h-395z" />
    <glyph glyph-name="emdash" unicode="&#x2014;" horiz-adv-x="605" 
d="M10 257v60h585v-60h-585z" />
    <glyph glyph-name="uni2015" unicode="&#x2015;" horiz-adv-x="605" 
d="M10 257v60h585v-60h-585z" />
    <glyph glyph-name="quoteleft" unicode="&#x2018;" horiz-adv-x="226" 
d="M115 462q-29 0 -50.5 21.5t-21.5 62.5q0 55 25 98t66 68l19 -5q-18 -16 -34 -47t-16 -70q32 0 52.5 -17.5t20.5 -44.5q0 -30 -17.5 -48t-43.5 -18z" />
    <glyph glyph-name="quoteright" unicode="&#x2019;" horiz-adv-x="226" 
d="M73 467q18 16 34 47t16 70q-32 0 -52.5 17.5t-20.5 44.5q0 30 17.5 48t43.5 18q29 0 50.5 -21.5t21.5 -62.5q0 -55 -25 -98t-66 -68z" />
    <glyph glyph-name="quotesinglbase" unicode="&#x201a;" horiz-adv-x="226" 
d="M73 -136q18 16 34 47t16 70q-32 0 -52.5 17.5t-20.5 44.5q0 30 17.5 48t43.5 18q29 0 50.5 -21.5t21.5 -62.5q0 -55 -25 -98t-66 -68z" />
    <glyph glyph-name="quotereversed" unicode="&#x201b;" horiz-adv-x="226" 
d="M134 462q-41 25 -66 68t-25 98q0 41 21.5 62.5t50.5 21.5q26 0 43.5 -18t17.5 -48q0 -27 -20.5 -44.5t-52.5 -17.5q0 -39 16 -70t34 -47z" />
    <glyph glyph-name="quotedblleft" unicode="&#x201c;" horiz-adv-x="422" 
d="M115 462q-29 0 -50.5 21.5t-21.5 62.5q0 55 25 98t66 68l19 -5q-18 -16 -34 -47t-16 -70q32 0 52.5 -17.5t20.5 -44.5q0 -30 -17.5 -48t-43.5 -18zM311 462q-29 0 -50.5 21.5t-21.5 62.5q0 55 25 98t66 68l19 -5q-18 -16 -34 -47t-16 -70q32 0 52.5 -17.5t20.5 -44.5
q0 -30 -17.5 -48t-43.5 -18z" />
    <glyph glyph-name="quotedblright" unicode="&#x201d;" horiz-adv-x="422" 
d="M73 467q18 16 34 47t16 70q-32 0 -52.5 17.5t-20.5 44.5q0 30 17.5 48t43.5 18q29 0 50.5 -21.5t21.5 -62.5q0 -55 -25 -98t-66 -68zM269 467q18 16 34 47t16 70q-32 0 -52.5 17.5t-20.5 44.5q0 30 17.5 48t43.5 18q29 0 50.5 -21.5t21.5 -62.5q0 -55 -25 -98t-66 -68z
" />
    <glyph glyph-name="quotedblbase" unicode="&#x201e;" horiz-adv-x="422" 
d="M73 -136q18 16 34 47t16 70q-32 0 -52.5 17.5t-20.5 44.5q0 30 17.5 48t43.5 18q29 0 50.5 -21.5t21.5 -62.5q0 -55 -25 -98t-66 -68zM269 -136q18 16 34 47t16 70q-32 0 -52.5 17.5t-20.5 44.5q0 30 17.5 48t43.5 18q29 0 50.5 -21.5t21.5 -62.5q0 -55 -25 -98t-66 -68z
" />
    <glyph glyph-name="dagger" unicode="&#x2020;" 
d="M302 457l13 -119l-31 -479h-5l-36 479l11 119l-139 -19h-35v68h35l136 -20l-8 101v125h72v-125l-10 -101l138 20h37v-68h-37z" />
    <glyph glyph-name="daggerdbl" unicode="&#x2021;" 
d="M480 63h-37l-138 22l10 -101v-125h-72v125l8 101l-136 -22h-35v70h35l139 -21l-11 120v106l11 119l-139 -19h-35v68h35l136 -20l-8 101v125h72v-125l-10 -101l138 20h37v-68h-37l-141 19l13 -119v-106l-13 -120l141 21h37v-70z" />
    <glyph glyph-name="bullet" unicode="&#x2022;" horiz-adv-x="416" 
d="M207 223q-57 0 -94.5 36.5t-37.5 90.5t38 91.5t94 37.5q57 0 95.5 -37.5t38.5 -91.5q0 -53 -38.5 -90t-95.5 -37z" />
    <glyph glyph-name="ellipsis" unicode="&#x2026;" horiz-adv-x="949" 
d="M168 -14q-26 0 -44.5 19t-18.5 44t18.5 44t44.5 19t44.5 -19t18.5 -44t-18.5 -44t-44.5 -19zM474 -14q-26 0 -44.5 19t-18.5 44t18.5 44t44.5 19t44.5 -19t18.5 -44t-18.5 -44t-44.5 -19zM781 -14q-26 0 -44.5 19t-18.5 44t18.5 44t44.5 19t44.5 -19t18.5 -44t-18.5 -44
t-44.5 -19z" />
    <glyph glyph-name="perthousand" unicode="&#x2030;" horiz-adv-x="1271" 
d="M216 356q-80 0 -118.5 53t-38.5 125q0 67 39 122.5t118 55.5q80 0 118.5 -52.5t38.5 -125.5q0 -43 -13.5 -81t-51 -67.5t-92.5 -29.5zM241 -12h-72l478 724h72zM216 414q44 0 68 34.5t24 85.5q0 55 -23.5 87.5t-68.5 32.5q-46 0 -69 -34t-23 -86q0 -54 23.5 -87t68.5 -33
zM672 -12q-80 0 -118.5 53t-38.5 125q0 67 39 122.5t118 55.5q80 0 118.5 -52.5t38.5 -125.5q0 -43 -13.5 -81t-51 -67.5t-92.5 -29.5zM1054 -12q-80 0 -118.5 53t-38.5 125q0 67 39 122.5t118 55.5q80 0 118.5 -52.5t38.5 -125.5q0 -43 -13.5 -81t-51 -67.5t-92.5 -29.5z
M672 46q44 0 68 34.5t24 85.5q0 55 -23.5 87.5t-68.5 32.5q-46 0 -69 -34t-23 -86q0 -54 23.5 -87t68.5 -33zM1054 46q44 0 68 34.5t24 85.5q0 55 -23.5 87.5t-68.5 32.5q-46 0 -69 -34t-23 -86q0 -54 23.5 -87t68.5 -33z" />
    <glyph glyph-name="minute" unicode="&#x2032;" horiz-adv-x="215" 
d="M50 425l20 305h95l-60 -305h-55z" />
    <glyph glyph-name="second" unicode="&#x2033;" horiz-adv-x="415" 
d="M50 425l20 305h95l-60 -305h-55zM250 425l20 305h95l-60 -305h-55z" />
    <glyph glyph-name="guilsinglleft" unicode="&#x2039;" horiz-adv-x="305" 
d="M197 0l-152 256l152 255h78l-152 -255l152 -256h-78z" />
    <glyph glyph-name="guilsinglright" unicode="&#x203a;" horiz-adv-x="305" 
d="M30 0l152 256l-152 255h78l152 -255l-152 -256h-78z" />
    <glyph glyph-name="fraction" unicode="&#x2044;" horiz-adv-x="325" 
d="M-111 -12l478 724h69l-478 -724h-69z" />
    <glyph glyph-name="uni207F" unicode="&#x207f;" horiz-adv-x="459" 
d="M318 283v244q0 120 -82 120q-89 0 -89 -116v-248h-72v419h72v-51q42 61 112 61t100 -46t30 -151v-232h-71z" />
    <glyph glyph-name="afii08941" unicode="&#x20a4;" horiz-adv-x="589" 
d="M91 0v66q41 31 65.5 77.5t27.5 95.5h-94v57h97q0 27 -17 66h-80v57h56q-24 57 -24 100q0 81 58 137t167 56q116 0 198 -65l-27 -63q-50 39 -90 50q-37 11 -81 11q-73 0 -111 -38t-38 -89q0 -39 28 -99h188v-57h-163q12 -36 12 -66h151v-57h-157q-17 -98 -100 -174h402
v-65h-468z" />
    <glyph glyph-name="Euro" unicode="&#x20ac;" horiz-adv-x="608" 
d="M369 -12q-111 0 -172 65.5t-80 178.5h-72l27 58h38q-2 19 -2 58q0 32 1 48h-64l27 58h45q20 113 85 185.5t178 72.5q92 0 164 -47l-27 -64q-54 46 -139 46q-151 0 -185 -193h263l-24 -58h-247q-2 -22 -2 -65q0 -27 2 -41h203l-24 -58h-170q17 -77 59.5 -128t113.5 -51
q91 0 145 72l56 -35q-27 -43 -78.5 -72.5t-120.5 -29.5z" />
    <glyph glyph-name="uni2105" unicode="&#x2105;" horiz-adv-x="1023" 
d="M236 272q-82 0 -126.5 59t-44.5 161q0 103 46.5 161.5t127.5 58.5q113 0 146 -94l-68 -26q-19 55 -85 55q-97 0 -97 -155t99 -155q39 0 58.5 15t31.5 45l61 -23q-14 -43 -52.5 -72.5t-96.5 -29.5zM214 -12l478 724h74l-478 -724h-74zM768 -12q-87 0 -138 58t-51 162
q0 103 51 161.5t138 58.5q88 0 139 -58.5t51 -161.5q0 -104 -51 -162t-139 -58zM768 53q120 0 120 155t-120 155q-55 0 -87 -40.5t-32 -114.5t32 -114.5t87 -40.5z" />
    <glyph glyph-name="uni2113" unicode="&#x2113;" horiz-adv-x="453" 
d="M248 -12q-98 0 -98 114v147q-15 -10 -34.5 -20t-22.5 -12l-23 57q43 16 80 44v205q0 189 124 189q50 0 84.5 -39t34.5 -110q0 -51 -16 -95.5t-49 -82t-51.5 -54.5t-54.5 -45v-142q0 -53 15.5 -72t44.5 -19q36 0 68 34l18 -41q-46 -58 -120 -58zM272 645q-26 0 -38 -29
t-12 -107v-151q99 86 99 188q0 99 -49 99z" />
    <glyph glyph-name="uni2116" unicode="&#x2116;" horiz-adv-x="1207" 
d="M927 272q-87 0 -138 58t-51 162q0 103 51 161.5t138 58.5q88 0 139 -58.5t51 -161.5q0 -104 -51 -162t-139 -58zM600 0h-71l-326 524l-28 47v-47v-524h-70v700h71l325 -530l29 -49v49v530h70v-700zM927 337q120 0 120 155t-120 155q-55 0 -87 -40.5t-32 -114.5t32 -114.5
t87 -40.5zM753 130v55h349v-55h-349z" />
    <glyph glyph-name="trademark" unicode="&#x2122;" horiz-adv-x="786" 
d="M150 278v370h-115v52h285v-52h-114v-370h-56zM701 278h-56v249l-17 -39l-96 -218l-98 218l-17 41v-251h-56v422h45l113 -264l12 -29l12 29l113 264h45v-422z" />
    <glyph glyph-name="uni2126" unicode="&#x2126;" horiz-adv-x="738" 
d="M438 0v71q71 79 101.5 147t30.5 171q0 50 -11 94t-33.5 82.5t-63 61t-94.5 22.5q-70 0 -117.5 -40t-66 -96.5t-18.5 -124.5q0 -102 30.5 -170t102.5 -147v-71h-214v63h169q-161 102 -161 327q0 59 15 114t46 103t86 76.5t128 28.5t128.5 -28.5t86.5 -76.5t45.5 -102.5
t14.5 -114.5q0 -224 -161 -327h171v-63h-215z" />
    <glyph glyph-name="estimated" unicode="&#x212e;" horiz-adv-x="810" 
d="M410 -12q-145 0 -245 100t-100 262q0 89 29 160t78 115t111 67t130 23q65 0 122.5 -23.5t103.5 -68t74 -115t32 -158.5h-523v-219q25 -36 75 -59.5t113 -23.5q151 0 242 139l51 -31q-55 -83 -123.5 -125.5t-169.5 -42.5zM222 408l371 1v168q-29 34 -78.5 56t-104.5 22
q-114 0 -188 -69v-178z" />
    <glyph glyph-name="uni2153" unicode="&#x2153;" horiz-adv-x="718" 
d="M14 -12l478 724h69l-478 -724h-69zM82 283v324h-47v43q49 0 66 55h42v-422h-61zM537 -12q-110 0 -152 103l55 23q32 -76 97 -76q37 0 58 20.5t21 53.5q0 31 -19.5 54.5t-50.5 23.5h-34v50h22q33 0 49 20t16 50q0 28 -17.5 48.5t-50.5 20.5q-27 0 -49.5 -18t-35.5 -46
l-53 18q17 42 55.5 69t86.5 27q57 0 92.5 -30.5t35.5 -82.5q0 -28 -15.5 -54t-41.5 -38q33 -11 53.5 -38t20.5 -66q0 -61 -39.5 -96.5t-103.5 -35.5z" />
    <glyph glyph-name="uni2154" unicode="&#x2154;" horiz-adv-x="875" 
d="M40 283q0 31 8 57.5t17.5 43t33.5 38t38 31.5t50 34q35 23 51.5 46.5t16.5 59.5q0 25 -20 47t-59 22q-69 0 -84 -71l-51 21q11 45 48 72.5t95 27.5t95.5 -33.5t37.5 -90.5q0 -52 -27 -86.5t-90 -72.5q-42 -26 -63.5 -45.5t-31.5 -45.5h211v-55h-276zM171 -12l478 724h69
l-478 -724h-69zM694 -12q-110 0 -152 103l55 23q32 -76 97 -76q37 0 58 20.5t21 53.5q0 31 -19.5 54.5t-50.5 23.5h-34v50h22q33 0 49 20t16 50q0 28 -17.5 48.5t-50.5 20.5q-27 0 -49.5 -18t-35.5 -46l-53 18q17 42 55.5 69t86.5 27q57 0 92.5 -30.5t35.5 -82.5
q0 -28 -15.5 -54t-41.5 -38q33 -11 53.5 -38t20.5 -66q0 -61 -39.5 -96.5t-103.5 -35.5z" />
    <glyph glyph-name="oneeighth" unicode="&#x215b;" horiz-adv-x="710" 
d="M14 -12l478 724h69l-478 -724h-69zM82 283v324h-47v43q49 0 66 55h42v-422h-61zM521 -12q-63 0 -102 36t-39 93q0 84 71 116q-21 9 -36 32t-15 51q0 49 34 81t87 32t87 -32t34 -81q0 -27 -15 -50.5t-36 -32.5q71 -33 71 -116q0 -57 -39 -93t-102 -36zM521 251
q30 0 47.5 17t17.5 44q0 31 -18 49t-47 18q-28 0 -46.5 -18.5t-18.5 -48.5q0 -27 18 -44t47 -17zM521 38q35 0 57.5 23t22.5 62q0 34 -22 58t-58 24q-35 0 -57.5 -24t-22.5 -58q0 -39 22.5 -62t57.5 -23z" />
    <glyph glyph-name="threeeighths" unicode="&#x215c;" horiz-adv-x="855" 
d="M186 271q-110 0 -152 103l55 23q32 -76 97 -76q37 0 58 20.5t21 53.5q0 31 -19.5 54.5t-50.5 23.5h-34v50h22q33 0 49 20t16 50q0 28 -17.5 48.5t-50.5 20.5q-27 0 -49.5 -18t-35.5 -46l-53 18q17 42 55.5 69t86.5 27q57 0 92.5 -30.5t35.5 -82.5q0 -28 -15.5 -54
t-41.5 -38q33 -11 53.5 -38t20.5 -66q0 -61 -39.5 -96.5t-103.5 -35.5zM157 -12l478 724h69l-478 -724h-69zM665 -12q-63 0 -102 36t-39 93q0 84 71 116q-21 9 -36 32t-15 51q0 49 34 81t87 32t87 -32t34 -81q0 -27 -15 -50.5t-36 -32.5q71 -33 71 -116q0 -57 -39 -93
t-102 -36zM665 251q30 0 47.5 17t17.5 44q0 31 -18 49t-47 18q-28 0 -46.5 -18.5t-18.5 -48.5q0 -27 18 -44t47 -17zM665 38q35 0 57.5 23t22.5 62q0 34 -22 58t-58 24q-35 0 -57.5 -24t-22.5 -58q0 -39 22.5 -62t57.5 -23z" />
    <glyph glyph-name="fiveeighths" unicode="&#x215d;" horiz-adv-x="838" 
d="M141 -12l478 724h69l-478 -724h-69zM166 271q-45 0 -81.5 16.5t-53.5 37.5l32 41q38 -45 99 -45q46 0 71 26.5t25 67.5q0 40 -21.5 65.5t-62.5 25.5q-59 0 -92 -41l-41 13l35 222h210v-55h-165l-18 -113q33 24 81 24q60 0 97.5 -39t37.5 -102q0 -60 -43 -102t-110 -42z
M648 -12q-63 0 -102 36t-39 93q0 84 71 116q-21 9 -36 32t-15 51q0 49 34 81t87 32t87 -32t34 -81q0 -27 -15 -50.5t-36 -32.5q71 -33 71 -116q0 -57 -39 -93t-102 -36zM648 251q30 0 47.5 17t17.5 44q0 31 -18 49t-47 18q-28 0 -46.5 -18.5t-18.5 -48.5q0 -27 18 -44
t47 -17zM648 38q35 0 57.5 23t22.5 62q0 34 -22 58t-58 24q-35 0 -57.5 -24t-22.5 -58q0 -39 22.5 -62t57.5 -23z" />
    <glyph glyph-name="seveneighths" unicode="&#x215e;" horiz-adv-x="747" 
d="M49 -12l478 724h69l-478 -724h-69zM97 283q1 196 124 362h-201v55h268v-58q-124 -140 -126 -359h-65zM558 -12q-63 0 -102 36t-39 93q0 84 71 116q-21 9 -36 32t-15 51q0 49 34 81t87 32t87 -32t34 -81q0 -27 -15 -50.5t-36 -32.5q71 -33 71 -116q0 -57 -39 -93t-102 -36
zM558 251q30 0 47.5 17t17.5 44q0 31 -18 49t-47 18q-28 0 -46.5 -18.5t-18.5 -48.5q0 -27 18 -44t47 -17zM558 38q35 0 57.5 23t22.5 62q0 34 -22 58t-58 24q-35 0 -57.5 -24t-22.5 -58q0 -39 22.5 -62t57.5 -23z" />
    <glyph glyph-name="arrowleft" unicode="&#x2190;" horiz-adv-x="800" 
d="M277 196q-4 0 -17 8l-203 137q-12 7 -12 19q0 11 12 19l203 138q13 8 17 8q12 0 12 -11q0 -5 -6 -21l-36 -105l498 11v-78l-498 11l36 -104q6 -18 6 -21q0 -11 -12 -11z" />
    <glyph glyph-name="arrowup" unicode="&#x2191;" horiz-adv-x="423" 
d="M173 0l11 494l-114 -39q-2 -1 -6 -1q-7 0 -11.5 5t-4.5 11q0 4 3 9l144 212q6 9 17 9t17 -9l143 -212q3 -5 3 -9q0 -6 -4.5 -11t-11.5 -5q-4 0 -6 1l-113 39l11 -494h-78z" />
    <glyph glyph-name="arrowright" unicode="&#x2192;" horiz-adv-x="800" 
d="M523 196q-12 0 -12 11q0 3 6 21l36 104l-498 -11v78l498 -11l-36 105q-6 16 -6 21q0 11 12 11q4 0 17 -8l203 -138q12 -7 12 -19t-12 -19l-203 -137q-13 -8 -17 -8z" />
    <glyph glyph-name="arrowdown" unicode="&#x2193;" horiz-adv-x="423" 
d="M212 0q-11 0 -17 9l-144 212q-3 5 -3 9q0 6 4.5 11t11.5 5q4 0 6 -1l114 -39l-11 494h78l-11 -494l113 39q2 1 6 1q7 0 11.5 -5t4.5 -11q0 -4 -3 -9l-143 -212q-6 -9 -17 -9z" />
    <glyph glyph-name="arrowboth" unicode="&#x2194;" horiz-adv-x="891" 
d="M614 196q-12 0 -12 11q0 3 6 21l35 101h-395l35 -101q6 -18 6 -21q0 -11 -12 -11q-4 0 -17 8l-203 137q-12 7 -12 19q0 11 12 19l203 138q13 8 17 8q12 0 12 -11q0 -5 -6 -21l-35 -102h395l-35 102q-6 16 -6 21q0 11 12 11q4 0 17 -8l203 -138q12 -7 12 -19t-12 -19
l-203 -137q-13 -8 -17 -8z" />
    <glyph glyph-name="arrowupdn" unicode="&#x2195;" horiz-adv-x="423" 
d="M211 -170q-11 0 -19 12l-137 203q-8 13 -8 17q0 12 11 12q3 0 21 -6l101 -35v530l-101 -35q-18 -6 -21 -6q-11 0 -11 12q0 4 8 17l137 203q8 12 19 12t19 -12l138 -203q8 -13 8 -17q0 -12 -11 -12q-5 0 -21 6l-102 35v-530l102 35q16 6 21 6q11 0 11 -12q0 -4 -8 -17
l-138 -203q-8 -12 -19 -12z" />
    <glyph glyph-name="uni2196" unicode="&#x2196;" horiz-adv-x="618" 
d="M533 75l-344 359l-48 -99q-10 -22 -19 -22q-11 0 -15 22l-45 235q-2 10 -2 14q0 19 19 19q4 0 14 -2l236 -45q21 -5 21 -15q0 -8 -21 -18l-101 -49l360 -344z" />
    <glyph glyph-name="uni2197" unicode="&#x2197;" horiz-adv-x="618" 
d="M85 75l-55 55l360 344l-101 49q-21 10 -21 18q0 10 21 15l236 45q10 2 14 2q19 0 19 -19q0 -4 -2 -14l-45 -235q-4 -22 -15 -22q-9 0 -19 22l-48 99z" />
    <glyph glyph-name="uni2198" unicode="&#x2198;" horiz-adv-x="618" 
d="M539 75q-4 0 -14 2l-236 45q-21 5 -21 15q0 8 21 18l101 49l-360 344l55 55l344 -359l48 99q10 22 19 22q11 0 15 -22l45 -235q2 -10 2 -14q0 -19 -19 -19z" />
    <glyph glyph-name="uni2199" unicode="&#x2199;" horiz-adv-x="618" 
d="M79 75q-19 0 -19 19q0 4 2 14l45 235q4 22 15 22q9 0 19 -22l48 -99l344 359l55 -55l-360 -344l101 -49q21 -10 21 -18q0 -10 -21 -15l-236 -45q-10 -2 -14 -2z" />
    <glyph glyph-name="uni21B3" unicode="&#x21b3;" horiz-adv-x="700" 
d="M643 233q12 -8 12 -19q0 -12 -12 -19l-203 -137q-13 -8 -17 -8q-12 0 -12 11q0 3 6 21l35 101h-361v517h67v-455h294l-35 102q-6 16 -6 21q0 11 12 11q4 0 17 -8z" />
    <glyph glyph-name="uni21B4" unicode="&#x21b4;" horiz-adv-x="700" 
d="M644 326q11 0 11 -12q0 -4 -8 -17l-137 -203q-8 -12 -19 -12t-19 12l-138 203q-8 13 -8 17q0 12 11 12q5 0 21 -6l100 -34v352h-367v62h433v-414l99 34q18 6 21 6z" />
    <glyph glyph-name="uni21B5" unicode="&#x21b5;" horiz-adv-x="700" 
d="M542 700h67v-517h-361l35 -101q6 -18 6 -21q0 -11 -12 -11q-4 0 -17 8l-203 137q-12 7 -12 19t12 19l203 138q13 8 17 8q12 0 12 -11q0 -5 -6 -21l-35 -102h294v455z" />
    <glyph glyph-name="uni21B6" unicode="&#x21b6;" horiz-adv-x="785" 
d="M431 712q111 0 182.5 -73t71.5 -196v-443h-66v443q0 99 -53 153.5t-135 54.5t-135 -54t-53 -154v-42l99 34q18 6 21 6q11 0 11 -12q0 -4 -8 -17l-137 -203q-7 -12 -19 -12t-19 12l-138 203q-8 13 -8 17q0 12 11 12q5 0 21 -6l100 -34v42q0 123 71.5 196t182.5 73z" />
    <glyph glyph-name="uni21B7" unicode="&#x21b7;" horiz-adv-x="785" 
d="M729 441q11 0 11 -12q0 -4 -8 -17l-138 -203q-8 -12 -19 -12t-19 12l-137 203q-8 13 -8 17q0 12 11 12q3 0 21 -6l99 -34v42q0 100 -53 154t-135 54t-135 -54.5t-53 -153.5v-443h-66v443q0 123 71.5 196t182.5 73t182.5 -73t71.5 -196v-42l100 34q16 6 21 6z" />
    <glyph glyph-name="uni21B8" unicode="&#x21b8;" horiz-adv-x="618" 
d="M60 638v62h528v-62h-528zM533 7l-344 359l-48 -99q-10 -22 -19 -22q-11 0 -15 22l-45 235q-2 10 -2 14q0 19 19 19q4 0 14 -2l236 -45q21 -5 21 -15q0 -8 -21 -18l-101 -49l360 -344z" />
    <glyph glyph-name="uni21B9" unicode="&#x21b9;" horiz-adv-x="826" 
d="M459 371q-4 0 -17 8l-203 137q-12 7 -12 19q0 11 12 19l203 138q13 8 17 8q12 0 12 -11q0 -5 -6 -21l-36 -105l306 11v-78l-306 11l36 -104q6 -18 6 -21q0 -11 -12 -11zM91 381v309h70v-309h-70zM367 -200q-12 0 -12 11q0 3 6 21l36 104l-306 -11v78l306 -11l-36 105
q-6 16 -6 21q0 11 12 11q4 0 17 -8l203 -138q12 -8 12 -19q0 -12 -12 -19l-203 -137q-13 -8 -17 -8zM665 -190v319h70v-319h-70z" />
    <glyph glyph-name="uni21BA" unicode="&#x21ba;" horiz-adv-x="846" 
d="M755 650q21 -5 21 -15q0 -8 -21 -18l-96 -47q87 -93 87 -220q0 -134 -95 -228.5t-228 -94.5t-228 94.5t-95 228.5q0 131 94 228l47 -47q-75 -78 -75 -181q0 -106 75.5 -181.5t181.5 -75.5t181.5 75.5t75.5 181.5q0 99 -68 173l-45 -94q-10 -22 -19 -22q-11 0 -15 22
l-45 235q-2 10 -2 14q0 19 19 19q4 0 14 -2z" />
    <glyph glyph-name="uni21DA" unicode="&#x21da;" horiz-adv-x="800" 
d="M745 425h-486l-15 -45h501v-40h-501l16 -45h485v-40h-471l9 -27q6 -18 6 -21q0 -11 -12 -11q-4 0 -17 8l-203 137q-12 7 -12 19q0 11 12 19l203 138q13 8 17 8q12 0 12 -11q0 -5 -6 -21l-10 -28h472v-40z" />
    <glyph glyph-name="uni21DB" unicode="&#x21db;" horiz-adv-x="800" 
d="M743 379q12 -7 12 -19t-12 -19l-203 -137q-13 -8 -17 -8q-12 0 -12 11q0 3 6 21l9 27h-471v40h485l16 45h-501v40h501l-15 45h-486v40h472l-10 28q-6 16 -6 21q0 11 12 11q4 0 17 -8z" />
    <glyph glyph-name="uni21DC" unicode="&#x21dc;" horiz-adv-x="800" 
d="M654 391h91v-62h-123l-20 62l-45 -140h-52l-45 139l-45 -139h-52l-25 78h-90l35 -101q6 -18 6 -21q0 -11 -12 -11q-4 0 -17 8l-203 137q-12 7 -12 19q0 11 12 19l203 138q13 8 17 8q12 0 12 -11q0 -5 -6 -21l-35 -102h122l19 -61l45 141h52l45 -141l45 141h52z" />
    <glyph glyph-name="uni21DD" unicode="&#x21dd;" horiz-adv-x="800" 
d="M743 379q12 -7 12 -19t-12 -19l-203 -137q-13 -8 -17 -8q-12 0 -12 11q0 3 6 21l35 101h-90l-25 -78h-52l-45 139l-45 -139h-52l-45 140l-20 -62h-123v62h91l26 80h52l45 -141l45 141h52l45 -141l19 61h122l-35 102q-6 16 -6 21q0 11 12 11q4 0 17 -8z" />
    <glyph glyph-name="uni21DE" unicode="&#x21de;" horiz-adv-x="423" 
d="M353 455l-108 38v-145h121v-62h-121v-96h121v-62h-121v-128h-66v128h-121v62h121v96h-121v62h121v145l-109 -38q-2 -1 -6 -1q-7 0 -11.5 5t-4.5 11q0 4 3 9l144 212q6 9 17 9t17 -9l143 -212q3 -5 3 -9q0 -6 -4.5 -11t-11.5 -5q-4 0 -6 1z" />
    <glyph glyph-name="uni21DF" unicode="&#x21df;" horiz-adv-x="423" 
d="M359 246q7 0 11.5 -5t4.5 -11q0 -4 -3 -9l-143 -212q-6 -9 -17 -9t-17 9l-144 212q-3 5 -3 9q0 6 4.5 11t11.5 5q4 0 6 -1l109 -38v145h-121v62h121v96h-121v62h121v128h66v-128h121v-62h-121v-96h121v-62h-121v-145l108 38q2 1 6 1z" />
    <glyph glyph-name="uni21E0" unicode="&#x21e0;" horiz-adv-x="800" 
d="M283 493l-35 -102h101v-62h-101l35 -101q6 -18 6 -21q0 -11 -12 -11q-4 0 -17 8l-203 137q-12 7 -12 19q0 11 12 19l203 138q13 8 17 8q12 0 12 -11q0 -5 -6 -21zM434 329v62h113v-62h-113zM632 391h113v-62h-113v62z" />
    <glyph glyph-name="uni21E1" unicode="&#x21e1;" horiz-adv-x="419" 
d="M372 479q3 -5 3 -9q0 -6 -4.5 -11t-11.5 -5q-4 0 -6 1l-109 38v-109h-66v108l-108 -37q-2 -1 -6 -1q-7 0 -11.5 5t-4.5 11q0 4 3 9l144 212q6 9 17 9t17 -9zM178 192v118h66v-118h-66zM178 0v118h66v-118h-66z" />
    <glyph glyph-name="uni21E2" unicode="&#x21e2;" horiz-adv-x="800" 
d="M733 379q12 -7 12 -19t-12 -19l-203 -137q-13 -8 -17 -8q-12 0 -12 11q0 3 6 21l35 101h-101v62h101l-35 102q-6 16 -6 21q0 11 12 11q4 0 17 -8zM45 329v62h113v-62h-113zM243 329v62h113v-62h-113z" />
    <glyph glyph-name="uni21E3" unicode="&#x21e3;" horiz-adv-x="423" 
d="M244 700v-118h-66v118h66zM244 508v-118h-66v118h66zM359 246q7 0 11.5 -5t4.5 -11q0 -4 -3 -9l-143 -212q-6 -9 -17 -9t-17 9l-144 212q-3 5 -3 9q0 6 4.5 11t11.5 5q4 0 6 -1l108 -37v108h66v-109l109 38q2 1 6 1z" />
    <glyph glyph-name="uni21E4" unicode="&#x21e4;" horiz-adv-x="780" 
d="M91 104v511h70v-511h-70zM459 196q-4 0 -17 8l-203 137q-12 7 -12 19q0 11 12 19l203 138q13 8 17 8q12 0 12 -11q0 -5 -6 -21l-36 -105l296 11v-78l-296 11l36 -104q6 -18 6 -21q0 -11 -12 -11z" />
    <glyph glyph-name="uni21E5" unicode="&#x21e5;" horiz-adv-x="780" 
d="M619 104v511h70v-511h-70zM321 196q-12 0 -12 11q0 3 6 21l36 104l-296 -11v78l296 -11l-36 105q-6 16 -6 21q0 11 12 11q4 0 17 -8l203 -138q12 -7 12 -19t-12 -19l-203 -137q-13 -8 -17 -8z" />
    <glyph glyph-name="partialdiff" unicode="&#x2202;" horiz-adv-x="596" 
d="M254 -12q-94 0 -151.5 55.5t-57.5 139.5q0 113 70.5 182.5t165.5 69.5q119 0 178 -105q3 27 3 51q0 68 -19 119.5t-53 82t-74.5 46.5t-88.5 18l16 65q149 -17 216 -111t67 -268q0 -56 -9 -105.5t-30 -94t-51.5 -76.5t-77 -50.5t-104.5 -18.5zM250 56q85 0 134 46t49 124
q0 139 -149 139q-78 0 -123 -42t-45 -117q0 -69 37.5 -109.5t96.5 -40.5z" />
    <glyph glyph-name="uni2206" unicode="&#x2206;" horiz-adv-x="662" 
d="M60 0l243 700h54l245 -700h-542zM155 65h353l-155 447q-5 13 -13 38.5l-10 31.5l-10 -31.5t-13 -38.5z" />
    <glyph glyph-name="product" unicode="&#x220f;" horiz-adv-x="722" 
d="M545 -140v770h-369v-770h-71v840h512v-840h-72z" />
    <glyph glyph-name="summation" unicode="&#x2211;" horiz-adv-x="630" 
d="M60 -142v59l271 371l-257 351v59h486v-68h-393l251 -340l-266 -363h428v-69h-520z" />
    <glyph glyph-name="minus" unicode="&#x2212;" horiz-adv-x="660" 
d="M95 308v68h470v-68h-470z" />
    <glyph glyph-name="uni2215" unicode="&#x2215;" horiz-adv-x="325" 
d="M-111 -12l478 724h69l-478 -724h-69z" />
    <glyph glyph-name="uni2219" unicode="&#x2219;" horiz-adv-x="226" 
d="M113 286q-26 0 -44.5 19t-18.5 44t18.5 44t44.5 19t44.5 -19t18.5 -44t-18.5 -44t-44.5 -19z" />
    <glyph glyph-name="radical" unicode="&#x221a;" horiz-adv-x="558" 
d="M513 700l-212 -700h-71l-170 327h70l130 -250l179 623h74z" />
    <glyph glyph-name="infinity" unicode="&#x221e;" horiz-adv-x="1015" 
d="M740 128q-157 0 -233 173q-84 -173 -232 -173q-97 0 -161 61t-64 168q0 108 64 169.5t161 61.5q147 0 232 -176q38 85 91.5 130.5t139.5 45.5q99 0 163 -61.5t64 -169.5q0 -107 -64 -168t-161 -61zM283 191q113 0 197 166q-86 168 -197 168q-71 0 -116.5 -45.5
t-45.5 -122.5t45.5 -121.5t116.5 -44.5zM732 191q71 0 116 44.5t45 121.5t-45 122.5t-116 45.5q-115 0 -199 -168q82 -166 199 -166z" />
    <glyph glyph-name="integral" unicode="&#x222b;" horiz-adv-x="437" 
d="M148 -140q-53 0 -93 22v52q42 -14 73 -14q33 0 44 16t11 43v619q0 114 105 114q50 0 94 -24v-52q-53 16 -73 16q-55 0 -55 -61v-617q0 -114 -106 -114z" />
    <glyph glyph-name="approxequal" unicode="&#x2248;" horiz-adv-x="660" 
d="M439 367q-43 0 -117.5 31.5t-106.5 31.5q-33 0 -54.5 -17.5t-23.5 -45.5h-40q0 56 30 92t94 36q45 0 120 -31.5t104 -31.5q33 0 54.5 18t23.5 45h40q0 -56 -30.5 -92t-93.5 -36zM439 190q-43 0 -117.5 31.5t-106.5 31.5q-33 0 -54.5 -17.5t-23.5 -45.5h-40q0 56 30 93
t94 37q45 0 120 -31.5t104 -31.5q33 0 54.5 17.5t23.5 45.5h40q0 -56 -30.5 -93t-93.5 -37z" />
    <glyph glyph-name="notequal" unicode="&#x2260;" horiz-adv-x="660" 
d="M315 227l-50 -104h-72l50 104h-133v72h173l45 87h-218v72h255l46 88h71l-46 -88h139v-72h-176l-46 -87h222v-72h-260z" />
    <glyph glyph-name="lessequal" unicode="&#x2264;" horiz-adv-x="660" 
d="M563 192l-468 169v70l468 171v-80l-378 -125l378 -127v-78zM95 0v67h470v-67h-470z" />
    <glyph glyph-name="greaterequal" unicode="&#x2265;" horiz-adv-x="660" 
d="M95 192v78l378 127l-378 125v80l468 -171v-70zM95 0v67h470v-67h-470z" />
    <glyph glyph-name="lozenge" unicode="&#x25ca;" horiz-adv-x="620" 
d="M273 -12l-202 362l202 362h76l202 -362l-202 -362h-76zM311 665l-174 -315l174 -315l174 315z" />
    <glyph glyph-name="uni25CC" unicode="&#x25cc;" horiz-adv-x="674" 
d="M307 594q0 14 8.5 23t21.5 9t21.5 -9t8.5 -23t-8.5 -22t-21.5 -8t-21.5 8t-8.5 22zM216 576q0 14 8.5 23t22.5 9q13 0 21.5 -9t8.5 -23q0 -13 -8.5 -21.5t-21.5 -8.5t-22 8.5t-9 21.5zM396 576q0 13 9 22t21 9q14 0 23 -8.5t9 -22.5q0 -13 -9 -21.5t-23 -8.5
q-13 0 -21.5 8.5t-8.5 21.5zM140 526q0 13 8.5 21.5t22.5 8.5q13 0 21.5 -8t8.5 -22t-8 -22.5t-22 -8.5t-22.5 8.5t-8.5 22.5zM473 526q0 14 8.5 22t21.5 8q14 0 22.5 -8.5t8.5 -21.5q0 -14 -8.5 -22.5t-22.5 -8.5t-22 8.5t-8 22.5zM524 449q0 13 8.5 22.5t21.5 9.5t22 -9.5
t9 -22.5t-9 -21.5t-22 -8.5t-21.5 8.5t-8.5 21.5zM89 449q0 13 8.5 22t22.5 9t22.5 -9t8.5 -22t-9.5 -22t-21.5 -9q-13 0 -22 9t-9 22zM70 359q0 14 9 22.5t23 8.5t22 -8.5t8 -22.5q0 -13 -8 -21.5t-22 -8.5t-23 8.5t-9 21.5zM542 359q0 14 8 22.5t22 8.5q13 0 22.5 -8.5
t9.5 -22.5q0 -13 -9.5 -21.5t-22.5 -8.5q-14 0 -22 8.5t-8 21.5zM89 269q0 13 8.5 22t22.5 9q13 0 21.5 -9t8.5 -22t-8.5 -22t-21.5 -9t-22 9t-9 22zM523 270q0 13 9 21.5t22 8.5t22 -8.5t9 -21.5q0 -14 -8.5 -22.5t-22.5 -8.5t-22.5 8.5t-8.5 22.5zM140 193q0 13 9 22t22 9
t21.5 -8.5t8.5 -22.5q0 -13 -8.5 -21.5t-21.5 -8.5q-14 0 -22.5 8.5t-8.5 21.5zM473 193q0 14 8.5 22.5t21.5 8.5t22 -9t9 -22t-8.5 -21.5t-22.5 -8.5q-13 0 -21.5 8.5t-8.5 21.5zM216 143q0 13 9 21.5t23 8.5q13 0 21.5 -8.5t8.5 -21.5t-9 -22.5t-21 -9.5q-14 0 -23 9
t-9 23zM397 142q0 13 8.5 22t21.5 9t22 -8.5t9 -22.5t-9 -22.5t-22 -8.5t-21.5 9t-8.5 22zM307 124q0 14 8.5 22.5t21.5 8.5t21.5 -8.5t8.5 -22.5t-8.5 -22.5t-21.5 -8.5t-21.5 8.5t-8.5 22.5z" />
    <glyph glyph-name="uniF6C3" unicode="&#xf6c3;" horiz-adv-x="0" 
d="M-118 730v-8q0 -141 -80 -220l-20 14q13 28 21.5 92t8.5 122h70z" />
    <glyph glyph-name="u1F3A9" unicode="&#x1f3a9;" horiz-adv-x="935" 
d="M459 9q-169 0 -294 88t-125 201q0 30 13.5 54t40.5 42.5t55.5 31t70.5 27.5q20 75 68 190q24 55 61 55q31 0 65 -16.5t55 -16.5q18 0 54 16.5t65 16.5q38 0 53 -43q65 -177 72 -202q182 -52 182 -159q0 -109 -128 -197t-308 -88zM469 207q62 0 115 20.5t84 50t48.5 58.5
t17.5 49q0 11 -7 30l-14 37q-30 -56 -102 -91t-145 -35q-64 0 -136.5 31t-109.5 95l-19 -55q-2 -8 -2 -11q0 -11 8.5 -31t30 -46t51 -48.5t77 -38t103.5 -15.5z" />
    <glyph glyph-name="u1F427" unicode="&#x1f427;" horiz-adv-x="706" 
d="M232 -5q-4 0 -19 4.5t-35.5 11.5t-34.5 10q-12 3 -34 7.5t-29 6.5q-3 1 -8 2.5t-6 1.5q-16 4 -16 20q0 7 6 20t6 22q0 10 -4.5 23t-4.5 18q0 16 17 18q5 2 27 4q29 6 29 34q2 -12 2 -14q0 -13 -10.5 -22t-24.5 -9h-19q-12 0 -12 -9q0 -7 6 -22t6 -24q0 -7 -5.5 -19.5
t-5.5 -19.5t7 -10q3 -1 54 -12.5t83 -21.5q9 -3 19 -3q44 0 44 33q0 24 -20 57q-74 116 -100 116q-5 0 -8 -1.5t-4 -3t-2 -1.5q-4 0 -4 19q0 16 7 30q8 12 16.5 33t11.5 27q10 35 21 52q3 7 11 17l19.5 26l20.5 27q13 25 13 36q0 1 -0.5 4t-0.5 5q-4 51 -4 125q0 45 28 68.5
t66 23.5q37 0 63.5 -13.5t38.5 -34.5t17 -40t5 -38v-16q0 -87 57 -149q35 -37 59 -104q12 -35 13 -62q2 -10 2 -15q0 -25 -24 -41q-23 -33 -46 -33q-9 0 -17 4q-10 3 -19.5 21t-15.5 18q-15 0 -15 -30q0 -9 3.5 -29.5t3.5 -33.5q0 -10 -2.5 -29.5t-2.5 -30.5q0 -14 11.5 -25
t27.5 -11q17 0 31 14q36 30 76 43q1 0 10 3.5l14.5 5.5t11 7t5.5 10q0 7 -9 12.5t-19 9.5t-19 15.5t-9 28.5q0 16 5 23q2 -18 4 -26q7 -22 31 -36.5t24 -24.5q0 -16 -41 -37q-34 -17 -55 -31l-31 -26q-9 -9 -36 -9q-28 0 -42.5 17.5t-23.5 17.5q-7 0 -23 1t-24 1
q-9 0 -27.5 -1t-28.5 -1q-28 0 -55.5 -17.5t-36.5 -17.5zM286 33q9 5 9 16q0 7 -4 14.5t-8 12.5l-4 5q0 5 8 5q2 0 7 -4t17.5 -8t33.5 -4q25 0 50.5 9.5t34.5 28.5q5 10 12 10q4 0 4 -14q0 -23 -8 -43q-3 -15 -3 -16q0 -6 10 -6q3 23 6 39.5t4 23t1 14.5q0 7 -2 18.5
t-4 20.5l-1 9q0 44 28 44q3 0 3 3q1 11 12 17.5t24 6.5q7 0 16 -4t14 -5q-3 5 -11.5 10.5t-10.5 6.5q6 18 6 36q0 28 -14 65.5t-38 48.5q45 -58 45 -118q0 -8 -2 -20q-4 -19 -27 -19q-11 0 -11 22q0 87 -37 127q-8 39 -31 73q-8 8 -8 24v6q6 15 6 22t-5.5 11t-16.5 6.5
t-14 4.5q-3 3 -8.5 4.5t-8.5 5t-3 11.5q0 28 21 28q9 0 14.5 -7t5.5 -17q0 -8 -2 -13t-2 -6q0 -4 13 -4q6 2 7 6q0 34 -7 47q-11 17 -26 17q-14 0 -26 -9.5t-12 -23.5q0 -17 2 -25q-5 4 -18 4h-8q-6 0 -6 5q0 45 -25 45q-9 0 -16.5 -12t-7.5 -25q0 -8 4 -19.5t10 -11.5l7 6
q-12 0 -12 22q0 20 15 20t15 -27q0 -6 -5 -9q-7 -9 -23 -21q-5 -4 -7 -11q-3 -2 -3 -3q0 -4 6 -6q4 -6 8 -10t7 -6t4 -3q4 -4 16 -4h7q11 0 39 7q15 3 24.5 8.5t13.5 9.5l4 4l1 -1h2q3 0 3 -4t-6 -8l-42 -16q-26 -11 -44 -11q-1 0 -4.5 1t-5.5 1h-9q13 -17 29 -17
q23 0 61 25q1 0 3 0.5t4.5 1.5t5.5 2q1 0 4 -3q0 -5 -11 -11q-16 -7 -44 -27q-14 -14 -26 -14q-15 0 -22 12l-21 29q-3 -3 -3 -4t0.5 -3t0.5 -3q0 -3 -7 -17q-20 -40 -20 -52q0 -4 2 -10t2 -8q-7 -4 -13 -18q-30 -52 -30 -91q0 -10 1 -16q0 -1 -1.5 -7t-1.5 -11q-1 -5 -6 -5
q-3 0 -5 2t-5.5 8t-5.5 9q-5 11 -5 26q0 5 2 19v4q-8 -4 -8 -25q0 -17 8 -33q1 -10 12 -19q18 -15 33 -31l53 -42q9 -8 9 -19q0 -8 -6 -15t-10 -7q-8 0 -8 -3q0 -1 2.5 -4l6 -7.5t5.5 -7.5q11 -17 12 -46zM387 557h4q1 1 1 6q0 3 -6 9q-2 2 -4 2t-3 -2q8 -5 8 -15zM295 553
q2 2 2 4q0 4 -2 9t-4 5q-3 0 -3 -5q4 0 4 -9q0 -4 3 -4zM302 534q-2 0 -3 4q8 4 9 6q-2 -6 -3 -7zM342 536q-3 3 -4 8q2 -2 7 -2v-4q0 -2 -3 -2z" />
    <glyph glyph-name="i.TRK" horiz-adv-x="252" 
d="M126 616q-20 0 -33 13t-13 33t13.5 34t32.5 14q20 0 33 -14t13 -34t-13 -33t-33 -13zM91 0v511h70v-511h-70z" />
    <glyph glyph-name="Jacute" horiz-adv-x="526" 
d="M285 765l142 156h107l-178 -156h-71zM212 -12q-72 0 -114.5 30t-67.5 89l55 30q18 -34 29 -48.5t36 -26t65 -11.5q58 0 97 35t39 118v496h70v-475q0 -55 -13 -98t-34 -68.5t-49.5 -42t-55.5 -22.5t-57 -6z" />
    <glyph glyph-name="jacute" horiz-adv-x="252" 
d="M34 576l142 156h107l-178 -156h-71zM2 -213l-32 55q122 11 122 98v571h70v-543q0 -70 -28 -114q-41 -62 -132 -67z" />
    <glyph glyph-name="zero.dnom" horiz-adv-x="389" 
d="M194 -7q-53 0 -87 34.5t-45.5 80.5t-11.5 103q0 39 7 75t22 69.5t44.5 53.5t70.5 20q54 0 88 -34.5t45.5 -80.5t11.5 -103q0 -40 -6.5 -75.5t-21.5 -69t-45 -53.5t-72 -20zM194 48q84 0 84 163t-84 163q-83 0 -83 -163t83 -163z" />
    <glyph glyph-name="one.dnom" horiz-adv-x="198" 
d="M72 0v324h-47v43q49 0 66 55h42v-422h-61z" />
    <glyph glyph-name="two.dnom" horiz-adv-x="367" 
d="M40 0q0 31 8 57.5t17.5 43t33.5 38t38 31.5t50 34q35 23 51.5 46.5t16.5 59.5q0 25 -20 47t-59 22q-69 0 -84 -71l-51 21q11 45 48 72.5t95 27.5t95.5 -33.5t37.5 -90.5q0 -52 -27 -86.5t-90 -72.5q-42 -26 -63.5 -45.5t-31.5 -45.5h211v-55h-276z" />
    <glyph glyph-name="three.dnom" horiz-adv-x="380" 
d="M187 -12q-110 0 -152 103l55 23q32 -76 97 -76q37 0 58 20.5t21 53.5q0 31 -19.5 54.5t-50.5 23.5h-34v50h22q33 0 49 20t16 50q0 28 -17.5 48.5t-50.5 20.5q-27 0 -49.5 -18t-35.5 -46l-53 18q17 42 55.5 69t86.5 27q57 0 92.5 -30.5t35.5 -82.5q0 -28 -15.5 -54
t-41.5 -38q33 -11 53.5 -38t20.5 -66q0 -61 -39.5 -96.5t-103.5 -35.5z" />
    <glyph glyph-name="four.dnom" horiz-adv-x="383" 
d="M230 0v108h-210v30l224 285h47v-260h52v-55h-52v-108h-61zM230 163v172l-129 -172h129z" />
    <glyph glyph-name="five.dnom" horiz-adv-x="368" 
d="M175 -12q-45 0 -81.5 16.5t-53.5 37.5l32 41q38 -45 99 -45q46 0 71 26.5t25 67.5q0 40 -21.5 65.5t-62.5 25.5q-59 0 -92 -41l-41 13l35 222h210v-55h-165l-18 -113q33 24 81 24q60 0 97.5 -39t37.5 -102q0 -60 -43 -102t-110 -42z" />
    <glyph glyph-name="six.dnom" horiz-adv-x="366" 
d="M187 -12q-65 0 -101 45.5t-36 114.5q0 100 64.5 180.5t156.5 98.5v-50q-49 -12 -89.5 -52.5t-58.5 -98.5q28 31 80 31q53 0 88 -39.5t35 -92.5q0 -58 -38.5 -97.5t-100.5 -39.5zM190 38q30 0 52.5 23t22.5 59q0 40 -21 63.5t-54 23.5q-36 0 -57.5 -24t-21.5 -61
q0 -39 21.5 -61.5t57.5 -22.5z" />
    <glyph glyph-name="seven.dnom" horiz-adv-x="313" 
d="M97 0q1 196 124 362h-201v55h268v-58q-124 -140 -126 -359h-65z" />
    <glyph glyph-name="eight.dnom" horiz-adv-x="382" 
d="M191 -12q-63 0 -102 36t-39 93q0 84 71 116q-21 9 -36 32t-15 51q0 49 34 81t87 32t87 -32t34 -81q0 -27 -15 -50.5t-36 -32.5q71 -33 71 -116q0 -57 -39 -93t-102 -36zM191 251q30 0 47.5 17t17.5 44q0 31 -18 49t-47 18q-28 0 -46.5 -18.5t-18.5 -48.5q0 -27 18 -44
t47 -17zM191 38q35 0 57.5 23t22.5 62q0 34 -22 58t-58 24q-35 0 -57.5 -24t-22.5 -58q0 -39 22.5 -62t57.5 -23z" />
    <glyph glyph-name="nine.dnom" horiz-adv-x="366" 
d="M95 -10v50q49 12 89.5 52.5t58.5 98.5q-28 -31 -80 -31q-53 0 -88 39.5t-35 92.5q0 58 38.5 97.5t100.5 39.5q65 0 101 -45.5t36 -114.5q0 -100 -64.5 -180.5t-156.5 -98.5zM176 210q36 0 57.5 24t21.5 61q0 39 -21.5 61.5t-57.5 22.5q-30 0 -52.5 -23t-22.5 -59
q0 -40 21 -63.5t54 -23.5z" />
    <glyph glyph-name="zero.numr" horiz-adv-x="389" 
d="M194 276q-53 0 -87 34.5t-45.5 80.5t-11.5 103q0 39 7 75t22 69.5t44.5 53.5t70.5 20q54 0 88 -34.5t45.5 -80.5t11.5 -103q0 -40 -6.5 -75.5t-21.5 -69t-45 -53.5t-72 -20zM194 331q84 0 84 163t-84 163q-83 0 -83 -163t83 -163z" />
    <glyph glyph-name="one.numr" horiz-adv-x="198" 
d="M72 283v324h-47v43q49 0 66 55h42v-422h-61z" />
    <glyph glyph-name="two.numr" horiz-adv-x="367" 
d="M40 283q0 31 8 57.5t17.5 43t33.5 38t38 31.5t50 34q35 23 51.5 46.5t16.5 59.5q0 25 -20 47t-59 22q-69 0 -84 -71l-51 21q11 45 48 72.5t95 27.5t95.5 -33.5t37.5 -90.5q0 -52 -27 -86.5t-90 -72.5q-42 -26 -63.5 -45.5t-31.5 -45.5h211v-55h-276z" />
    <glyph glyph-name="three.numr" horiz-adv-x="380" 
d="M187 271q-110 0 -152 103l55 23q32 -76 97 -76q37 0 58 20.5t21 53.5q0 31 -19.5 54.5t-50.5 23.5h-34v50h22q33 0 49 20t16 50q0 28 -17.5 48.5t-50.5 20.5q-27 0 -49.5 -18t-35.5 -46l-53 18q17 42 55.5 69t86.5 27q57 0 92.5 -30.5t35.5 -82.5q0 -28 -15.5 -54
t-41.5 -38q33 -11 53.5 -38t20.5 -66q0 -61 -39.5 -96.5t-103.5 -35.5z" />
    <glyph glyph-name="four.numr" horiz-adv-x="383" 
d="M230 283v108h-210v30l224 285h47v-260h52v-55h-52v-108h-61zM230 446v172l-129 -172h129z" />
    <glyph glyph-name="five.numr" horiz-adv-x="368" 
d="M175 271q-45 0 -81.5 16.5t-53.5 37.5l32 41q38 -45 99 -45q46 0 71 26.5t25 67.5q0 40 -21.5 65.5t-62.5 25.5q-59 0 -92 -41l-41 13l35 222h210v-55h-165l-18 -113q33 24 81 24q60 0 97.5 -39t37.5 -102q0 -60 -43 -102t-110 -42z" />
    <glyph glyph-name="six.numr" horiz-adv-x="366" 
d="M187 271q-65 0 -101 45.5t-36 114.5q0 100 64.5 180.5t156.5 98.5v-50q-49 -12 -89.5 -52.5t-58.5 -98.5q28 31 80 31q53 0 88 -39.5t35 -92.5q0 -58 -38.5 -97.5t-100.5 -39.5zM190 321q30 0 52.5 23t22.5 59q0 40 -21 63.5t-54 23.5q-36 0 -57.5 -24t-21.5 -61
q0 -39 21.5 -61.5t57.5 -22.5z" />
    <glyph glyph-name="seven.numr" horiz-adv-x="313" 
d="M97 283q1 196 124 362h-201v55h268v-58q-124 -140 -126 -359h-65z" />
    <glyph glyph-name="eight.numr" horiz-adv-x="382" 
d="M191 271q-63 0 -102 36t-39 93q0 84 71 116q-21 9 -36 32t-15 51q0 49 34 81t87 32t87 -32t34 -81q0 -27 -15 -50.5t-36 -32.5q71 -33 71 -116q0 -57 -39 -93t-102 -36zM191 534q30 0 47.5 17t17.5 44q0 31 -18 49t-47 18q-28 0 -46.5 -18.5t-18.5 -48.5q0 -27 18 -44
t47 -17zM191 321q35 0 57.5 23t22.5 62q0 34 -22 58t-58 24q-35 0 -57.5 -24t-22.5 -58q0 -39 22.5 -62t57.5 -23z" />
    <glyph glyph-name="nine.numr" horiz-adv-x="366" 
d="M95 273v50q49 12 89.5 52.5t58.5 98.5q-28 -31 -80 -31q-53 0 -88 39.5t-35 92.5q0 58 38.5 97.5t100.5 39.5q65 0 101 -45.5t36 -114.5q0 -100 -64.5 -180.5t-156.5 -98.5zM176 493q36 0 57.5 24t21.5 61q0 39 -21.5 61.5t-57.5 22.5q-30 0 -52.5 -23t-22.5 -59
q0 -40 21 -63.5t54 -23.5z" />
    </font>
</defs>
</svg>
